SplineFontDB: 3.2
FontName: rz-icons
FullName: rz-icons
FamilyName: rz-icons
Weight: Book
Version: 1.0
ItalicAngle: 0
UnderlinePosition: 0
UnderlineWidth: 0
Ascent: 480
Descent: 32
InvalidEm: 0
sfntRevision: 0x00010000
LayerCount: 2
Layer: 0 1 "Back" 1
Layer: 1 1 "Fore" 0
XUID: [1021 695 -2074803165 14629249]
StyleMap: 0x0040
FSType: 8
OS2Version: 1
OS2_WeightWidthSlopeOnly: 0
OS2_UseTypoMetrics: 0
CreationTime: 1442846370
ModificationTime: 1644544735
PfmFamily: 17
TTFWeight: 400
TTFWidth: 5
LineGap: 46
VLineGap: 0
Panose: 2 0 5 9 0 0 0 0 0 0
OS2TypoAscent: 480
OS2TypoAOffset: 0
OS2TypoDescent: -32
OS2TypoDOffset: 0
OS2TypoLinegap: 46
OS2WinAscent: 513
OS2WinAOffset: 0
OS2WinDescent: 0
OS2WinDOffset: 0
HheadAscent: 513
HheadAOffset: 0
HheadDescent: 0
HheadDOffset: 0
OS2SubXSize: 332
OS2SubYSize: 358
OS2SubXOff: 0
OS2SubYOff: 71
OS2SupXSize: 332
OS2SupYSize: 358
OS2SupXOff: 0
OS2SupYOff: 245
OS2StrikeYSize: 25
OS2StrikeYPos: 132
OS2Vendor: 'PfEd'
OS2CodePages: 00000001.00000000
OS2UnicodeRanges: 00000000.10000000.00000000.00000000
DEI: 91125
ShortTable: maxp 16
  1
  0
  149
  310
  13
  0
  0
  2
  0
  1
  1
  0
  64
  0
  0
  0
EndShort
LangName: 1033 "" "" "" "FontForge 2.0 : rz-icons : 21-9-2015" "" "Version 1.0"
GaspTable: 1 65535 2 0
Encoding: UnicodeBmp
UnicodeInterp: none
NameList: AGL For New Fonts
DisplaySize: -48
AntiAlias: 1
FitToEm: 0
WinInfo: 57264 24 11
Grid
399.5 736 m 0
 399.5 -288 l 1024
71.6666870117 736 m 0
 71.6666870117 -288 l 1024
-512 40.5 m 0
 1024 40.5 l 1024
-512 472.5 m 0
 1024 472.5 l 1024
EndSplineSet
BeginChars: 65538 149

StartChar: uniE000
Encoding: 57344 57344 3
Width: 512
GlyphClass: 2
Flags: W
LayerCount: 2
Fore
SplineSet
509 182 m 0,0,1
 507 184 507 184 456 229 c 0,2,3
 453 232 453 232 453 238 c 2,4,-1
 453 274 l 2,5,6
 453 280 453 280 456 283 c 0,7,8
 465 290 465 290 482.5 306.5 c 128,-1,9
 500 323 500 323 509 330 c 0,10,11
 513 334 513 334 511 339 c 0,12,13
 508 345 508 345 503 358 c 128,-1,14
 498 371 498 371 495 378 c 0,15,16
 492 384 492 384 486 382 c 0,17,18
 448 382 448 382 448 380 c 0,19,20
 426 379 426 379 414 379 c 0,21,22
 411 379 411 379 408 382 c 0,23,24
 404 386 404 386 399.5 390.5 c 128,-1,25
 395 395 395 395 389.5 400.5 c 128,-1,26
 384 406 384 406 381 409 c 128,-1,27
 378 412 378 412 378 416 c 0,28,29
 380 440 380 440 382 488 c 0,30,31
 382 492 382 492 379 494 c 0,32,33
 356 504 356 504 338 511 c 0,34,35
 334 514 334 514 331 509 c 0,36,37
 323 500 323 500 307 482.5 c 128,-1,38
 291 465 291 465 283 456 c 0,39,40
 280 452 280 452 274 453 c 2,41,-1
 239 453 l 2,42,43
 232 453 232 453 228 457 c 0,44,45
 221 465 221 465 213.5 474 c 128,-1,46
 206 483 206 483 196.5 493 c 128,-1,47
 187 503 187 503 182 509 c 0,48,49
 178 513 178 513 174 511 c 0,50,51
 166 508 166 508 133 494 c 0,52,53
 130 491 130 491 130 488 c 0,54,55
 132 438 132 438 134 415 c 1,56,-1
 131 409 l 2,57,58
 128 406 128 406 122.5 400 c 128,-1,59
 117 394 117 394 112 389.5 c 128,-1,60
 107 385 107 385 103 381 c 0,61,62
 100 378 100 378 97 379 c 0,63,64
 49 381 49 381 24 382 c 0,65,66
 20 383 20 383 17 378 c 0,67,68
 15 373 15 373 9.5 359.5 c 128,-1,69
 4 346 4 346 1 338 c 0,70,71
 -2 334 -2 334 3 331 c 0,72,73
 12 323 12 323 29.5 307 c 128,-1,74
 47 291 47 291 56 283 c 0,75,76
 60 279 60 279 59 274 c 2,77,-1
 59 238 l 2,78,79
 60 233 60 233 56 229 c 0,80,81
 20 197 20 197 3 181 c 0,82,83
 -2 178 -2 178 1 174 c 0,84,85
 6 161 6 161 18 133 c 0,86,87
 20 130 20 130 24 130 c 2,88,-1
 96 133 l 2,89,90
 101 133 101 133 103 131 c 2,91,-1
 131 103 l 2,92,93
 134 100 134 100 134 97 c 0,94,95
 132 73 132 73 130 25 c 0,96,97
 130 19 130 19 134 17 c 0,98,99
 139 15 139 15 152.5 9.5 c 128,-1,100
 166 4 166 4 174 1 c 0,101,102
 178 -1 178 -1 182 3 c 0,103,104
 197 21 197 21 229 55 c 0,105,106
 233 60 233 60 239 59 c 2,107,-1
 273 59 l 2,108,109
 280 59 280 59 283 56 c 0,110,111
 315 20 315 20 331 3 c 0,112,113
 334 -2 334 -2 338 1 c 0,114,115
 356 8 356 8 379 18 c 0,116,117
 382 20 382 20 382 23 c 0,118,119
 381 48 381 48 379 96 c 0,120,121
 379 102 379 102 382 103 c 0,122,123
 391 113 391 113 409 131 c 0,124,125
 414 134 414 134 415 133 c 0,126,127
 440 132 440 132 488 130 c 0,128,129
 492 129 492 129 495 133 c 0,130,131
 498 141 498 141 503.5 154.5 c 128,-1,132
 509 168 509 168 511 173 c 128,-1,133
 513 178 513 178 509 182 c 0,0,1
256 96 m 0,134,135
 193 97 193 97 144.5 145.5 c 128,-1,136
 96 194 96 194 96 256 c 128,-1,137
 96 318 96 318 144.5 367 c 128,-1,138
 193 416 193 416 256 416 c 0,139,140
 307 416 307 416 352.5 381.5 c 128,-1,141
 398 347 398 347 413 299 c 0,142,143
 414 295 414 295 411.5 291.5 c 128,-1,144
 409 288 409 288 404 288 c 2,145,-1
 288 288 l 1,146,-1
 288 352 l 1,147,-1
 192 256 l 1,148,-1
 288 160 l 1,149,-1
 288 224 l 1,150,-1
 404 224 l 2,151,152
 409 224 409 224 411.5 220.5 c 128,-1,153
 414 217 414 217 413 213 c 0,154,155
 398 164 398 164 352 129.5 c 128,-1,156
 306 95 306 95 256 96 c 0,134,135
EndSplineSet
EndChar

StartChar: uniE001
Encoding: 57345 57345 4
Width: 512
GlyphClass: 2
Flags: W
LayerCount: 2
Fore
SplineSet
477 191 m 0,0,1
 447 219 447 219 431 232 c 0,2,3
 428 237 428 237 428 240 c 2,4,-1
 428 272 l 2,5,6
 428 276 428 276 431 279 c 0,7,8
 438 286 438 286 454 300 c 128,-1,9
 470 314 470 314 477 321 c 0,10,11
 482 324 482 324 479 329 c 0,12,13
 477 335 477 335 472.5 346.5 c 128,-1,14
 468 358 468 358 465 363 c 0,15,16
 464 365 464 365 469 367 c 2,17,-1
 448 365 l 1,18,-1
 440 364 l 2,19,20
 432 364 432 364 421 363.5 c 128,-1,21
 410 363 410 363 406 363 c 0,22,23
 396 363 396 363 395 366 c 0,24,25
 391 370 391 370 381.5 378 c 128,-1,26
 372 386 372 386 368 390 c 0,27,28
 365 393 365 393 365 396 c 0,29,30
 366 407 366 407 366 428 c 128,-1,31
 366 449 366 449 367 459 c 0,32,33
 367 464 367 464 364 464 c 2,34,-1
 328 479 l 2,35,36
 324 482 324 482 321 477 c 0,37,38
 316 472 316 472 301.5 456 c 128,-1,39
 287 440 287 440 280 431 c 0,40,41
 276 428 276 428 272 428 c 2,42,-1
 241 428 l 2,43,44
 235 428 235 428 232 432 c 0,45,46
 204 462 204 462 191 478 c 0,47,48
 188 481 188 481 184 479 c 0,49,50
 152 466 152 466 149 464 c 0,51,52
 146 464 146 464 146 459 c 0,53,54
 146 449 146 449 147 427.5 c 128,-1,55
 148 406 148 406 149 395 c 0,56,57
 149 392 149 392 147 390 c 2,58,-1
 122 365 l 2,59,60
 120 363 120 363 117 363 c 0,61,62
 75 365 75 365 53 367 c 0,63,64
 48 367 48 367 47 363 c 0,65,66
 44 357 44 357 39.5 345.5 c 128,-1,67
 35 334 35 334 33 328 c 0,68,69
 31 324 31 324 34 321 c 0,70,71
 66 293 66 293 81 279 c 0,72,73
 84 277 84 277 84 272 c 2,74,-1
 84 240 l 2,75,76
 84 236 84 236 81 232 c 0,77,78
 73 225 73 225 57.5 211 c 128,-1,79
 42 197 42 197 34 190 c 0,80,81
 30 188 30 188 32 185 c 0,82,83
 35 179 35 179 40 167 c 128,-1,84
 45 155 45 155 48 148 c 0,85,86
 48 144 48 144 53 146 c 0,87,88
 62 146 62 146 72.5 146.5 c 128,-1,89
 83 147 83 147 96 148 c 128,-1,90
 109 149 109 149 116 149 c 0,91,92
 120 149 120 149 122 146 c 2,93,-1
 146 122 l 2,94,95
 149 120 149 120 149 117 c 0,96,97
 147 75 147 75 145 53 c 0,98,99
 145 48 145 48 149 47 c 0,100,101
 155 45 155 45 166.5 40 c 128,-1,102
 178 35 178 35 184 33 c 0,103,104
 188 30 188 30 191 35 c 0,105,106
 198 43 198 43 211.5 57.5 c 128,-1,107
 225 72 225 72 232 80 c 0,108,109
 235 84 235 84 241 84 c 0,110,111
 256 82 256 82 271 84 c 0,112,113
 276 84 276 84 280 81 c 0,114,115
 319 36 319 36 321 34 c 0,116,117
 324 31 324 31 328 33 c 128,-1,118
 332 35 332 35 339.5 37.5 c 128,-1,119
 347 40 347 40 353 42.5 c 128,-1,120
 359 45 359 45 364 48 c 0,121,122
 365 48 365 48 366 49.5 c 128,-1,123
 367 51 367 51 366 52 c 0,124,125
 366 53 366 53 363 116 c 0,126,127
 363 119 363 119 366 122 c 0,128,129
 378 136 378 136 390 146 c 0,130,131
 392 149 392 149 395 149 c 0,132,133
 437 147 437 147 459 145 c 0,134,135
 464 145 464 145 465 149 c 0,136,137
 468 155 468 155 472.5 167 c 128,-1,138
 477 179 477 179 479 184 c 0,139,140
 482 188 482 188 477 191 c 0,0,1
256 116 m 0,141,142
 201 117 201 117 158.5 159 c 128,-1,143
 116 201 116 201 116 256 c 128,-1,144
 116 311 116 311 158.5 353.5 c 128,-1,145
 201 396 201 396 256 396 c 0,146,147
 301 396 301 396 340.5 367 c 128,-1,148
 380 338 380 338 393 296 c 0,149,150
 396 288 396 288 386 288 c 2,151,-1
 288 288 l 1,152,-1
 288 340 l 1,153,-1
 204 256 l 1,154,-1
 288 172 l 1,155,-1
 288 224 l 1,156,-1
 386 224 l 2,157,158
 396 224 396 224 393 216 c 0,159,160
 380 174 380 174 340.5 144.5 c 128,-1,161
 301 115 301 115 256 116 c 0,141,142
EndSplineSet
EndChar

StartChar: uniE002
Encoding: 57346 57346 5
Width: 512
GlyphClass: 2
Flags: W
LayerCount: 2
Fore
SplineSet
330 425 m 0,0,1
 291 425 291 425 253 407 c 1,2,3
 215 425 215 425 176 425 c 0,4,5
 103 425 103 425 52 373.5 c 128,-1,6
 1 322 1 322 1 249 c 0,7,8
 1 177 1 177 52 125.5 c 128,-1,9
 103 74 103 74 176 74 c 0,10,11
 215 74 215 74 253 92 c 1,12,13
 291 74 291 74 330 74 c 0,14,15
 403 74 403 74 454 125.5 c 128,-1,16
 505 177 505 177 505 249 c 0,17,18
 505 322 505 322 454 373.5 c 128,-1,19
 403 425 403 425 330 425 c 0,0,1
176 112 m 0,20,21
 120 112 120 112 79.5 152.5 c 128,-1,22
 39 193 39 193 39 249 c 0,23,24
 39 306 39 306 79.5 346.5 c 128,-1,25
 120 387 120 387 176 387 c 0,26,27
 189 387 189 387 213 381 c 1,28,29
 154 329 154 329 154 249 c 0,30,31
 154 170 154 170 213 118 c 1,32,33
 189 112 189 112 176 112 c 0,20,21
313 249 m 0,34,35
 313 178 313 178 253 136 c 1,36,37
 193 178 193 178 193 249 c 0,38,39
 193 321 193 321 253 363 c 1,40,41
 313 321 313 321 313 249 c 0,34,35
330 112 m 0,42,43
 316 112 316 112 292 118 c 1,44,45
 352 170 352 170 352 249 c 0,46,47
 352 329 352 329 292 381 c 1,48,49
 312 386 312 386 330 386 c 0,50,51
 386 386 386 386 426.5 346 c 128,-1,52
 467 306 467 306 467 249 c 0,53,54
 467 193 467 193 426.5 152.5 c 128,-1,55
 386 112 386 112 330 112 c 0,42,43
EndSplineSet
EndChar

StartChar: uniE003
Encoding: 57347 57347 6
Width: 512
GlyphClass: 2
Flags: W
LayerCount: 2
Fore
SplineSet
36 192 m 1,0,-1
 43 192 l 1,1,-1
 83 192 l 2,2,3
 123 191 123 191 123 192 c 1,4,5
 127 192 127 192 132 187 c 2,6,-1
 189 100 l 2,7,8
 193 95 193 95 199 95 c 2,9,-1
 315 95 l 2,10,11
 320 94 320 94 325 100 c 0,12,13
 363 158 363 158 383 187 c 0,14,15
 386 192 386 192 390 192 c 1,16,17
 390 191 390 191 430 192 c 2,18,-1
 471 192 l 1,19,-1
 478 192 l 1,20,-1
 475 198 l 2,21,22
 457 233 457 233 421.5 304 c 128,-1,23
 386 375 386 375 368 411 c 0,24,25
 366 416 366 416 360 416 c 2,26,-1
 154 416 l 2,27,28
 149 416 149 416 146 411 c 0,29,30
 75 269 75 269 39 198 c 2,31,-1
 36 192 l 1,0,-1
512 0 m 1,32,-1
 0 0 l 1,33,-1
 0 4 l 1,34,-1
 0 185 l 2,35,36
 0 189 0 189 2 195 c 0,37,38
 25 242 25 242 68.5 328.5 c 128,-1,39
 112 415 112 415 126 442 c 0,40,41
 129 448 129 448 134 448 c 2,42,-1
 380 448 l 2,43,44
 385 448 385 448 388 443 c 0,45,46
 429 360 429 360 511 196 c 1,47,-1
 512 186 l 1,48,-1
 512 186 l 1,49,-1
 512 186 l 1,50,-1
 512 186 l 1,51,-1
 512 186 l 1,52,-1
 512 185 l 1,53,-1
 512 185 l 1,54,-1
 512 184 l 1,55,-1
 512 184 l 1,56,-1
 512 183 l 1,57,-1
 512 182 l 1,58,-1
 512 181 l 1,59,-1
 512 180 l 1,60,-1
 512 179 l 1,61,-1
 512 178 l 1,62,-1
 512 177 l 1,63,-1
 512 176 l 1,64,-1
 512 175 l 1,65,-1
 512 174 l 1,66,-1
 512 173 l 1,67,-1
 512 172 l 1,68,-1
 512 171 l 1,69,-1
 512 170 l 1,70,-1
 512 169 l 1,71,-1
 512 168 l 1,72,-1
 512 167 l 1,73,-1
 512 166 l 1,74,-1
 512 165 l 1,75,-1
 512 164 l 1,76,-1
 512 163 l 1,77,-1
 512 162 l 1,78,-1
 512 161 l 1,79,-1
 512 160 l 1,80,-1
 512 159 l 1,81,-1
 512 158 l 1,82,-1
 512 157 l 1,83,-1
 512 156 l 1,84,-1
 512 155 l 1,85,-1
 512 154 l 1,86,-1
 512 153 l 1,87,-1
 512 152 l 1,88,-1
 512 151 l 1,89,-1
 512 150 l 1,90,-1
 512 148 l 1,91,-1
 512 147 l 1,92,-1
 512 146 l 1,93,-1
 512 145 l 1,94,-1
 512 144 l 1,95,-1
 512 143 l 1,96,-1
 512 142 l 1,97,-1
 512 140 l 1,98,-1
 512 139 l 1,99,-1
 512 138 l 1,100,-1
 512 137 l 1,101,-1
 512 136 l 1,102,-1
 512 134 l 1,103,-1
 512 133 l 1,104,-1
 512 132 l 1,105,-1
 512 131 l 1,106,-1
 512 129 l 1,107,-1
 512 128 l 1,108,-1
 512 127 l 1,109,-1
 512 125 l 1,110,-1
 512 124 l 1,111,-1
 512 123 l 1,112,-1
 512 122 l 1,113,-1
 512 120 l 1,114,-1
 512 119 l 1,115,-1
 512 117 l 1,116,-1
 512 116 l 1,117,-1
 512 115 l 1,118,-1
 512 113 l 1,119,-1
 512 112 l 1,120,-1
 512 111 l 1,121,-1
 512 109 l 1,122,-1
 512 108 l 1,123,-1
 512 106 l 1,124,-1
 512 105 l 1,125,-1
 512 103 l 1,126,-1
 512 102 l 1,127,-1
 512 101 l 1,128,-1
 512 99 l 1,129,-1
 512 98 l 1,130,-1
 512 96 l 1,131,-1
 512 95 l 1,132,-1
 512 93 l 1,133,-1
 512 92 l 1,134,-1
 512 90 l 1,135,-1
 512 89 l 1,136,-1
 512 87 l 1,137,-1
 512 86 l 1,138,-1
 512 84 l 1,139,-1
 512 82 l 1,140,-1
 512 81 l 1,141,-1
 512 79 l 1,142,-1
 512 78 l 1,143,-1
 512 76 l 1,144,-1
 512 75 l 1,145,-1
 512 73 l 1,146,-1
 512 71 l 1,147,-1
 512 70 l 1,148,-1
 512 68 l 1,149,-1
 512 67 l 1,150,-1
 512 65 l 1,151,-1
 512 63 l 1,152,-1
 512 62 l 1,153,-1
 512 60 l 1,154,-1
 512 58 l 1,155,-1
 512 57 l 1,156,-1
 512 55 l 1,157,-1
 512 53 l 1,158,-1
 512 52 l 1,159,-1
 512 50 l 1,160,-1
 512 48 l 1,161,-1
 512 47 l 1,162,-1
 512 45 l 1,163,-1
 512 43 l 1,164,-1
 512 41 l 1,165,-1
 512 40 l 1,166,-1
 512 38 l 1,167,-1
 512 36 l 1,168,-1
 512 34 l 1,169,-1
 512 33 l 1,170,-1
 512 31 l 1,171,-1
 512 29 l 1,172,-1
 512 27 l 1,173,-1
 512 26 l 1,174,-1
 512 24 l 1,175,-1
 512 22 l 1,176,-1
 512 20 l 1,177,-1
 512 18 l 1,178,-1
 512 17 l 1,179,-1
 512 15 l 1,180,-1
 512 5 l 1,181,-1
 512 0 l 1,32,-1
128 224 m 1,182,-1
 128 256 l 1,183,-1
 384 256 l 1,184,-1
 384 224 l 1,185,-1
 128 224 l 1,182,-1
160 288 m 1,186,-1
 160 320 l 1,187,-1
 352 320 l 1,188,-1
 352 288 l 1,189,-1
 160 288 l 1,186,-1
EndSplineSet
EndChar

StartChar: uniE004
Encoding: 57348 57348 7
Width: 512
GlyphClass: 2
Flags: W
LayerCount: 2
Fore
SplineSet
480 64 m 1,0,-1
 32 64 l 1,1,-1
 32 221 l 2,2,3
 32 225 32 225 34 229 c 0,4,5
 52 264 52 264 88 335.5 c 128,-1,6
 124 407 124 407 142 443 c 0,7,8
 145 448 145 448 149 448 c 2,9,-1
 364 448 l 2,10,11
 369 448 369 448 372 443 c 0,12,13
 407 372 407 372 479 230 c 0,14,15
 480 229 480 229 480 222 c 1,16,-1
 480 222 l 1,17,-1
 480 222 l 1,18,-1
 480 222 l 1,19,-1
 480 222 l 1,20,-1
 480 221 l 1,21,-1
 480 221 l 1,22,-1
 480 221 l 1,23,-1
 480 220 l 1,24,-1
 480 220 l 1,25,-1
 480 219 l 1,26,-1
 480 219 l 1,27,-1
 480 218 l 1,28,-1
 480 218 l 1,29,-1
 480 217 l 1,30,-1
 480 216 l 1,31,-1
 480 215 l 1,32,-1
 480 214 l 1,33,-1
 480 213 l 1,34,-1
 480 212 l 1,35,-1
 480 211 l 1,36,-1
 480 210 l 1,37,-1
 480 209 l 1,38,-1
 480 208 l 1,39,-1
 480 207 l 1,40,-1
 480 206 l 1,41,-1
 480 205 l 1,42,-1
 480 204 l 1,43,-1
 480 203 l 1,44,-1
 480 202 l 1,45,-1
 480 201 l 1,46,-1
 480 200 l 1,47,-1
 480 199 l 1,48,-1
 480 198 l 1,49,-1
 480 197 l 1,50,-1
 480 196 l 1,51,-1
 480 195 l 1,52,-1
 480 194 l 1,53,-1
 480 193 l 1,54,-1
 480 192 l 1,55,-1
 480 191 l 1,56,-1
 480 190 l 1,57,-1
 480 189 l 1,58,-1
 480 188 l 1,59,-1
 480 187 l 1,60,-1
 480 186 l 1,61,-1
 480 185 l 1,62,-1
 480 184 l 1,63,-1
 480 183 l 1,64,-1
 480 182 l 1,65,-1
 480 181 l 1,66,-1
 480 180 l 1,67,-1
 480 179 l 1,68,-1
 480 178 l 1,69,-1
 480 177 l 1,70,-1
 480 176 l 1,71,-1
 480 175 l 1,72,-1
 480 174 l 1,73,-1
 480 173 l 1,74,-1
 480 172 l 1,75,-1
 480 171 l 1,76,-1
 480 170 l 1,77,-1
 480 169 l 1,78,-1
 480 168 l 1,79,-1
 480 167 l 1,80,-1
 480 166 l 1,81,-1
 480 165 l 1,82,-1
 480 164 l 1,83,-1
 480 163 l 1,84,-1
 480 162 l 1,85,-1
 480 161 l 1,86,-1
 480 160 l 1,87,-1
 480 159 l 1,88,-1
 480 158 l 1,89,-1
 480 157 l 1,90,-1
 480 156 l 1,91,-1
 480 155 l 1,92,-1
 480 154 l 1,93,-1
 480 153 l 1,94,-1
 480 152 l 1,95,-1
 480 151 l 1,96,-1
 480 149 l 1,97,-1
 480 148 l 1,98,-1
 480 147 l 1,99,-1
 480 146 l 1,100,-1
 480 145 l 1,101,-1
 480 144 l 1,102,-1
 480 143 l 1,103,-1
 480 142 l 1,104,-1
 480 141 l 1,105,-1
 480 140 l 1,106,-1
 480 139 l 1,107,-1
 480 138 l 1,108,-1
 480 137 l 1,109,-1
 480 136 l 1,110,-1
 480 134 l 1,111,-1
 480 133 l 1,112,-1
 480 132 l 1,113,-1
 480 131 l 1,114,-1
 480 130 l 1,115,-1
 480 129 l 1,116,-1
 480 128 l 1,117,-1
 480 127 l 1,118,-1
 480 126 l 1,119,-1
 480 125 l 1,120,-1
 480 123 l 1,121,-1
 480 122 l 1,122,-1
 480 121 l 1,123,-1
 480 120 l 1,124,-1
 480 119 l 1,125,-1
 480 118 l 1,126,-1
 480 117 l 1,127,-1
 480 116 l 1,128,-1
 480 115 l 1,129,-1
 480 113 l 1,130,-1
 480 112 l 1,131,-1
 480 111 l 1,132,-1
 480 110 l 1,133,-1
 480 109 l 1,134,-1
 480 108 l 1,135,-1
 480 107 l 1,136,-1
 480 106 l 1,137,-1
 480 105 l 1,138,-1
 480 103 l 1,139,-1
 480 102 l 1,140,-1
 480 101 l 1,141,-1
 480 100 l 1,142,-1
 480 99 l 1,143,-1
 480 98 l 1,144,-1
 480 97 l 1,145,-1
 480 96 l 1,146,-1
 480 95 l 1,147,-1
 480 93 l 1,148,-1
 480 92 l 1,149,-1
 480 91 l 1,150,-1
 480 90 l 1,151,-1
 480 89 l 1,152,-1
 480 88 l 1,153,-1
 480 87 l 1,154,-1
 480 86 l 1,155,-1
 480 85 l 1,156,-1
 480 84 l 1,157,-1
 480 83 l 1,158,-1
 480 81 l 1,159,-1
 480 80 l 1,160,-1
 480 79 l 1,161,-1
 480 78 l 1,162,-1
 480 77 l 1,163,-1
 480 76 l 1,164,-1
 480 75 l 1,165,-1
 480 74 l 1,166,-1
 480 65 l 1,167,-1
 480 64 l 1,0,-1
64 224 m 2,168,-1
 69 224 l 1,169,-1
 144 224 l 2,170,171
 149 224 149 224 197 149 c 0,172,173
 201 143 201 143 206 143 c 2,174,-1
 308 143 l 2,175,176
 311 143 311 143 316 150 c 0,177,178
 366 224 366 224 368 224 c 2,179,-1
 444 224 l 1,180,-1
 450 224 l 2,181,182
 449 224 449 224 448 227 c 2,183,-1
 447 230 l 1,184,185
 431 261 431 261 400 322.5 c 128,-1,186
 369 384 369 384 354 415 c 0,187,188
 351 420 351 420 347 420 c 2,189,-1
 167 420 l 2,190,191
 162 420 162 420 159 415 c 0,192,193
 128 354 128 354 66 230 c 1,194,-1
 65 227 l 2,195,196
 65 224 65 224 64 224 c 2,168,-1
160 256 m 1,197,-1
 160 288 l 1,198,-1
 352 288 l 1,199,-1
 352 256 l 1,200,-1
 160 256 l 1,197,-1
192 320 m 1,201,-1
 192 352 l 1,202,-1
 320 352 l 1,203,-1
 320 320 l 1,204,-1
 192 320 l 1,201,-1
EndSplineSet
EndChar

StartChar: uniE005
Encoding: 57349 57349 8
Width: 512
GlyphClass: 2
Flags: W
LayerCount: 2
Fore
SplineSet
485 222 m 2,0,1
 485 228 485 228 483 231 c 0,2,3
 465 268 465 268 373 452 c 0,4,5
 371 457 371 457 366 457 c 0,6,7
 255 456 255 456 146 457 c 0,8,9
 141 457 141 457 138 452 c 0,10,11
 64 304 64 304 28 230 c 0,12,13
 26 228 26 228 26 221 c 2,14,-1
 26 51 l 1,15,-1
 486 51 l 1,16,-1
 486 60 l 1,17,-1
 485 222 l 2,0,1
447 230 m 2,18,19
 439 230 439 230 414 229 c 128,-1,20
 389 228 389 228 375 229 c 1,21,-1
 368 222 l 1,22,23
 334 170 334 170 316 144 c 0,24,25
 313 140 313 140 308 140 c 2,26,-1
 204 140 l 2,27,28
 198 140 198 140 195 146 c 2,29,-1
 144 224 l 2,30,31
 140 229 140 229 136 228 c 0,32,33
 124 228 124 228 100 229 c 128,-1,34
 76 230 76 230 64 230 c 2,35,-1
 58 230 l 2,36,37
 59 230 59 230 60 232 c 2,38,-1
 61 234 l 2,39,40
 79 271 79 271 112 335.5 c 128,-1,41
 145 400 145 400 156 422 c 0,42,43
 159 428 159 428 164 428 c 0,44,45
 165 428 165 428 204 428 c 128,-1,46
 243 428 243 428 287.5 428.5 c 128,-1,47
 332 429 332 429 348 429 c 0,48,49
 354 429 354 429 355 425 c 0,50,51
 371 393 371 393 403 329.5 c 128,-1,52
 435 266 435 266 451 234 c 0,53,54
 451 230 451 230 453 230 c 2,55,-1
 447 230 l 2,18,19
256 378 m 128,-1,57
 215 378 215 378 187.5 357.5 c 128,-1,58
 160 337 160 337 160 307 c 0,59,60
 160 278 160 278 188 257.5 c 128,-1,61
 216 237 216 237 256 237 c 128,-1,62
 296 237 296 237 324 257.5 c 128,-1,63
 352 278 352 278 352 307 c 0,64,65
 352 337 352 337 324.5 357.5 c 128,-1,56
 297 378 297 378 256 378 c 128,-1,57
256 275 m 128,-1,67
 232 275 232 275 215 285 c 128,-1,68
 198 295 198 295 198 307 c 128,-1,69
 198 319 198 319 215 329 c 128,-1,70
 232 339 232 339 256 339 c 128,-1,71
 280 339 280 339 297 329 c 128,-1,72
 314 319 314 319 314 307 c 128,-1,73
 314 295 314 295 297 285 c 128,-1,66
 280 275 280 275 256 275 c 128,-1,67
EndSplineSet
EndChar

StartChar: uniE006
Encoding: 57350 57350 9
Width: 512
GlyphClass: 2
Flags: W
LayerCount: 2
Fore
SplineSet
352 384 m 1,0,-1
 352 256 l 1,1,-1
 192 256 l 1,2,-1
 192 320 l 1,3,-1
 96 224 l 1,4,-1
 192 128 l 1,5,-1
 192 192 l 1,6,-1
 416 192 l 1,7,-1
 416 384 l 1,8,-1
 352 384 l 1,0,-1
EndSplineSet
EndChar

StartChar: uniE007
Encoding: 57351 57351 10
Width: 512
GlyphClass: 2
Flags: W
LayerCount: 2
Fore
SplineSet
32 312 m 128,-1,1
 32 318 32 318 37 323 c 2,2,-1
 165 451 l 2,3,4
 170 456 170 456 176 456 c 0,5,6
 192 456 192 456 192 440 c 2,7,-1
 192 384 l 1,8,-1
 248 384 l 2,9,10
 425 384 425 384 467 279 c 0,11,12
 480 245 480 245 480 194 c 0,13,14
 480 153 480 153 448 80 c 0,15,16
 444 67 444 67 439 61 c 0,17,18
 436 56 436 56 432 56 c 0,19,20
 424 56 424 56 424 65 c 0,21,22
 424 67 424 67 424.5 71 c 128,-1,23
 425 75 425 75 425 77 c 0,24,25
 426 88 426 88 426 112 c 0,26,27
 426 196 426 196 381.5 226 c 128,-1,28
 337 256 337 256 248 256 c 2,29,-1
 192 256 l 1,30,-1
 192 184 l 2,31,32
 192 168 192 168 176 168 c 0,33,34
 170 168 170 168 165 173 c 2,35,-1
 37 301 l 2,36,0
 32 306 32 306 32 312 c 128,-1,1
EndSplineSet
EndChar

StartChar: uniE008
Encoding: 57352 57352 11
Width: 512
GlyphClass: 2
Flags: W
LayerCount: 2
Fore
SplineSet
96 192 m 1,0,-1
 176 192 l 1,1,-1
 256 288 l 1,2,-1
 336 192 l 1,3,-1
 416 192 l 1,4,-1
 256 384 l 1,5,-1
 96 192 l 1,0,-1
EndSplineSet
EndChar

StartChar: uniE009
Encoding: 57353 57353 12
Width: 512
GlyphClass: 2
Flags: W
LayerCount: 2
Fore
SplineSet
251 416 m 2,0,1
 298 416 298 416 318 408 c 0,2,3
 332 403 332 403 344 387 c 0,4,5
 362 366 362 366 362 336 c 0,6,7
 362 286 362 286 322 266 c 1,8,9
 376 249 376 249 376 190 c 0,10,11
 376 142 376 142 346 117 c 0,12,13
 324 96 324 96 271 96 c 2,14,-1
 136 96 l 1,15,-1
 136 416 l 1,16,-1
 251 416 l 2,0,1
194 289 m 1,17,-1
 256 289 l 2,18,19
 306 289 306 289 306 326 c 0,20,21
 306 355 306 355 284 360 c 0,22,23
 270 363 270 363 227 363 c 2,24,-1
 194 363 l 1,25,-1
 194 289 l 1,17,-1
194 150 m 1,26,-1
 263 150 l 2,27,28
 292 151 292 151 304 160.5 c 128,-1,29
 316 170 316 170 316 192 c 0,30,31
 316 216 316 216 301 226 c 0,32,33
 289 235 289 235 241 235 c 2,34,-1
 194 235 l 1,35,-1
 194 150 l 1,26,-1
EndSplineSet
EndChar

StartChar: uniE00A
Encoding: 57354 57354 13
Width: 512
GlyphClass: 2
Flags: W
LayerCount: 2
Fore
SplineSet
384 288 m 1,0,-1
 384 384 l 1,1,-1
 352 384 l 1,2,-1
 352 320 l 1,3,-1
 256 416 l 1,4,-1
 96 256 l 1,5,-1
 128 256 l 1,6,-1
 128 96 l 1,7,-1
 384 96 l 1,8,-1
 384 256 l 1,9,-1
 416 256 l 1,10,-1
 384 288 l 1,0,-1
288 160 m 1,11,-1
 224 160 l 1,12,-1
 224 224 l 1,13,-1
 288 224 l 1,14,-1
 288 160 l 1,11,-1
EndSplineSet
EndChar

StartChar: uniE00B
Encoding: 57355 57355 14
Width: 512
GlyphClass: 2
Flags: W
LayerCount: 2
Fore
SplineSet
491 469 m 1,0,-1
 469 491 l 1,1,-1
 256 279 l 1,2,-1
 43 491 l 1,3,-1
 21 469 l 1,4,-1
 233 256 l 1,5,-1
 21 43 l 1,6,-1
 43 21 l 1,7,-1
 256 233 l 1,8,-1
 469 21 l 1,9,-1
 491 43 l 1,10,-1
 279 256 l 1,11,-1
 491 469 l 1,0,-1
EndSplineSet
EndChar

StartChar: uniE00C
Encoding: 57356 57356 15
Width: 512
GlyphClass: 2
Flags: W
LayerCount: 2
Fore
SplineSet
417 461 m 2,0,-1
 95 461 l 2,1,2
 56 461 56 461 28 433 c 128,-1,3
 0 405 0 405 0 366 c 2,4,-1
 0 198 l 2,5,6
 0 158 0 158 28 130 c 128,-1,7
 56 102 56 102 95 102 c 2,8,-1
 128 102 l 1,9,-1
 128 11 l 2,10,11
 128 3 128 3 134 0 c 128,-1,12
 140 -3 140 -3 145 3 c 2,13,-1
 274 102 l 1,14,-1
 417 102 l 2,15,16
 456 102 456 102 484 130 c 128,-1,17
 512 158 512 158 512 198 c 2,18,-1
 512 366 l 2,19,20
 512 405 512 405 484 433 c 128,-1,21
 456 461 456 461 417 461 c 2,0,-1
461 183 m 2,22,23
 461 171 461 171 452 162.5 c 128,-1,24
 443 154 443 154 431 154 c 2,25,-1
 241 154 l 1,26,-1
 154 51 l 1,27,-1
 154 154 l 1,28,-1
 81 154 l 2,29,30
 69 154 69 154 60 162.5 c 128,-1,31
 51 171 51 171 51 183 c 2,32,-1
 51 380 l 2,33,34
 51 392 51 392 60 401 c 128,-1,35
 69 410 69 410 81 410 c 2,36,-1
 431 410 l 2,37,38
 443 410 443 410 452 401 c 128,-1,39
 461 392 461 392 461 380 c 2,40,-1
 461 183 l 2,22,23
230 307 m 1,41,-1
 282 307 l 1,42,-1
 282 256 l 1,43,-1
 230 256 l 1,44,-1
 230 307 l 1,41,-1
128 307 m 1,45,-1
 179 307 l 1,46,-1
 179 256 l 1,47,-1
 128 256 l 1,48,-1
 128 307 l 1,45,-1
333 307 m 1,49,-1
 384 307 l 1,50,-1
 384 256 l 1,51,-1
 333 256 l 1,52,-1
 333 307 l 1,49,-1
EndSplineSet
EndChar

StartChar: uniE00D
Encoding: 57357 57357 16
Width: 512
GlyphClass: 2
Flags: W
LayerCount: 2
Fore
SplineSet
463 494 m 2,0,-1
 324 494 l 2,1,2
 311 494 311 494 311 481 c 2,3,-1
 311 50 l 2,4,5
 311 37 311 37 324 37 c 2,6,-1
 463 37 l 2,7,8
 475 37 475 37 475 50 c 2,9,-1
 475 481 l 2,10,11
 475 494 475 494 463 494 c 2,0,-1
439 73 m 1,12,-1
 347 73 l 1,13,-1
 347 457 l 1,14,-1
 439 457 l 1,15,-1
 439 73 l 1,12,-1
164 481 m 2,16,17
 161 486 161 486 155.5 486 c 128,-1,18
 150 486 150 486 148 481 c 2,19,-1
 38 305 l 2,20,21
 35 301 35 301 38 297 c 128,-1,22
 41 293 41 293 46 293 c 2,23,-1
 266 293 l 2,24,25
 271 293 271 293 273.5 297 c 128,-1,26
 276 301 276 301 274 305 c 2,27,-1
 164 481 l 2,16,17
98 329 m 1,28,-1
 156 439 l 1,29,-1
 213 329 l 1,30,-1
 98 329 l 1,28,-1
156 256 m 0,31,32
 110 256 110 256 78 224 c 128,-1,33
 46 192 46 192 46 146 c 0,34,35
 46 101 46 101 78 69 c 128,-1,36
 110 37 110 37 156 37 c 0,37,38
 201 37 201 37 233 69 c 128,-1,39
 265 101 265 101 265 146 c 0,40,41
 265 192 265 192 233 224 c 128,-1,42
 201 256 201 256 156 256 c 0,31,32
156 73 m 0,43,44
 125 73 125 73 104 94.5 c 128,-1,45
 83 116 83 116 83 146 c 0,46,47
 83 177 83 177 104 198 c 128,-1,48
 125 219 125 219 156 219 c 0,49,50
 186 219 186 219 207.5 198 c 128,-1,51
 229 177 229 177 229 146 c 0,52,53
 229 116 229 116 207.5 94.5 c 128,-1,54
 186 73 186 73 156 73 c 0,43,44
EndSplineSet
EndChar

StartChar: uniE00E
Encoding: 57358 57358 17
Width: 512
GlyphClass: 2
Flags: W
LayerCount: 2
Fore
SplineSet
448 64 m 1,0,-1
 480 64 l 1,1,-1
 480 32 l 1,2,-1
 448 32 l 1,3,-1
 448 64 l 1,0,-1
448 128 m 1,4,-1
 480 128 l 1,5,-1
 480 96 l 1,6,-1
 448 96 l 1,7,-1
 448 128 l 1,4,-1
448 192 m 1,8,-1
 480 192 l 1,9,-1
 480 160 l 1,10,-1
 448 160 l 1,11,-1
 448 192 l 1,8,-1
448 256 m 1,12,-1
 480 256 l 1,13,-1
 480 224 l 1,14,-1
 448 224 l 1,15,-1
 448 256 l 1,12,-1
448 320 m 1,16,-1
 480 320 l 1,17,-1
 480 288 l 1,18,-1
 448 288 l 1,19,-1
 448 320 l 1,16,-1
384 64 m 1,20,-1
 416 64 l 1,21,-1
 416 32 l 1,22,-1
 384 32 l 1,23,-1
 384 64 l 1,20,-1
320 64 m 1,24,-1
 352 64 l 1,25,-1
 352 32 l 1,26,-1
 320 32 l 1,27,-1
 320 64 l 1,24,-1
448 384 m 1,28,-1
 480 384 l 1,29,-1
 480 352 l 1,30,-1
 448 352 l 1,31,-1
 448 384 l 1,28,-1
256 64 m 1,32,-1
 288 64 l 1,33,-1
 288 32 l 1,34,-1
 256 32 l 1,35,-1
 256 64 l 1,32,-1
192 64 m 1,36,-1
 224 64 l 1,37,-1
 224 32 l 1,38,-1
 192 32 l 1,39,-1
 192 64 l 1,36,-1
256 320 m 1,40,-1
 288 320 l 1,41,-1
 288 288 l 1,42,-1
 256 288 l 1,43,-1
 256 320 l 1,40,-1
320 384 m 1,44,-1
 320 352 l 1,45,-1
 288 352 l 1,46,-1
 288 320 l 1,47,-1
 320 320 l 1,48,-1
 320 256 l 1,49,-1
 256 256 l 1,50,-1
 256 288 l 1,51,-1
 224 288 l 1,52,-1
 224 256 l 1,53,-1
 192 256 l 1,54,-1
 192 160 l 1,55,-1
 64 160 l 1,56,-1
 64 320 l 1,57,-1
 168 320 l 2,58,59
 178 320 178 320 185 327 c 128,-1,60
 192 334 192 334 192 344 c 2,61,-1
 192 448 l 1,62,-1
 288 448 l 1,63,-1
 288 384 l 1,64,-1
 320 384 l 1,65,-1
 320 456 l 2,66,67
 320 466 320 466 313 473 c 128,-1,68
 306 480 306 480 296 480 c 2,69,-1
 192 480 l 2,70,71
 168 480 168 480 151 463 c 2,72,-1
 49 361 l 2,73,74
 32 344 32 344 32 320 c 2,75,-1
 32 152 l 2,76,77
 32 142 32 142 39 135 c 128,-1,78
 46 128 46 128 56 128 c 2,79,-1
 192 128 l 1,80,-1
 192 96 l 1,81,-1
 224 96 l 1,82,-1
 224 224 l 1,83,-1
 352 224 l 1,84,-1
 352 352 l 1,85,-1
 416 352 l 1,86,-1
 416 384 l 1,87,-1
 320 384 l 1,44,-1
160 427 m 1,88,-1
 160 352 l 1,89,-1
 85 352 l 1,90,-1
 160 427 l 1,88,-1
EndSplineSet
EndChar

StartChar: uniE00F
Encoding: 57359 57359 18
Width: 512
GlyphClass: 2
Flags: W
LayerCount: 2
Fore
SplineSet
309 64 m 1,0,-1
 310 64 l 1,1,-1
 309 64 l 1,0,-1
301 64 m 1,2,-1
 299 81 l 1,3,-1
 300 81 l 1,4,-1
 301 64 l 1,2,-1
204 65 m 1,5,-1
 205 65 l 1,6,-1
 204 65 l 1,5,-1
250 355 m 1,7,-1
 248 371 l 1,8,-1
 248 370 l 1,9,-1
 250 355 l 1,7,-1
368 80 m 1,10,-1
 387 84 l 1,11,-1
 357 217 l 1,12,-1
 346 221 l 1,13,-1
 335 204 l 1,14,-1
 329 236 l 1,15,-1
 306 245 l 1,16,-1
 297 321 l 1,17,-1
 308 333 l 1,18,-1
 268 357 l 1,19,-1
 260 425 l 1,20,-1
 253 425 l 1,21,-1
 250 369 l 1,22,-1
 248 371 l 1,23,-1
 211 320 l 1,24,-1
 220 313 l 1,25,-1
 212 241 l 1,26,-1
 212 274 l 1,27,-1
 208 275 l 1,28,-1
 203 266 l 1,29,-1
 197 227 l 1,30,-1
 176 231 l 1,31,-1
 163 175 l 1,32,-1
 168 230 l 1,33,-1
 162 223 l 1,34,-1
 158 204 l 1,35,-1
 153 200 l 1,36,-1
 125 91 l 1,37,-1
 124 90 l 1,38,-1
 140 75 l 1,39,-1
 141 75 l 1,40,-1
 141 75 l 1,41,-1
 185 83 l 1,42,-1
 180 71 l 1,43,-1
 199 63 l 1,44,-1
 210 68 l 1,45,-1
 204 62 l 1,46,-1
 236 49 l 1,47,-1
 299 61 l 1,48,-1
 300 81 l 1,49,-1
 303 64 l 1,50,-1
 310 63 l 1,51,-1
 310 64 l 1,52,-1
 344 70 l 1,53,-1
 343 77 l 1,54,-1
 344 77 l 1,55,-1
 354 74 l 1,56,-1
 368 77 l 1,57,-1
 368 81 l 1,58,-1
 368 80 l 1,10,-1
264 310 m 1,59,-1
 263 341 l 1,60,-1
 286 329 l 1,61,-1
 288 297 l 1,62,-1
 264 310 l 1,59,-1
264 304 m 1,63,-1
 289 293 l 1,64,-1
 292 258 l 1,65,-1
 265 269 l 1,66,-1
 264 304 l 1,63,-1
265 245 m 1,67,-1
 265 263 l 1,68,-1
 292 252 l 1,69,-1
 293 235 l 1,70,-1
 265 245 l 1,67,-1
283 390 m 1,71,-1
 281 392 l 1,72,-1
 281 396 l 1,73,-1
 285 402 l 2,74,75
 288 410 288 410 288 417 c 0,76,77
 287 431 287 431 276.5 441 c 128,-1,78
 266 451 266 451 252 450 c 0,79,80
 238 450 238 450 228 439.5 c 128,-1,81
 218 429 218 429 219 415 c 0,82,83
 219 407 219 407 222 401 c 0,84,85
 224 397 224 397 226 395 c 2,86,-1
 226 393 l 2,87,88
 227 391 227 391 227 389 c 2,89,-1
 224 386 l 1,90,-1
 223 385 l 1,91,-1
 221 385 l 2,92,93
 218 385 218 385 215 388 c 0,94,95
 214 389 214 389 212.5 391.5 c 128,-1,96
 211 394 211 394 210 395 c 0,97,98
 206 407 206 407 206 415 c 0,99,100
 205 434 205 434 218.5 448 c 128,-1,101
 232 462 232 462 252 463 c 128,-1,102
 272 464 272 464 286 450 c 128,-1,103
 300 436 300 436 300 417 c 0,104,105
 302 406 302 406 297 397 c 0,106,107
 294 392 294 392 290.5 390.5 c 128,-1,108
 287 389 287 389 285 390 c 2,109,-1
 283 390 l 1,71,-1
EndSplineSet
EndChar

StartChar: uniE010
Encoding: 57360 57360 19
Width: 512
GlyphClass: 2
Flags: W
LayerCount: 2
Fore
SplineSet
458 376 m 0,0,1
 458 432 458 432 417 472.5 c 128,-1,2
 376 513 376 513 320 513 c 0,3,4
 249 513 249 513 208 457 c 1,5,-1
 37 457 l 1,6,-1
 37 0 l 1,7,-1
 439 0 l 1,8,-1
 439 304 l 1,9,10
 458 326 458 326 458 376 c 0,0,1
319 477 m 128,-1,12
 361 477 361 477 391 447.5 c 128,-1,13
 421 418 421 418 421 376 c 128,-1,14
 421 334 421 334 391 304 c 128,-1,15
 361 274 361 274 319 274 c 128,-1,16
 277 274 277 274 247 304 c 128,-1,17
 217 334 217 334 217 376 c 128,-1,18
 217 418 217 418 247 447.5 c 128,-1,11
 277 477 277 477 319 477 c 128,-1,12
73 37 m 1,19,-1
 73 421 l 1,20,-1
 189 421 l 1,21,22
 181 397 181 397 181 376 c 0,23,24
 181 319 181 319 222 278.5 c 128,-1,25
 263 238 263 238 320 238 c 0,26,27
 373 238 373 238 402 264 c 1,28,-1
 402 37 l 1,29,-1
 73 37 l 1,19,-1
314 346 m 1,30,31
 319 341 319 341 325 341 c 0,32,33
 332 341 332 341 335 346 c 1,34,-1
 336 345 l 1,35,-1
 381 391 l 1,36,-1
 359 414 l 1,37,-1
 325 379 l 1,38,-1
 290 414 l 1,39,-1
 268 391 l 1,40,-1
 313 345 l 1,41,-1
 314 346 l 1,30,31
201 201 m 1,42,-1
 347 201 l 1,43,-1
 347 165 l 1,44,-1
 201 165 l 1,45,-1
 201 201 l 1,42,-1
201 128 m 1,46,-1
 347 128 l 1,47,-1
 347 91 l 1,48,-1
 201 91 l 1,49,-1
 201 128 l 1,46,-1
128 201 m 1,50,-1
 165 201 l 1,51,-1
 165 165 l 1,52,-1
 128 165 l 1,53,-1
 128 201 l 1,50,-1
128 274 m 1,54,-1
 165 274 l 1,55,-1
 165 238 l 1,56,-1
 128 238 l 1,57,-1
 128 274 l 1,54,-1
128 128 m 1,58,-1
 165 128 l 1,59,-1
 165 91 l 1,60,-1
 128 91 l 1,61,-1
 128 128 l 1,58,-1
EndSplineSet
EndChar

StartChar: uniE011
Encoding: 57361 57361 20
Width: 512
GlyphClass: 2
Flags: W
LayerCount: 2
Fore
SplineSet
102 333 m 1,0,-1
 102 122 l 2,1,2
 102 93 102 93 123 72 c 128,-1,3
 144 51 144 51 173 51 c 2,4,-1
 342 51 l 2,5,6
 359 51 359 51 371.5 63.5 c 128,-1,7
 384 76 384 76 384 93 c 2,8,-1
 384 333 l 1,9,-1
 102 333 l 1,0,-1
179 128 m 1,10,-1
 154 128 l 1,11,-1
 154 256 l 1,12,-1
 179 256 l 1,13,-1
 179 128 l 1,10,-1
256 128 m 1,14,-1
 230 128 l 1,15,-1
 230 256 l 1,16,-1
 256 256 l 1,17,-1
 256 128 l 1,14,-1
333 128 m 1,18,-1
 307 128 l 1,19,-1
 307 256 l 1,20,-1
 333 256 l 1,21,-1
 333 128 l 1,18,-1
408 358 m 1,22,23
 406 388 406 388 391 411.5 c 128,-1,24
 376 435 376 435 348 435 c 2,25,-1
 279 435 l 2,26,27
 278 436 278 436 279 442 c 128,-1,28
 280 448 280 448 274.5 454.5 c 128,-1,29
 269 461 269 461 257 461 c 2,30,-1
 223 461 l 2,31,32
 211 461 211 461 206.5 454.5 c 128,-1,33
 202 448 202 448 204 442 c 2,34,-1
 206 435 l 1,35,-1
 154 435 l 2,36,37
 124 435 124 435 102.5 410.5 c 128,-1,38
 81 386 81 386 77 358 c 1,39,-1
 408 358 l 1,22,23
EndSplineSet
EndChar

StartChar: uniE012
Encoding: 57362 57362 21
Width: 512
GlyphClass: 2
Flags: W
LayerCount: 2
Fore
SplineSet
271 323 m 0,0,1
 275 324 275 324 282 324 c 128,-1,2
 289 324 289 324 292 325 c 0,3,4
 296 325 296 325 297 322 c 0,5,6
 303 306 303 306 307 299 c 0,7,8
 307 295 307 295 305 293 c 0,9,10
 283 273 283 273 273 265 c 0,11,12
 271 261 271 261 271 260 c 0,13,14
 272 253 272 253 272 238 c 0,15,16
 270 235 270 235 274 233 c 0,17,18
 279 228 279 228 289.5 218.5 c 128,-1,19
 300 209 300 209 305 204 c 0,20,21
 309 202 309 202 307 199 c 0,22,23
 303 191 303 191 297 175 c 0,24,25
 296 173 296 173 293 173 c 0,26,27
 263 175 263 175 249 175 c 0,28,29
 246 175 246 175 245 174 c 0,30,31
 242 171 242 171 237 165.5 c 128,-1,32
 232 160 232 160 229 157 c 0,33,34
 227 155 227 155 227 153 c 0,35,36
 229 123 229 123 229 109 c 0,37,38
 229 106 229 106 227 106 c 0,39,40
 219 102 219 102 203 96 c 0,41,42
 200 95 200 95 198 97 c 0,43,44
 178 119 178 119 170 129 c 0,45,46
 168 131 168 131 164 131 c 0,47,48
 154 130 154 130 143 131 c 0,49,50
 140 131 140 131 137 128 c 128,-1,51
 134 125 134 125 128.5 118.5 c 128,-1,52
 123 112 123 112 118 107 c 128,-1,53
 113 102 113 102 109 97 c 0,54,55
 108 94 108 94 104 96 c 0,56,57
 88 102 88 102 80 106 c 0,58,59
 78 107 78 107 78 110 c 0,60,61
 79 117 79 117 79.5 132 c 128,-1,62
 80 147 80 147 80 154 c 2,63,-1
 80 155 l 2,64,65
 79 156 79 156 79 157 c 2,66,-1
 62 174 l 2,67,68
 61 175 61 175 58 175 c 0,69,70
 44 175 44 175 14 173 c 0,71,72
 11 173 11 173 11 175 c 0,73,74
 9 179 9 179 5.5 187.5 c 128,-1,75
 2 196 2 196 0 200 c 0,76,77
 0 203 0 203 2 204 c 0,78,79
 12 213 12 213 34 233 c 0,80,81
 36 235 36 235 36 238 c 0,82,83
 35 248 35 248 36 260 c 0,84,85
 36 261 36 261 34 265 c 0,86,87
 18 278 18 278 2 294 c 0,88,89
 0 295 0 295 0 298 c 0,90,91
 4 306 4 306 10 322 c 0,92,93
 12 325 12 325 15 325 c 0,94,95
 22 324 22 324 36.5 323 c 128,-1,96
 51 322 51 322 58 322 c 0,97,98
 60 322 60 322 62 324 c 2,99,-1
 79 341 l 2,100,101
 80 343 80 343 80 344 c 0,102,103
 80 352 80 352 79 366.5 c 128,-1,104
 78 381 78 381 78 388 c 0,105,106
 78 390 78 390 80 392 c 0,107,108
 96 398 96 398 104 402 c 0,109,110
 106 403 106 403 109 401 c 0,111,112
 114 396 114 396 123.5 385.5 c 128,-1,113
 133 375 133 375 137 369 c 0,114,115
 139 367 139 367 143 367 c 2,116,-1
 164 367 l 2,117,118
 168 367 168 367 170 369 c 0,119,120
 190 391 190 391 198 401 c 0,121,122
 202 403 202 403 203 402 c 0,123,124
 211 398 211 398 227 392 c 0,125,126
 229 390 229 390 229 388 c 0,127,128
 229 374 229 374 227 344 c 0,129,130
 227 342 227 342 229 340 c 2,131,-1
 245 324 l 2,132,133
 247 322 247 322 249 322 c 0,134,135
 257 323 257 323 271 323 c 0,0,1
154 332 m 128,-1,137
 120 332 120 332 95 307.5 c 128,-1,138
 70 283 70 283 70 249 c 128,-1,139
 70 215 70 215 94 190.5 c 128,-1,140
 118 166 118 166 153 165 c 0,141,142
 188 165 188 165 212.5 189.5 c 128,-1,143
 237 214 237 214 237 249 c 0,144,145
 237 283 237 283 212.5 307.5 c 128,-1,136
 188 332 188 332 154 332 c 128,-1,137
154 287 m 0,146,147
 170 287 170 287 181 276 c 128,-1,148
 192 265 192 265 192 249 c 0,149,150
 192 232 192 232 181 221 c 128,-1,151
 170 210 170 210 153 210 c 0,152,153
 137 210 137 210 126 221.5 c 128,-1,154
 115 233 115 233 115 249 c 128,-1,155
 115 265 115 265 126.5 276.5 c 128,-1,156
 138 288 138 288 154 287 c 0,146,147
489 242 m 2,157,-1
 503 242 l 2,158,159
 505 244 505 244 505 241 c 0,160,161
 506 238 506 238 508.5 233 c 128,-1,162
 511 228 511 228 512 226 c 0,163,164
 512 224 512 224 511 223 c 0,165,166
 497 211 497 211 491 204 c 0,167,168
 489 204 489 204 489 201 c 0,169,170
 491 195 491 195 489 187 c 0,171,172
 489 186 489 186 491 184 c 0,173,174
 497 178 497 178 511 166 c 0,175,176
 512 165 512 165 512 163 c 0,177,178
 511 160 511 160 508.5 155 c 128,-1,179
 506 150 506 150 505 148 c 0,180,181
 505 146 505 146 503 146 c 0,182,183
 498 146 498 146 488.5 147 c 128,-1,184
 479 148 479 148 475 148 c 2,185,-1
 473 147 l 1,186,-1
 462 136 l 1,187,-1
 462 135 l 2,188,189
 461 134 461 134 461 133 c 0,190,191
 462 128 462 128 462 119 c 128,-1,192
 462 110 462 110 463 106 c 0,193,194
 463 104 463 104 461 104 c 0,195,196
 456 101 456 101 446 97 c 0,197,198
 445 96 445 96 443 98 c 0,199,200
 437 104 437 104 425 118 c 0,201,202
 424 119 424 119 421 119 c 2,203,-1
 408 119 l 2,204,205
 405 119 405 119 404 118 c 0,206,207
 401 115 401 115 395 108 c 128,-1,208
 389 101 389 101 386 98 c 0,209,210
 384 96 384 96 383 97 c 2,211,-1
 368 103 l 2,212,213
 366 105 366 105 366 106 c 0,214,215
 366 110 366 110 367 119.5 c 128,-1,216
 368 129 368 129 368 134 c 2,217,-1
 368 135 l 1,218,-1
 367 136 l 1,219,-1
 356 147 l 2,220,221
 355 148 355 148 354 148 c 0,222,223
 349 148 349 148 340 147.5 c 128,-1,224
 331 147 331 147 326 146 c 2,225,-1
 324 147 l 2,226,227
 323 150 323 150 320.5 155.5 c 128,-1,228
 318 161 318 161 317 163 c 0,229,230
 317 165 317 165 318 166 c 0,231,232
 321 169 321 169 327.5 175 c 128,-1,233
 334 181 334 181 338 184 c 0,234,235
 340 186 340 186 340 187 c 0,236,237
 338 195 338 195 340 201 c 0,238,239
 340 202 340 202 338 204 c 0,240,241
 325 217 325 217 318 223 c 0,242,243
 317 224 317 224 317 226 c 0,244,245
 318 229 318 229 320.5 234 c 128,-1,246
 323 239 323 239 324 241 c 0,247,248
 324 244 324 244 326 242 c 0,249,250
 331 242 331 242 340.5 241.5 c 128,-1,251
 350 241 350 241 354 241 c 0,252,253
 356 241 356 241 356 242 c 2,254,-1
 367 253 l 2,255,256
 368 254 368 254 368 255 c 0,257,258
 367 260 367 260 366.5 269 c 128,-1,259
 366 278 366 278 366 283 c 0,260,261
 366 285 366 285 368 285 c 0,262,263
 378 289 378 289 383 292 c 0,264,265
 385 292 385 292 386 291 c 0,266,267
 389 287 389 287 395 281 c 128,-1,268
 401 275 401 275 404 271 c 0,269,270
 406 269 406 269 408 269 c 2,271,-1
 421 269 l 2,272,273
 424 269 424 269 425 271 c 0,274,275
 431 277 431 277 443 291 c 0,276,277
 444 292 444 292 446 292 c 0,278,279
 451 289 451 289 461 285 c 0,280,281
 463 285 463 285 463 283 c 0,282,283
 462 279 462 279 462 269.5 c 128,-1,284
 462 260 462 260 461 255 c 2,285,-1
 462 253 l 1,286,-1
 473 242 l 1,287,-1
 475 241 l 1,288,289
 485 241 485 241 489 242 c 2,157,-1
414 247 m 128,-1,291
 392 247 392 247 376.5 231.5 c 128,-1,292
 361 216 361 216 362 194 c 0,293,294
 362 172 362 172 377 157 c 128,-1,295
 392 142 392 142 414 141 c 0,296,297
 436 141 436 141 451.5 156.5 c 128,-1,298
 467 172 467 172 467 194 c 0,299,300
 468 216 468 216 452 231.5 c 128,-1,290
 436 247 436 247 414 247 c 128,-1,291
415 219 m 0,301,302
 425 219 425 219 432 211.5 c 128,-1,303
 439 204 439 204 439 194 c 128,-1,304
 439 184 439 184 431.5 177 c 128,-1,305
 424 170 424 170 414 170 c 128,-1,306
 404 170 404 170 397 177 c 128,-1,307
 390 184 390 184 390 194 c 128,-1,308
 390 204 390 204 397 211.5 c 128,-1,309
 404 219 404 219 415 219 c 0,301,302
EndSplineSet
EndChar

StartChar: uniE013
Encoding: 57363 57363 22
Width: 512
GlyphClass: 2
Flags: W
LayerCount: 2
Fore
SplineSet
439 366 m 1,0,-1
 369 503 l 1,1,-1
 0 334 l 1,2,-1
 73 156 l 1,3,-1
 73 37 l 1,4,-1
 512 37 l 1,5,-1
 512 366 l 1,6,-1
 439 366 l 1,0,-1
398 366 m 1,7,-1
 362 366 l 1,8,-1
 339 428 l 1,9,-1
 196 366 l 1,10,-1
 139 366 l 1,11,-1
 356 462 l 1,12,-1
 398 366 l 1,7,-1
73 277 m 1,13,-1
 73 223 l 1,14,-1
 38 319 l 1,15,-1
 73 335 l 1,16,-1
 73 277 l 1,13,-1
475 73 m 1,17,-1
 110 73 l 1,18,-1
 110 329 l 1,19,-1
 475 329 l 1,20,-1
 475 73 l 1,17,-1
217 260 m 128,-1,22
 217 246 217 246 207 236 c 128,-1,23
 197 226 197 226 183 226 c 128,-1,24
 169 226 169 226 159 236 c 128,-1,25
 149 246 149 246 149 260 c 128,-1,26
 149 274 149 274 159 284 c 128,-1,27
 169 294 169 294 183 294 c 128,-1,28
 197 294 197 294 207 284 c 128,-1,21
 217 274 217 274 217 260 c 128,-1,22
329 236 m 2,29,30
 328 238 328 238 326.5 238 c 128,-1,31
 325 238 325 238 324 236 c 2,32,-1
 251 145 l 2,33,34
 249 141 249 141 245 145 c 2,35,-1
 208 179 l 2,36,37
 203 184 203 184 201 180 c 2,38,-1
 141 110 l 1,39,-1
 434 110 l 1,40,-1
 329 236 l 2,29,30
EndSplineSet
EndChar

StartChar: uniE014
Encoding: 57364 57364 23
Width: 512
GlyphClass: 2
Flags: W
LayerCount: 2
Fore
SplineSet
383 383 m 0,0,1
 370 383 370 383 356.5 380.5 c 128,-1,2
 343 378 343 378 335 375 c 128,-1,3
 327 372 327 372 326 371 c 1,4,5
 303 414 303 414 262.5 439 c 128,-1,6
 222 464 222 464 173 464 c 0,7,8
 102 464 102 464 51 413 c 128,-1,9
 0 362 0 362 0 291 c 0,10,11
 0 241 0 241 26.5 199 c 128,-1,12
 53 157 53 157 98 135 c 0,13,14
 104 133 104 133 107 133 c 0,15,16
 120 133 120 133 127 145 c 0,17,18
 131 153 131 153 128 161.5 c 128,-1,19
 125 170 125 170 117 174 c 0,20,21
 83 190 83 190 63 222 c 128,-1,22
 43 254 43 254 43 291 c 0,23,24
 43 345 43 345 81 383 c 128,-1,25
 119 421 119 421 173 421 c 0,26,27
 213 421 213 421 245.5 399 c 128,-1,28
 278 377 278 377 293 340 c 0,29,30
 302 321 302 321 321 328 c 0,31,32
 351 340 351 340 383 340 c 0,33,34
 419 340 419 340 444.5 314 c 128,-1,35
 470 288 470 288 470 251 c 0,36,37
 470 222 470 222 453.5 198.5 c 128,-1,38
 437 175 437 175 410 166 c 0,39,40
 391 159 391 159 397 139 c 0,41,42
 402 124 402 124 417 124 c 0,43,44
 421 124 421 124 423 125 c 0,45,46
 463 139 463 139 487.5 173.5 c 128,-1,47
 512 208 512 208 512 251 c 0,48,49
 512 306 512 306 474 344.5 c 128,-1,50
 436 383 436 383 383 383 c 0,0,1
288 288 m 1,51,-1
 224 288 l 1,52,-1
 224 160 l 1,53,-1
 160 160 l 1,54,-1
 256 32 l 1,55,-1
 352 160 l 1,56,-1
 288 160 l 1,57,-1
 288 288 l 1,51,-1
EndSplineSet
EndChar

StartChar: uniE015
Encoding: 57365 57365 24
Width: 512
GlyphClass: 2
Flags: W
LayerCount: 2
Fore
SplineSet
205 93 m 1,0,-1
 165 121 l 2,1,2
 140 139 140 139 135.5 169 c 128,-1,3
 131 199 131 199 149 224 c 2,4,-1
 292 422 l 1,5,6
 261 433 261 433 230 433 c 0,7,8
 156 433 156 433 103.5 380.5 c 128,-1,9
 51 328 51 328 51 254 c 0,10,11
 51 187 51 187 95 136.5 c 128,-1,12
 139 86 139 86 205 77 c 0,13,14
 215 77 215 77 224 79 c 2,15,-1
 327 101 l 1,16,-1
 205 203 l 1,17,-1
 205 93 l 1,0,-1
455 421 m 0,18,19
 437 434 437 434 416 437 c 128,-1,20
 395 440 395 440 383 437 c 2,21,-1
 371 434 l 1,22,-1
 237 246 l 1,23,-1
 355 149 l 1,24,-1
 495 346 l 1,25,26
 497 391 497 391 455 421 c 0,18,19
312 227 m 1,27,-1
 281 252 l 1,28,-1
 390 399 l 1,29,30
 404 393 404 393 423 378 c 1,31,-1
 312 227 l 1,27,-1
EndSplineSet
EndChar

StartChar: uniE016
Encoding: 57366 57366 25
Width: 512
GlyphClass: 2
Flags: W
LayerCount: 2
Fore
SplineSet
480 360 m 2,0,-1
 480 56 l 2,1,2
 480 46 480 46 473 39 c 128,-1,3
 466 32 466 32 456 32 c 2,4,-1
 216 32 l 2,5,6
 206 32 206 32 199 39 c 128,-1,7
 192 46 192 46 192 56 c 2,8,-1
 192 128 l 1,9,-1
 56 128 l 2,10,11
 46 128 46 128 39 135 c 128,-1,12
 32 142 32 142 32 152 c 2,13,-1
 32 320 l 2,14,15
 32 344 32 344 49 361 c 2,16,-1
 151 463 l 2,17,18
 168 480 168 480 192 480 c 2,19,-1
 296 480 l 2,20,21
 306 480 306 480 313 473 c 128,-1,22
 320 466 320 466 320 456 c 2,23,-1
 320 374 l 1,24,25
 337 384 337 384 352 384 c 2,26,-1
 456 384 l 2,27,28
 466 384 466 384 473 377 c 128,-1,29
 480 370 480 370 480 360 c 2,0,-1
288 344 m 1,30,-1
 288 448 l 1,31,-1
 192 448 l 1,32,-1
 192 344 l 2,33,34
 192 334 192 334 185 327 c 128,-1,35
 178 320 178 320 168 320 c 2,36,-1
 64 320 l 1,37,-1
 64 160 l 1,38,-1
 192 160 l 1,39,-1
 192 224 l 2,40,41
 192 248 192 248 209 265 c 2,42,-1
 288 344 l 1,30,-1
85 352 m 1,43,-1
 160 352 l 1,44,-1
 160 427 l 1,45,-1
 85 352 l 1,43,-1
448 352 m 1,46,-1
 352 352 l 1,47,-1
 352 248 l 2,48,49
 352 238 352 238 345 231 c 128,-1,50
 338 224 338 224 328 224 c 2,51,-1
 224 224 l 1,52,-1
 224 64 l 1,53,-1
 448 64 l 1,54,-1
 448 352 l 1,46,-1
245 256 m 1,55,-1
 320 256 l 1,56,-1
 320 331 l 1,57,-1
 245 256 l 1,55,-1
EndSplineSet
EndChar

StartChar: uniE017
Encoding: 57367 57367 26
Width: 512
GlyphClass: 2
Flags: W
LayerCount: 2
Fore
SplineSet
310 238 m 1,0,1
 308 238 308 238 307 239 c 1,2,3
 307 237 307 237 310 238 c 1,0,1
261 438 m 1,4,-1
 254 438 l 2,5,6
 256 436 256 436 258 436 c 2,7,-1
 261 438 l 1,4,-1
196 426 m 2,8,9
 211 421 211 421 212 420 c 128,-1,10
 213 419 213 419 212 415 c 128,-1,11
 211 411 211 411 215 410 c 0,12,13
 219 408 219 408 222 411 c 2,14,-1
 220 417 l 2,15,16
 219 422 219 422 222 422 c 0,17,18
 223 422 223 422 224 423 c 0,19,20
 229 427 229 427 227 436 c 1,21,22
 210 435 210 435 192 428 c 1,23,24
 196 426 196 426 196 426 c 2,8,9
239 99 m 2,25,26
 240 101 240 101 240 103 c 0,27,28
 241 106 241 106 240 111 c 128,-1,29
 239 116 239 116 244 133 c 0,30,31
 245 138 245 138 246 149 c 128,-1,32
 247 160 247 160 248 165 c 0,33,34
 251 176 251 176 249 184 c 0,35,36
 248 187 248 187 241.5 191.5 c 128,-1,37
 235 196 235 196 234 197 c 0,38,39
 230 201 230 201 222 213 c 0,40,41
 220 217 220 217 216 223 c 0,42,43
 213 226 213 226 215 227.5 c 128,-1,44
 217 229 217 229 217 230 c 0,45,46
 217 240 217 240 218 242 c 128,-1,47
 219 244 219 244 222 248 c 128,-1,48
 225 252 225 252 226 255 c 0,49,50
 228 265 228 265 221 266 c 0,51,52
 220 267 220 267 217.5 266 c 128,-1,53
 215 265 215 265 214 265 c 0,54,55
 212 265 212 265 204 271 c 0,56,57
 202 272 202 272 199.5 276 c 128,-1,58
 197 280 197 280 195 281 c 128,-1,59
 193 282 193 282 189.5 282.5 c 128,-1,60
 186 283 186 283 185 283 c 0,61,62
 183 284 183 284 180 287 c 128,-1,63
 177 290 177 290 176 290 c 0,64,65
 175 291 175 291 170.5 290.5 c 128,-1,66
 166 290 166 290 164 290 c 2,67,-1
 150 297 l 2,68,69
 140 301 140 301 134 312 c 0,70,71
 132 318 132 318 123 327 c 0,72,73
 116 338 116 338 110 339 c 0,74,75
 109 339 109 339 112 333 c 0,76,77
 113 331 113 331 116.5 326 c 128,-1,78
 120 321 120 321 122 319 c 0,79,80
 125 314 125 314 124 314 c 2,81,-1
 120 318 l 2,82,83
 108 332 108 332 104 340 c 0,84,85
 103 341 103 341 102 343 c 128,-1,86
 101 345 101 345 100 346 c 1,87,88
 81 310 81 310 81 268 c 0,89,90
 81 201 81 201 127 151.5 c 128,-1,91
 173 102 173 102 239 97 c 1,92,-1
 239 99 l 2,25,26
326 422 m 1,93,94
 320 409 320 409 312 411 c 0,95,96
 304 412 304 412 297 426 c 0,97,98
 292 431 292 431 291 434 c 2,99,-1
 273 437 l 2,100,101
 273 435 273 435 274 435 c 0,102,103
 276 428 276 428 283 423 c 0,104,105
 292 414 292 414 292 412 c 0,106,107
 292 409 292 409 279 405 c 0,108,109
 274 403 274 403 268 404 c 128,-1,110
 262 405 262 405 256.5 403 c 128,-1,111
 251 401 251 401 250 394 c 1,112,113
 264 404 264 404 267 400 c 0,114,115
 268 399 268 399 267.5 397 c 128,-1,116
 267 395 267 395 267 394 c 0,117,118
 268 389 268 389 277 391 c 2,119,-1
 276 391 l 2,120,121
 282 394 282 394 285 398 c 0,122,123
 285 399 285 399 286 401.5 c 128,-1,124
 287 404 287 404 288 405 c 0,125,126
 291 408 291 408 296 403 c 0,127,128
 298 401 298 401 300.5 397 c 128,-1,129
 303 393 303 393 301 393 c 0,130,131
 289 396 289 396 279 390 c 0,132,133
 278 389 278 389 274 386.5 c 128,-1,134
 270 384 270 384 267 383 c 2,135,-1
 259 382 l 1,136,-1
 259 383 l 2,137,138
 260 384 260 384 263 385.5 c 128,-1,139
 266 387 266 387 267 388 c 1,140,141
 262 390 262 390 253 383 c 0,142,143
 251 382 251 382 248.5 378.5 c 128,-1,144
 246 375 246 375 244 374 c 0,145,146
 244 373 244 373 241 372 c 128,-1,147
 238 371 238 371 238 370 c 0,148,149
 237 369 237 369 236 366 c 2,150,-1
 235 363 l 1,151,-1
 233 362 l 2,152,153
 231 362 231 362 230 361 c 0,154,155
 228 360 228 360 230 357 c 2,156,-1
 231 354 l 2,157,158
 230 352 230 352 226 349.5 c 128,-1,159
 222 347 222 347 221 346 c 2,160,-1
 222 347 l 2,161,162
 221 346 221 346 218.5 344 c 128,-1,163
 216 342 216 342 215 340 c 0,164,165
 218 327 218 327 217 324 c 0,166,167
 215 319 215 319 208 331 c 0,168,169
 205 336 205 336 200.5 336.5 c 128,-1,170
 196 337 196 337 188 335 c 128,-1,171
 180 333 180 333 179 333 c 0,172,173
 170 332 170 332 164 323 c 128,-1,174
 158 314 158 314 163 305 c 0,175,176
 169 296 169 296 179 298 c 0,177,178
 182 298 182 298 186 303 c 128,-1,179
 190 308 190 308 193 308 c 0,180,181
 197 307 197 307 197.5 305.5 c 128,-1,182
 198 304 198 304 195 299.5 c 128,-1,183
 192 295 192 295 192 294 c 0,184,185
 191 290 191 290 197 289 c 0,186,187
 198 289 198 289 201 289.5 c 128,-1,188
 204 290 204 290 206 289 c 2,189,-1
 207 287 l 2,190,191
 207 285 207 285 207.5 284.5 c 128,-1,192
 208 284 208 284 209 284 c 1,193,194
 206 282 206 282 206.5 277 c 128,-1,195
 207 272 207 272 210 270 c 0,196,197
 211 268 211 268 217 268.5 c 128,-1,198
 223 269 223 269 224 269 c 0,199,200
 229 269 229 269 229.5 268.5 c 128,-1,201
 230 268 230 268 232 270.5 c 128,-1,202
 234 273 234 273 237 274 c 0,203,204
 238 277 238 277 242 276 c 2,205,-1
 246 274 l 2,206,207
 247 274 247 274 249.5 275.5 c 128,-1,208
 252 277 252 277 255 276 c 0,209,210
 256 276 256 276 258.5 274.5 c 128,-1,211
 261 273 261 273 263 272 c 0,212,213
 264 272 264 272 265.5 272.5 c 128,-1,214
 267 273 267 273 268 273 c 0,215,216
 273 272 273 272 287 263 c 0,217,218
 289 261 289 261 300 259 c 0,219,220
 312 253 312 253 311 246 c 2,221,-1
 310 244 l 2,222,223
 309 243 309 243 308 241.5 c 128,-1,224
 307 240 307 240 307 239 c 1,225,226
 308 239 308 239 309.5 239 c 128,-1,227
 311 239 311 239 314 239.5 c 128,-1,228
 317 240 317 240 318 240 c 1,229,230
 317 239 317 239 314.5 237.5 c 128,-1,231
 312 236 312 236 312 237 c 1,232,233
 312 234 312 234 316 234 c 0,234,235
 317 237 317 237 318.5 238 c 128,-1,236
 320 239 320 239 321 238.5 c 128,-1,237
 322 238 322 238 324.5 236.5 c 128,-1,238
 327 235 327 235 328 235 c 0,239,240
 330 234 330 234 335.5 233 c 128,-1,241
 341 232 341 232 342 232 c 0,242,243
 354 229 354 229 358 225 c 0,244,245
 362 219 362 219 356 211 c 0,246,247
 355 209 355 209 351 205 c 128,-1,248
 347 201 347 201 346 198 c 0,249,250
 345 196 345 196 344.5 191 c 128,-1,251
 344 186 344 186 344 184 c 0,252,253
 344 181 344 181 338 175 c 2,254,-1
 332 169 l 1,255,256
 321 164 321 164 319 162 c 2,257,-1
 319 163 l 2,258,259
 318 162 318 162 317 159 c 128,-1,260
 316 156 316 156 316 155 c 0,261,262
 312 149 312 149 309 146 c 2,263,-1
 306 142 l 2,264,265
 303 138 303 138 300 135 c 2,266,-1
 297 132 l 2,267,268
 296 133 296 133 292 132.5 c 128,-1,269
 288 132 288 132 288 133 c 1,270,271
 288 132 288 132 290 131 c 0,272,273
 288 118 288 118 272 118 c 1,274,275
 273 114 273 114 270 112 c 2,276,-1
 266 110 l 2,277,278
 265 109 265 109 264 106 c 128,-1,279
 263 103 263 103 263 102 c 128,-1,280
 263 101 263 101 262 100 c 0,281,282
 260 98 260 98 260 97 c 1,283,284
 328 100 328 100 375.5 149.5 c 128,-1,285
 423 199 423 199 423 268 c 0,286,287
 423 318 423 318 396.5 359.5 c 128,-1,288
 370 401 370 401 326 422 c 1,93,94
215 340 m 1,289,-1
 215 341 l 1,290,-1
 215 340 l 1,289,-1
307 239 m 1024,291,-1
EndSplineSet
EndChar

StartChar: uniE018
Encoding: 57368 57368 27
Width: 512
GlyphClass: 2
Flags: W
LayerCount: 2
Fore
SplineSet
143 111 m 1,0,-1
 -2 256 l 1,1,-1
 143 401 l 1,2,-1
 177 367 l 1,3,-1
 66 256 l 1,4,-1
 177 145 l 1,5,-1
 143 111 l 1,0,-1
192 288 m 1,6,-1
 320 288 l 1,7,-1
 320 224 l 1,8,-1
 192 224 l 1,9,-1
 192 288 l 1,6,-1
369 111 m 1,10,-1
 335 145 l 1,11,-1
 446 256 l 1,12,-1
 335 367 l 1,13,-1
 369 401 l 1,14,-1
 514 256 l 1,15,-1
 369 111 l 1,10,-1
EndSplineSet
EndChar

StartChar: uniE019
Encoding: 57369 57369 28
Width: 512
GlyphClass: 2
Flags: W
LayerCount: 2
Fore
SplineSet
64 288 m 1,0,-1
 224 288 l 1,1,-1
 224 448 l 1,2,-1
 64 448 l 1,3,-1
 64 288 l 1,0,-1
96 416 m 1,4,-1
 192 416 l 1,5,-1
 192 320 l 1,6,-1
 96 320 l 1,7,-1
 96 416 l 1,4,-1
288 448 m 1,8,-1
 288 288 l 1,9,-1
 448 288 l 1,10,-1
 448 448 l 1,11,-1
 288 448 l 1,8,-1
416 320 m 1,12,-1
 320 320 l 1,13,-1
 320 416 l 1,14,-1
 416 416 l 1,15,-1
 416 320 l 1,12,-1
64 64 m 1,16,-1
 224 64 l 1,17,-1
 224 224 l 1,18,-1
 64 224 l 1,19,-1
 64 64 l 1,16,-1
96 192 m 1,20,-1
 192 192 l 1,21,-1
 192 96 l 1,22,-1
 96 96 l 1,23,-1
 96 192 l 1,20,-1
288 64 m 1,24,-1
 448 64 l 1,25,-1
 448 224 l 1,26,-1
 288 224 l 1,27,-1
 288 64 l 1,24,-1
320 192 m 1,28,-1
 416 192 l 1,29,-1
 416 96 l 1,30,-1
 320 96 l 1,31,-1
 320 192 l 1,28,-1
EndSplineSet
EndChar

StartChar: uniE01A
Encoding: 57370 57370 29
Width: 512
GlyphClass: 2
Flags: W
LayerCount: 2
Fore
SplineSet
384 320 m 1,0,-1
 320 320 l 1,1,-1
 320 480 l 1,2,-1
 192 480 l 1,3,-1
 192 320 l 1,4,-1
 128 320 l 1,5,-1
 256 160 l 1,6,-1
 384 320 l 1,0,-1
384 192 m 1,7,-1
 384 96 l 1,8,-1
 128 96 l 1,9,-1
 128 192 l 1,10,-1
 64 192 l 1,11,-1
 64 32 l 1,12,-1
 448 32 l 1,13,-1
 448 192 l 1,14,-1
 384 192 l 1,7,-1
EndSplineSet
EndChar

StartChar: uniE01B
Encoding: 57371 57371 30
Width: 512
GlyphClass: 2
Flags: W
LayerCount: 2
Fore
SplineSet
96 224 m 1,0,-1
 96 320 l 1,1,-1
 224 448 l 1,2,-1
 360 448 l 2,3,4
 370 448 370 448 377 441 c 128,-1,5
 384 434 384 434 384 424 c 2,6,-1
 384 120 l 2,7,8
 384 110 384 110 377 103 c 128,-1,9
 370 96 370 96 360 96 c 2,10,-1
 120 96 l 2,11,12
 110 96 110 96 103 103 c 128,-1,13
 96 110 96 110 96 120 c 2,14,-1
 96 224 l 1,0,-1
352 416 m 1,15,-1
 256 416 l 1,16,-1
 256 312 l 2,17,18
 256 302 256 302 249 295 c 128,-1,19
 242 288 242 288 232 288 c 2,20,-1
 128 288 l 1,21,-1
 128 128 l 1,22,-1
 352 128 l 1,23,-1
 352 416 l 1,15,-1
140 320 m 1,24,-1
 224 320 l 1,25,-1
 224 404 l 1,26,-1
 140 320 l 1,24,-1
EndSplineSet
EndChar

StartChar: uniE01C
Encoding: 57372 57372 31
Width: 512
GlyphClass: 2
Flags: W
LayerCount: 2
Fore
SplineSet
128 416 m 1,0,-1
 192 416 l 1,1,-1
 192 96 l 1,2,-1
 128 96 l 1,3,-1
 128 416 l 1,0,-1
353 416 m 1,4,-1
 402 367 l 1,5,-1
 291 255 l 1,6,-1
 402 143 l 1,7,-1
 353 94 l 1,8,-1
 192 255 l 1,9,-1
 353 416 l 1,4,-1
EndSplineSet
EndChar

StartChar: uniE01D
Encoding: 57373 57373 32
Width: 512
GlyphClass: 2
Flags: W
LayerCount: 2
Fore
SplineSet
288 480 m 1,0,-1
 448 480 l 1,1,-1
 288 256 l 1,2,-1
 416 256 l 1,3,-1
 96 0 l 1,4,-1
 192 224 l 1,5,-1
 96 224 l 1,6,-1
 288 480 l 1,0,-1
EndSplineSet
EndChar

StartChar: uniE01E
Encoding: 57374 57374 33
Width: 512
GlyphClass: 2
Flags: W
LayerCount: 2
Fore
SplineSet
416 320 m 1,0,-1
 416 64 l 1,1,-1
 128 64 l 1,2,-1
 128 384 l 1,3,-1
 224 384 l 1,4,-1
 224 448 l 1,5,-1
 64 448 l 1,6,-1
 64 0 l 1,7,-1
 480 0 l 1,8,-1
 480 320 l 1,9,-1
 416 320 l 1,0,-1
448 448 m 1,10,-1
 320 448 l 1,11,-1
 193 256 l 1,12,-1
 255 256 l 1,13,-1
 192 128 l 1,14,-1
 416 320 l 1,15,-1
 316 320 l 1,16,-1
 448 448 l 1,10,-1
EndSplineSet
EndChar

StartChar: uniE01F
Encoding: 57375 57375 34
Width: 512
GlyphClass: 2
Flags: W
LayerCount: 2
Fore
SplineSet
146 311 m 2,0,1
 144 311 144 311 91 181 c 1,2,-1
 91 329 l 1,3,-1
 402 329 l 1,4,-1
 402 347 l 2,5,6
 402 366 402 366 384 366 c 2,7,-1
 201 366 l 1,8,9
 201 385 201 385 194 393.5 c 128,-1,10
 187 402 187 402 168 402 c 2,11,-1
 87 402 l 2,12,13
 73 402 73 402 65 393 c 128,-1,14
 57 384 57 384 56 375 c 2,15,-1
 55 366 l 1,16,-1
 55 91 l 1,17,-1
 395 91 l 1,18,-1
 475 311 l 1,19,-1
 146 311 l 2,0,1
EndSplineSet
EndChar

StartChar: uniE020
Encoding: 57376 57376 35
Width: 512
GlyphClass: 2
Flags: W
LayerCount: 2
Fore
SplineSet
168 288 m 1,0,-1
 96 192 l 1,1,-1
 96 320 l 1,2,-1
 416 320 l 1,3,4
 416 342 416 342 408.5 363 c 128,-1,5
 401 384 401 384 384 384 c 2,6,-1
 192 384 l 1,7,8
 192 403 192 403 186 409.5 c 128,-1,9
 180 416 180 416 160 416 c 2,10,-1
 96 416 l 2,11,12
 82 416 82 416 74 408 c 128,-1,13
 66 400 66 400 65 392 c 2,14,-1
 64 384 l 1,15,-1
 64 96 l 1,16,-1
 376 96 l 1,17,-1
 480 288 l 1,18,-1
 168 288 l 1,0,-1
EndSplineSet
EndChar

StartChar: uniE021
Encoding: 57377 57377 36
Width: 512
GlyphClass: 2
Flags: W
LayerCount: 2
Fore
SplineSet
47 67 m 1,0,1
 69 68 69 68 82 87 c 0,2,3
 90 96 90 96 107 138 c 2,4,-1
 242 470 l 1,5,-1
 259 470 l 1,6,-1
 395 151 l 2,7,8
 418 96 418 96 429 82 c 0,9,10
 440 65 440 65 461 67 c 1,11,-1
 461 51 l 1,12,-1
 264 51 l 1,13,-1
 264 67 l 1,14,15
 293 67 293 67 303 72 c 0,16,17
 312 75 312 75 312 91 c 0,18,19
 312 100 312 100 308 113 c 0,20,21
 307 116 307 116 304 124 c 128,-1,22
 301 132 301 132 300 134 c 2,23,-1
 284 171 l 1,24,-1
 148 171 l 1,25,26
 144 160 144 160 140.5 150 c 128,-1,27
 137 140 137 140 134 132.5 c 128,-1,28
 131 125 131 125 130 123 c 0,29,30
 122 99 122 99 122 89 c 0,31,32
 122 76 122 76 140 70 c 0,33,34
 150 67 150 67 171 67 c 1,35,-1
 171 51 l 1,36,-1
 47 51 l 1,37,-1
 47 67 l 1,0,1
275 195 m 1,38,-1
 217 335 l 1,39,-1
 212 335 l 1,40,-1
 157 195 l 1,41,-1
 275 195 l 1,38,-1
EndSplineSet
EndChar

StartChar: uniE022
Encoding: 57378 57378 37
Width: 512
GlyphClass: 2
Flags: W
LayerCount: 2
Fore
SplineSet
448 448 m 1,0,-1
 288 448 l 1,1,-1
 349 387 l 1,2,-1
 269 307 l 1,3,-1
 302 274 l 1,4,-1
 382 354 l 1,5,-1
 448 288 l 1,6,-1
 448 448 l 1,0,-1
208 240 m 1,7,-1
 128 160 l 1,8,-1
 64 224 l 1,9,-1
 64 64 l 1,10,-1
 224 64 l 1,11,-1
 160 128 l 1,12,-1
 240 208 l 1,13,-1
 208 240 l 1,7,-1
EndSplineSet
EndChar

StartChar: uniE023
Encoding: 57379 57379 38
Width: 512
GlyphClass: 2
Flags: W
LayerCount: 2
Fore
SplineSet
144 185 m 1,0,-1
 64 101 l 1,1,-1
 97 64 l 1,2,-1
 185 144 l 1,3,-1
 256 80 l 1,4,-1
 256 256 l 1,5,-1
 80 256 l 1,6,-1
 144 185 l 1,0,-1
448 411 m 1,7,-1
 415 448 l 1,8,-1
 327 368 l 1,9,-1
 256 432 l 1,10,-1
 256 256 l 1,11,-1
 432 256 l 1,12,-1
 368 327 l 1,13,-1
 448 411 l 1,7,-1
EndSplineSet
EndChar

StartChar: uniE024
Encoding: 57380 57380 39
Width: 512
GlyphClass: 2
Flags: W
LayerCount: 2
Fore
SplineSet
364 320 m 0,0,1
 336 365 336 365 286 377 c 0,2,3
 236 390 236 390 192 363 c 0,4,5
 165 346 165 346 150 321 c 0,6,7
 110 257 110 257 149 192 c 0,8,9
 176 148 176 148 226.5 135.5 c 128,-1,10
 277 123 277 123 321 149 c 0,11,12
 364 175 364 175 377 226 c 128,-1,13
 390 277 390 277 364 320 c 0,0,1
294 194 m 0,14,15
 268 178 268 178 239 185 c 128,-1,16
 210 192 210 192 194 218 c 0,17,18
 171 257 171 257 194 294 c 0,19,20
 202 308 202 308 219 318 c 0,21,22
 244 333 244 333 274 327 c 0,23,24
 303 319 303 319 319 294 c 0,25,26
 334 269 334 269 326.5 239 c 128,-1,27
 319 209 319 209 294 194 c 0,14,15
267 37 m 0,28,29
 237 35 237 35 212 41 c 1,30,-1
 218 69 l 1,31,32
 253 62 253 62 293 68 c 1,33,-1
 298 40 l 1,34,35
 283 37 283 37 267 37 c 0,28,29
379 73 m 1,36,-1
 369 84 l 1,37,-1
 362 97 l 1,38,39
 392 115 392 115 414 149 c 1,40,-1
 438 133 l 1,41,42
 414 98 414 98 379 73 c 1,36,-1
133 74 m 1,43,44
 95 100 95 100 74 134 c 1,45,-1
 97 151 l 1,46,-1
 97 150 l 1,47,48
 117 121 117 121 149 98 c 1,49,-1
 133 74 l 1,43,44
471 212 m 1,50,-1
 443 218 l 1,51,52
 447 239 447 239 447 267 c 0,53,54
 446 271 446 271 445 279.5 c 128,-1,55
 444 288 444 288 444 292 c 2,56,-1
 472 297 l 1,57,58
 475 282 475 282 475 268 c 0,59,60
 477 237 477 237 471 212 c 1,50,-1
41 214 m 1,61,62
 37 236 37 236 37 246 c 0,63,64
 35 275 35 275 41 300 c 1,65,-1
 69 294 l 1,66,67
 65 274 65 274 65 248 c 0,68,69
 67 230 67 230 69 220 c 1,70,-1
 41 214 l 1,61,62
416 361 m 1,71,-1
 428 369 l 1,72,-1
 416 361 l 1,73,74
 394 394 394 394 364 414 c 1,75,-1
 380 438 l 1,76,77
 415 415 415 415 440 377 c 1,78,-1
 416 361 l 1,71,-1
98 362 m 1,79,-1
 74 378 l 1,80,81
 98 414 98 414 135 439 c 1,82,-1
 144 428 l 1,83,-1
 151 415 l 1,84,85
 119 394 119 394 98 362 c 1,79,-1
295 443 m 1,86,-1
 299 457 l 1,87,-1
 295 443 l 1,88,89
 259 450 259 450 221 444 c 1,90,-1
 216 472 l 1,91,92
 259 480 259 480 300 471 c 1,93,-1
 299 457 l 1,94,-1
 295 443 l 1,86,-1
EndSplineSet
EndChar

StartChar: uniE025
Encoding: 57381 57381 40
Width: 512
GlyphClass: 2
Flags: W
LayerCount: 2
Fore
SplineSet
471 224 m 0,0,1
 454 234 454 234 421 248 c 1,2,-1
 418 248 l 1,3,4
 396 270 396 270 393 274 c 1,5,6
 398 281 398 281 401 294 c 1,7,-1
 404 295 l 1,8,9
 417 304 417 304 420 339 c 2,10,-1
 420 343 l 2,11,12
 421 349 421 349 416 357 c 1,13,14
 432 432 432 432 382 446 c 1,15,16
 362 456 362 456 340 457 c 0,17,18
 324 456 324 456 300 447 c 1,19,20
 285 463 285 463 266 470 c 0,21,22
 230 483 230 483 208 484 c 0,23,24
 183 483 183 483 154 470 c 1,25,26
 126 462 126 462 108.5 433 c 128,-1,27
 91 404 91 404 103 345 c 1,28,29
 98 335 98 335 98 326 c 2,30,-1
 99 321 l 1,31,32
 101 272 101 272 121 260 c 0,33,34
 123 258 123 258 125 258 c 0,35,36
 127 252 127 252 131 242.5 c 128,-1,37
 135 233 135 233 136 230 c 2,38,-1
 137 230 l 1,39,40
 117 205 117 205 102 195 c 2,41,-1
 98 193 l 2,42,43
 86 188 86 188 75 177 c 128,-1,44
 64 166 64 166 54 160 c 0,45,46
 8 132 8 132 6 38 c 0,47,48
 6 24 6 24 16 12 c 0,49,50
 28 0 28 0 41 0 c 2,51,-1
 406 0 l 2,52,53
 418 0 418 0 426.5 9 c 128,-1,54
 435 18 435 18 435 26 c 0,55,56
 435 80 435 80 429 102 c 1,57,-1
 480 102 l 2,58,59
 486 102 486 102 498 114 c 0,60,61
 505 121 505 121 505 136 c 0,62,63
 503 205 503 205 471 224 c 0,0,1
340 426 m 0,64,65
 350 426 350 426 371 418 c 0,66,67
 397 410 397 410 386 363 c 0,68,69
 385 350 385 350 390 343 c 1,70,-1
 389 341 l 2,71,72
 389 333 389 333 386 321 c 1,73,-1
 384 321 l 2,74,75
 383 321 383 321 382 320 c 0,76,77
 374 317 374 317 374 308 c 0,78,79
 369 293 369 293 366 287 c 2,80,-1
 366 286 l 1,81,-1
 365 285 l 1,82,-1
 364 283 l 2,83,84
 363 281 363 281 361 279 c 128,-1,85
 359 277 359 277 356 274.5 c 128,-1,86
 353 272 353 272 349 270.5 c 128,-1,87
 345 269 345 269 341 269 c 0,88,89
 334 269 334 269 328 273.5 c 128,-1,90
 322 278 322 278 318 282 c 2,91,-1
 315 287 l 1,92,-1
 315 288 l 2,93,94
 318 298 318 298 320 321 c 2,95,-1
 320 326 l 2,96,97
 321 336 321 336 314 345 c 1,98,99
 324 389 324 389 314 420 c 1,100,101
 335 426 335 426 340 426 c 0,64,65
145 354 m 0,102,103
 131 419 131 419 168 431 c 0,104,105
 193 441 193 441 208 442 c 0,106,107
 227 441 227 441 252 430 c 0,108,109
 287 419 287 419 273 354 c 0,110,111
 269 339 269 339 278 326 c 1,112,-1
 278 323 l 2,113,114
 278 321 278 321 277 309.5 c 128,-1,115
 276 298 276 298 275 296 c 0,116,117
 274 296 274 296 272 296 c 2,118,-1
 270 295 l 2,119,120
 257 292 257 292 255 277 c 0,121,122
 255 269 255 269 244 249 c 0,123,124
 244 247 244 247 243 246 c 2,125,-1
 243 245 l 1,126,-1
 242 243 l 2,127,128
 240 241 240 241 238.5 239 c 128,-1,129
 237 237 237 237 234 234 c 128,-1,130
 231 231 231 231 227.5 228.5 c 128,-1,131
 224 226 224 226 219.5 224.5 c 128,-1,132
 215 223 215 223 210 223 c 128,-1,133
 205 223 205 223 200 225 c 128,-1,134
 195 227 195 227 191 229.5 c 128,-1,135
 187 232 187 232 184 235.5 c 128,-1,136
 181 239 181 239 179 242 c 128,-1,137
 177 245 177 245 176 247 c 2,138,-1
 174 249 l 1,139,140
 168 263 168 263 163 277 c 1,141,142
 163 290 163 290 149 295 c 0,143,144
 148 296 148 296 145 296 c 0,145,146
 141 305 141 305 141 324 c 2,147,-1
 141 326 l 1,148,149
 148 343 148 343 145 354 c 0,102,103
51 41 m 1,150,151
 55 115 55 115 76 128 c 0,152,153
 84 132 84 132 93 141 c 128,-1,154
 102 150 102 150 114 154 c 2,155,-1
 116 155 l 2,156,157
 133 161 133 161 164 197 c 1,158,159
 187 180 187 180 210 180 c 0,160,161
 235 180 235 180 255 196 c 1,162,163
 292 158 292 158 300 157 c 2,164,-1
 304 156 l 1,165,166
 357 134 357 134 368 128 c 0,167,168
 375 124 375 124 379 102 c 128,-1,169
 383 80 383 80 384 60 c 2,170,-1
 384 41 l 1,171,-1
 51 41 l 1,150,151
419 128 m 1,172,173
 409 148 409 148 390 161 c 0,174,175
 370 174 370 174 320 193 c 2,176,-1
 317 194 l 1,177,178
 296 211 296 211 282 230 c 0,179,180
 282 231 282 231 287 241 c 128,-1,181
 292 251 292 251 294 258 c 0,182,183
 295 258 295 258 297 260 c 2,184,-1
 298 260 l 1,185,186
 316 238 316 238 341 238 c 0,187,188
 358 238 358 238 373 249 c 1,189,190
 398 221 398 221 406 219 c 1,191,-1
 409 216 l 1,192,193
 429 208 429 208 455 192 c 0,194,195
 465 186 465 186 469.5 174.5 c 128,-1,196
 474 163 474 163 475 128 c 1,197,-1
 419 128 l 1,172,173
EndSplineSet
EndChar

StartChar: uniE026
Encoding: 57382 57382 41
Width: 512
GlyphClass: 2
Flags: W
LayerCount: 2
Fore
SplineSet
370 384 m 1,0,1
 361 361 361 361 338 345 c 0,2,3
 309 325 309 325 288 319 c 1,4,-1
 288 275 l 1,5,6
 352 294 352 294 352 312 c 2,7,-1
 352 128 l 1,8,-1
 416 128 l 1,9,-1
 416 384 l 1,10,-1
 370 384 l 1,0,1
192 288 m 1,11,-1
 128 288 l 1,12,-1
 128 384 l 1,13,-1
 64 384 l 1,14,-1
 64 128 l 1,15,-1
 128 128 l 1,16,-1
 128 224 l 1,17,-1
 192 224 l 1,18,-1
 192 128 l 1,19,-1
 256 128 l 1,20,-1
 256 384 l 1,21,-1
 192 384 l 1,22,-1
 192 288 l 1,11,-1
EndSplineSet
EndChar

StartChar: uniE027
Encoding: 57383 57383 42
Width: 512
GlyphClass: 2
Flags: W
LayerCount: 2
Fore
SplineSet
457 129 m 1,0,-1
 288 129 l 1,1,2
 289 145 289 145 296 163 c 0,3,4
 311 193 311 193 359 238 c 0,5,6
 397 274 397 274 405 290 c 0,7,8
 409 302 409 302 409 309 c 0,9,10
 409 342 409 342 376 342 c 0,11,12
 345 342 345 342 342 303 c 1,13,-1
 294 308 l 1,14,15
 298 356 298 356 334 373 c 0,16,17
 354 383 354 383 377 383 c 0,18,19
 413 383 413 383 435 363.5 c 128,-1,20
 457 344 457 344 457 313 c 0,21,22
 457 288 457 288 446 269 c 0,23,24
 436 249 436 249 401 216 c 0,25,26
 370 188 370 188 361 174 c 1,27,-1
 457 174 l 1,28,-1
 457 129 l 1,0,-1
192 384 m 1,29,-1
 192 288 l 1,30,-1
 128 288 l 1,31,-1
 128 384 l 1,32,-1
 64 384 l 1,33,-1
 64 128 l 1,34,-1
 128 128 l 1,35,-1
 128 224 l 1,36,-1
 192 224 l 1,37,-1
 192 128 l 1,38,-1
 256 128 l 1,39,-1
 256 384 l 1,40,-1
 192 384 l 1,29,-1
EndSplineSet
EndChar

StartChar: uniE028
Encoding: 57384 57384 43
Width: 512
GlyphClass: 2
Flags: W
LayerCount: 2
Fore
SplineSet
330 204 m 1,0,1
 331 187 331 187 341 177 c 128,-1,2
 351 167 351 167 366 167 c 128,-1,3
 381 167 381 167 391 179 c 128,-1,4
 401 191 401 191 401 209 c 128,-1,5
 401 227 401 227 391.5 238 c 128,-1,6
 382 249 382 249 367 249 c 0,7,8
 357 249 357 249 345 245 c 1,9,-1
 350 284 l 1,10,-1
 354 284 l 2,11,12
 370 284 370 284 380.5 293.5 c 128,-1,13
 391 303 391 303 391 317 c 0,14,15
 391 345 391 345 363 345 c 0,16,17
 336 345 336 345 331 311 c 1,18,-1
 286 319 l 1,19,20
 292 350 292 350 312 368 c 0,21,22
 334 385 334 385 364 385 c 0,23,24
 395 385 395 385 417 366 c 128,-1,25
 439 347 439 347 439 320 c 0,26,27
 439 299 439 299 423 281 c 0,28,29
 418 276 418 276 403 267 c 1,30,31
 450 257 450 257 450 207 c 0,32,33
 450 173 450 173 425.5 150 c 128,-1,34
 401 127 401 127 365 127 c 0,35,36
 332 127 332 127 309.5 146.5 c 128,-1,37
 287 166 287 166 283 198 c 1,38,-1
 330 204 l 1,0,1
192 384 m 1,39,-1
 192 288 l 1,40,-1
 128 288 l 1,41,-1
 128 384 l 1,42,-1
 64 384 l 1,43,-1
 64 128 l 1,44,-1
 128 128 l 1,45,-1
 128 224 l 1,46,-1
 192 224 l 1,47,-1
 192 128 l 1,48,-1
 256 128 l 1,49,-1
 256 384 l 1,50,-1
 192 384 l 1,39,-1
EndSplineSet
EndChar

StartChar: uniE029
Encoding: 57385 57385 44
Width: 512
GlyphClass: 2
Flags: W
LayerCount: 2
Fore
SplineSet
397 180 m 1,0,-1
 293 180 l 1,1,-1
 293 222 l 1,2,-1
 403 383 l 1,3,-1
 443 383 l 1,4,-1
 443 223 l 1,5,-1
 475 223 l 1,6,-1
 475 180 l 1,7,-1
 443 180 l 1,8,-1
 443 129 l 1,9,-1
 397 129 l 1,10,-1
 397 180 l 1,0,-1
397 309 m 1,11,-1
 396 309 l 1,12,-1
 339 223 l 1,13,-1
 397 223 l 1,14,-1
 397 309 l 1,11,-1
192 384 m 1,15,-1
 192 288 l 1,16,-1
 128 288 l 1,17,-1
 128 384 l 1,18,-1
 64 384 l 1,19,-1
 64 128 l 1,20,-1
 128 128 l 1,21,-1
 128 224 l 1,22,-1
 192 224 l 1,23,-1
 192 128 l 1,24,-1
 256 128 l 1,25,-1
 256 384 l 1,26,-1
 192 384 l 1,15,-1
EndSplineSet
EndChar

StartChar: uniE02A
Encoding: 57386 57386 45
Width: 512
GlyphClass: 2
Flags: W
LayerCount: 2
Fore
SplineSet
332 201 m 1,0,1
 334 186 334 186 344 176 c 128,-1,2
 354 166 354 166 367 166 c 0,3,4
 384 166 384 166 393.5 179.5 c 128,-1,5
 403 193 403 193 403 215 c 128,-1,6
 403 237 403 237 393 249.5 c 128,-1,7
 383 262 383 262 366 262 c 0,8,9
 346 262 346 262 328 243 c 1,10,-1
 289 249 l 1,11,-1
 314 380 l 1,12,-1
 442 380 l 1,13,-1
 442 335 l 1,14,-1
 351 335 l 1,15,-1
 343 292 l 1,16,17
 359 300 359 300 376 300 c 0,18,19
 409 300 409 300 431 276 c 128,-1,20
 453 252 453 252 453 216 c 0,21,22
 453 178 453 178 428.5 152.5 c 128,-1,23
 404 127 404 127 367 127 c 0,24,25
 332 127 332 127 309.5 145.5 c 128,-1,26
 287 164 287 164 283 196 c 1,27,-1
 332 201 l 1,0,1
192 384 m 1,28,-1
 192 288 l 1,29,-1
 128 288 l 1,30,-1
 128 384 l 1,31,-1
 64 384 l 1,32,-1
 64 128 l 1,33,-1
 128 128 l 1,34,-1
 128 224 l 1,35,-1
 192 224 l 1,36,-1
 192 128 l 1,37,-1
 256 128 l 1,38,-1
 256 384 l 1,39,-1
 192 384 l 1,28,-1
EndSplineSet
EndChar

StartChar: uniE02B
Encoding: 57387 57387 46
Width: 512
GlyphClass: 2
Flags: W
LayerCount: 2
Fore
SplineSet
402 317 m 1,0,1
 399 345 399 345 374 345 c 0,2,3
 339 345 339 345 335 277 c 1,4,-1
 335 275 l 1,5,-1
 336 274 l 1,6,7
 352 295 352 295 380 295 c 0,8,9
 411 295 411 295 432 271.5 c 128,-1,10
 453 248 453 248 453 213 c 0,11,12
 453 175 453 175 430.5 151 c 128,-1,13
 408 127 408 127 372 127 c 0,14,15
 330 127 330 127 307.5 160 c 128,-1,16
 285 193 285 193 285 254 c 0,17,18
 285 385 285 385 377 385 c 0,19,20
 438 385 438 385 449 322 c 1,21,-1
 402 317 l 1,0,1
375 167 m 0,22,23
 406 167 406 167 406 212 c 0,24,25
 406 260 406 260 372 260 c 0,26,27
 357 260 357 260 348 248.5 c 128,-1,28
 339 237 339 237 339 217 c 0,29,30
 339 195 339 195 349 181 c 128,-1,31
 359 167 359 167 375 167 c 0,22,23
192 384 m 1,32,-1
 192 288 l 1,33,-1
 128 288 l 1,34,-1
 128 384 l 1,35,-1
 64 384 l 1,36,-1
 64 128 l 1,37,-1
 128 128 l 1,38,-1
 128 224 l 1,39,-1
 192 224 l 1,40,-1
 192 128 l 1,41,-1
 256 128 l 1,42,-1
 256 384 l 1,43,-1
 192 384 l 1,32,-1
EndSplineSet
EndChar

StartChar: uniE02C
Encoding: 57388 57388 47
Width: 512
GlyphClass: 2
Flags: W
LayerCount: 2
Fore
SplineSet
158 450 m 0,0,1
 199 476 199 476 248 476 c 0,2,3
 319 476 319 476 366 444 c 0,4,5
 412 410 412 410 412 345 c 0,6,7
 412 305 412 305 392 277 c 0,8,9
 381 260 381 260 347 234 c 2,10,-1
 325 217 l 2,11,12
 304 201 304 201 301 190 c 2,13,-1
 297 160 l 1,14,-1
 212 160 l 1,15,-1
 214 174 l 2,16,17
 215 187 215 187 217.5 203.5 c 128,-1,18
 220 220 220 220 222 226 c 0,19,20
 228 242 228 242 264 269 c 2,21,-1
 286 286 l 2,22,23
 299 294 299 294 304 303 c 0,24,25
 317 320 317 320 317 340 c 0,26,27
 317 363 317 363 303 383 c 128,-1,28
 289 403 289 403 252 403 c 0,29,30
 219 403 219 403 201 374 c 0,31,32
 197 367 197 367 193 353.5 c 128,-1,33
 189 340 189 340 188 330 c 2,34,-1
 186 320 l 1,35,-1
 96 320 l 1,36,37
 99 414 99 414 158 450 c 0,0,1
314 64 m 128,-1,39
 314 38 314 38 295.5 19 c 128,-1,40
 277 0 277 0 250 0 c 0,41,42
 224 0 224 0 205 19 c 128,-1,43
 186 38 186 38 186 64 c 128,-1,44
 186 90 186 90 205 109 c 128,-1,45
 224 128 224 128 250 128 c 0,46,47
 277 128 277 128 295.5 109 c 128,-1,38
 314 90 314 90 314 64 c 128,-1,39
EndSplineSet
EndChar

StartChar: uniE02D
Encoding: 57389 57389 48
Width: 512
GlyphClass: 2
Flags: W
LayerCount: 2
Fore
SplineSet
419 387 m 1,0,-1
 489 456 l 1,1,-1
 466 479 l 1,2,-1
 394 406 l 1,3,4
 330 448 330 448 256 448 c 0,5,6
 173 448 173 448 103.5 395 c 128,-1,7
 34 342 34 342 0 256 c 1,8,9
 36 167 36 167 104 117 c 1,10,-1
 32 45 l 1,11,-1
 55 22 l 1,12,-1
 131 98 l 1,13,14
 193 64 193 64 256 64 c 0,15,16
 340 64 340 64 409 117 c 128,-1,17
 478 170 478 170 512 256 c 1,18,19
 481 334 481 334 419 387 c 1,0,-1
48 256 m 1,20,21
 75 315 75 315 122.5 353.5 c 128,-1,22
 170 392 170 392 226 402 c 0,23,24
 243 405 243 405 258 405 c 128,-1,25
 273 405 273 405 280 404 c 2,26,-1
 287 402 l 1,27,28
 324 396 324 396 362 374 c 1,29,-1
 135 148 l 1,30,31
 81 186 81 186 48 256 c 1,20,21
256 107 m 0,32,33
 209 107 209 107 163 131 c 1,34,-1
 388 356 l 1,35,36
 436 318 436 318 465 256 c 1,37,38
 433 187 433 187 377 147 c 128,-1,39
 321 107 321 107 256 107 c 0,32,33
EndSplineSet
EndChar

StartChar: uniE02E
Encoding: 57390 57390 49
Width: 512
GlyphClass: 2
Flags: W
LayerCount: 2
Fore
SplineSet
379 385 m 1,0,-1
 451 457 l 1,1,-1
 428 480 l 1,2,-1
 350 402 l 1,3,4
 303 423 303 423 256 423 c 0,5,6
 182 423 182 423 122 379 c 128,-1,7
 62 335 62 335 32 263 c 1,8,9
 58 200 58 200 108 159 c 1,10,-1
 37 89 l 1,11,-1
 60 66 l 1,12,-1
 134 140 l 1,13,14
 192 103 192 103 256 103 c 0,15,16
 329 103 329 103 389.5 147 c 128,-1,17
 450 191 450 191 480 263 c 1,18,19
 447 342 447 342 379 385 c 1,0,-1
64 263 m 1,20,21
 92 320 92 320 145 355.5 c 128,-1,22
 198 391 198 391 256 391 c 0,23,24
 291 391 291 391 325 377 c 1,25,-1
 130 182 l 1,26,27
 88 214 88 214 64 263 c 1,20,21
256 135 m 0,28,29
 208 135 208 135 157 163 c 1,30,-1
 356 362 l 1,31,32
 418 326 418 326 448 263 c 1,33,34
 420 206 420 206 367 170.5 c 128,-1,35
 314 135 314 135 256 135 c 0,28,29
EndSplineSet
EndChar

StartChar: uniE02F
Encoding: 57391 57391 50
Width: 512
GlyphClass: 2
Flags: W
LayerCount: 2
Fore
SplineSet
419 386 m 1,0,-1
 489 456 l 1,1,-1
 466 479 l 1,2,-1
 393 406 l 1,3,4
 331 448 331 448 256 448 c 0,5,6
 172 448 172 448 103 395 c 128,-1,7
 34 342 34 342 0 256 c 1,8,9
 36 168 36 168 104 116 c 1,10,-1
 32 45 l 1,11,-1
 55 22 l 1,12,-1
 131 98 l 1,13,14
 190 64 190 64 256 64 c 0,15,16
 339 64 339 64 408.5 117 c 128,-1,17
 478 170 478 170 512 256 c 1,18,19
 480 336 480 336 419 386 c 1,0,-1
35 256 m 1,20,21
 67 330 67 330 126.5 373 c 128,-1,22
 186 416 186 416 256 416 c 0,23,24
 316 416 316 416 370 382 c 1,25,-1
 127 139 l 1,26,27
 67 182 67 182 35 256 c 1,20,21
256 96 m 0,28,29
 202 96 202 96 155 122 c 1,30,-1
 396 363 l 1,31,32
 450 319 450 319 477 256 c 1,33,34
 445 183 445 183 385 139.5 c 128,-1,35
 325 96 325 96 256 96 c 0,28,29
EndSplineSet
EndChar

StartChar: uniE030
Encoding: 57392 57392 51
Width: 512
GlyphClass: 2
Flags: W
LayerCount: 2
Fore
SplineSet
448 289 m 1,0,-1
 448 448 l 1,1,-1
 384 448 l 1,2,-1
 384 352 l 1,3,-1
 256 480 l 1,4,-1
 0 224 l 1,5,-1
 64 224 l 1,6,-1
 64 32 l 1,7,-1
 448 32 l 1,8,-1
 448 224 l 1,9,-1
 512 224 l 1,10,-1
 448 289 l 1,0,-1
288 96 m 1,11,-1
 224 96 l 1,12,-1
 224 192 l 1,13,-1
 288 192 l 1,14,-1
 288 96 l 1,11,-1
EndSplineSet
EndChar

StartChar: uniE031
Encoding: 57393 57393 52
Width: 512
GlyphClass: 2
Flags: W
LayerCount: 2
Fore
SplineSet
224 224 m 1,0,-1
 288 224 l 1,1,-1
 288 128 l 1,2,-1
 224 128 l 1,3,-1
 224 224 l 1,0,-1
448 288 m 1,4,-1
 448 448 l 1,5,-1
 352 448 l 1,6,-1
 352 384 l 1,7,-1
 256 480 l 1,8,-1
 0 224 l 1,9,-1
 64 224 l 1,10,-1
 64 32 l 1,11,-1
 448 32 l 1,12,-1
 448 224 l 1,13,-1
 512 224 l 1,14,-1
 448 288 l 1,4,-1
416 64 m 1,15,-1
 96 64 l 1,16,-1
 96 256 l 1,17,-1
 256 416 l 1,18,-1
 416 256 l 1,19,-1
 416 64 l 1,15,-1
416 320 m 1,20,-1
 384 352 l 1,21,-1
 384 416 l 1,22,-1
 416 416 l 1,23,-1
 416 320 l 1,20,-1
EndSplineSet
EndChar

StartChar: uniE032
Encoding: 57394 57394 53
Width: 512
GlyphClass: 2
Flags: W
LayerCount: 2
Fore
SplineSet
448 288 m 1,0,-1
 448 448 l 1,1,-1
 352 448 l 1,2,-1
 352 384 l 1,3,-1
 256 480 l 1,4,-1
 0 224 l 1,5,-1
 64 224 l 1,6,-1
 64 32 l 1,7,-1
 448 32 l 1,8,-1
 448 224 l 1,9,-1
 512 224 l 1,10,-1
 448 288 l 1,0,-1
96 256 m 1,11,-1
 256 416 l 1,12,-1
 285 387 l 1,13,-1
 96 199 l 1,14,-1
 96 256 l 1,11,-1
96 153 m 1,15,-1
 307 365 l 1,16,-1
 349 323 l 1,17,-1
 96 71 l 1,18,-1
 96 153 l 1,15,-1
135 64 m 1,19,-1
 371 301 l 1,20,-1
 413 259 l 1,21,-1
 218 65 l 1,22,-1
 219 64 l 1,23,-1
 135 64 l 1,19,-1
416 64 m 1,24,-1
 391 64 l 1,25,-1
 416 89 l 1,26,-1
 416 64 l 1,24,-1
416 133 m 1,27,-1
 415 134 l 1,28,-1
 346 65 l 1,29,-1
 347 64 l 1,30,-1
 263 64 l 1,31,-1
 416 217 l 1,32,-1
 416 133 l 1,27,-1
EndSplineSet
EndChar

StartChar: uniE033
Encoding: 57395 57395 54
Width: 512
GlyphClass: 2
Flags: W
LayerCount: 2
Fore
SplineSet
160 384 m 1,0,-1
 384 384 l 1,1,-1
 384 352 l 1,2,-1
 160 352 l 1,3,-1
 160 384 l 1,0,-1
96 280 m 1,4,-1
 448 280 l 1,5,-1
 448 232 l 1,6,-1
 96 232 l 1,7,-1
 96 280 l 1,4,-1
160 160 m 1,8,-1
 384 160 l 1,9,-1
 384 128 l 1,10,-1
 160 128 l 1,11,-1
 160 160 l 1,8,-1
EndSplineSet
EndChar

StartChar: uniE034
Encoding: 57396 57396 55
Width: 512
GlyphClass: 2
Flags: W
LayerCount: 2
Fore
SplineSet
163 328 m 128,-1,1
 163 348 163 348 150 362 c 128,-1,2
 137 376 137 376 118 376 c 0,3,4
 100 376 100 376 87 362 c 128,-1,5
 74 348 74 348 74 328 c 128,-1,6
 74 308 74 308 87 294 c 128,-1,7
 100 280 100 280 118 280 c 0,8,9
 137 280 137 280 150 294 c 128,-1,0
 163 308 163 308 163 328 c 128,-1,1
311 301 m 2,10,11
 307 305 307 305 303 298 c 2,12,-1
 209 169 l 2,13,14
 207 167 207 167 204.5 166.5 c 128,-1,15
 202 166 202 166 201 168 c 2,16,-1
 151 216 l 2,17,18
 145 225 145 225 142 221 c 2,19,-1
 64 128 l 1,20,-1
 448 128 l 1,21,-1
 311 301 l 2,10,11
0 448 m 1,22,-1
 0 64 l 1,23,-1
 512 64 l 1,24,-1
 512 448 l 1,25,-1
 0 448 l 1,22,-1
480 96 m 1,26,-1
 32 96 l 1,27,-1
 32 416 l 1,28,-1
 480 416 l 1,29,-1
 480 96 l 1,26,-1
EndSplineSet
EndChar

StartChar: uniE035
Encoding: 57397 57397 56
Width: 512
GlyphClass: 2
Flags: W
LayerCount: 2
Fore
SplineSet
128 320 m 1,0,-1
 192 320 l 1,1,-1
 192 160 l 1,2,-1
 320 160 l 1,3,-1
 320 320 l 1,4,-1
 384 320 l 1,5,-1
 256 480 l 1,6,-1
 128 320 l 1,0,-1
384 192 m 1,7,-1
 384 96 l 1,8,-1
 128 96 l 1,9,-1
 128 192 l 1,10,-1
 64 192 l 1,11,-1
 64 32 l 1,12,-1
 448 32 l 1,13,-1
 448 192 l 1,14,-1
 384 192 l 1,7,-1
EndSplineSet
EndChar

StartChar: uniE036
Encoding: 57398 57398 57
Width: 512
GlyphClass: 2
Flags: W
LayerCount: 2
Fore
SplineSet
224 388 m 2,0,-1
 224 380 l 2,1,2
 224 368 224 368 232 360 c 128,-1,3
 240 352 240 352 252 352 c 2,4,-1
 260 352 l 2,5,6
 272 352 272 352 280 360 c 128,-1,7
 288 368 288 368 288 380 c 2,8,-1
 288 388 l 2,9,10
 288 400 288 400 280 408 c 128,-1,11
 272 416 272 416 260 416 c 2,12,-1
 252 416 l 2,13,14
 240 416 240 416 232 408 c 128,-1,15
 224 400 224 400 224 388 c 2,0,-1
252 128 m 2,16,-1
 260 128 l 2,17,18
 272 128 272 128 280 136 c 128,-1,19
 288 144 288 144 288 156 c 2,20,-1
 288 292 l 2,21,22
 288 304 288 304 280 312 c 128,-1,23
 272 320 272 320 260 320 c 2,24,-1
 252 320 l 2,25,26
 240 320 240 320 232 312 c 128,-1,27
 224 304 224 304 224 292 c 2,28,-1
 224 156 l 2,29,30
 224 144 224 144 232 136 c 128,-1,31
 240 128 240 128 252 128 c 2,16,-1
EndSplineSet
EndChar

StartChar: uniE037
Encoding: 57399 57399 58
Width: 512
GlyphClass: 2
Flags: W
LayerCount: 2
Fore
SplineSet
219 219 m 1,0,-1
 293 219 l 1,1,-1
 293 366 l 1,2,-1
 333 366 l 1,3,-1
 258 466 l 1,4,-1
 183 366 l 1,5,-1
 219 366 l 1,6,-1
 219 219 l 1,0,-1
384 347 m 1,7,-1
 427 298 l 1,8,-1
 321 208 l 1,9,-1
 370 159 l 1,10,-1
 461 251 l 1,11,-1
 512 200 l 1,12,-1
 512 347 l 1,13,-1
 384 347 l 1,7,-1
93 292 m 1,14,-1
 144 347 l 1,15,-1
 0 347 l 1,16,-1
 0 211 l 1,17,-1
 47 254 l 1,18,-1
 137 148 l 1,19,-1
 185 197 l 1,20,-1
 93 292 l 1,14,-1
257 187 m 0,21,22
 227 187 227 187 205.5 165.5 c 128,-1,23
 184 144 184 144 184 114 c 0,24,25
 184 83 184 83 205.5 62 c 128,-1,26
 227 41 227 41 257 41 c 0,27,28
 288 41 288 41 309 62 c 128,-1,29
 330 83 330 83 330 114 c 0,30,31
 330 144 330 144 309 165.5 c 128,-1,32
 288 187 288 187 257 187 c 0,21,22
257 77 m 128,-1,34
 242 77 242 77 231.5 88 c 128,-1,35
 221 99 221 99 221 114 c 128,-1,36
 221 129 221 129 231.5 139.5 c 128,-1,37
 242 150 242 150 257 150 c 128,-1,38
 272 150 272 150 283 139.5 c 128,-1,39
 294 129 294 129 294 114 c 128,-1,40
 294 99 294 99 283 88 c 128,-1,33
 272 77 272 77 257 77 c 128,-1,34
EndSplineSet
EndChar

StartChar: uniE038
Encoding: 57400 57400 59
Width: 512
GlyphClass: 2
Flags: W
LayerCount: 2
Fore
SplineSet
296 328 m 1,0,-1
 248 96 l 1,1,-1
 185 96 l 1,2,-1
 233 328 l 1,3,-1
 296 328 l 1,0,-1
314 416 m 1,4,-1
 303 359 l 1,5,-1
 240 359 l 1,6,-1
 252 416 l 1,7,-1
 314 416 l 1,4,-1
EndSplineSet
EndChar

StartChar: uniE039
Encoding: 57401 57401 60
Width: 512
GlyphClass: 2
Flags: W
LayerCount: 2
Fore
SplineSet
320 416 m 1,0,-1
 384 416 l 1,1,-1
 384 96 l 1,2,-1
 320 96 l 1,3,-1
 320 416 l 1,0,-1
161 94 m 1,4,-1
 112 143 l 1,5,-1
 223 255 l 1,6,-1
 112 367 l 1,7,-1
 161 416 l 1,8,-1
 322 255 l 1,9,-1
 161 94 l 1,4,-1
EndSplineSet
EndChar

StartChar: uniE03A
Encoding: 57402 57402 61
Width: 512
GlyphClass: 2
Flags: W
LayerCount: 2
Fore
SplineSet
288 352 m 1,0,-1
 288 288 l 1,1,-1
 224 288 l 1,2,-1
 224 352 l 1,3,-1
 0 352 l 1,4,-1
 0 160 l 1,5,-1
 224 160 l 1,6,-1
 224 224 l 1,7,-1
 288 224 l 1,8,-1
 288 160 l 1,9,-1
 512 160 l 1,10,-1
 512 352 l 1,11,-1
 288 352 l 1,0,-1
192 192 m 1,12,-1
 32 192 l 1,13,-1
 32 320 l 1,14,-1
 192 320 l 1,15,-1
 192 288 l 1,16,-1
 160 288 l 2,17,18
 146 288 146 288 137 279 c 128,-1,19
 128 270 128 270 128 256 c 128,-1,20
 128 242 128 242 137 233 c 128,-1,21
 146 224 146 224 160 224 c 2,22,-1
 192 224 l 1,23,-1
 192 192 l 1,12,-1
480 192 m 1,24,-1
 320 192 l 1,25,-1
 320 224 l 1,26,-1
 352 224 l 2,27,28
 366 224 366 224 375 233 c 128,-1,29
 384 242 384 242 384 256 c 128,-1,30
 384 270 384 270 375 279 c 128,-1,31
 366 288 366 288 352 288 c 2,32,-1
 320 288 l 1,33,-1
 320 320 l 1,34,-1
 480 320 l 1,35,-1
 480 192 l 1,24,-1
EndSplineSet
EndChar

StartChar: uniE03B
Encoding: 57403 57403 62
Width: 512
GlyphClass: 2
Flags: W
LayerCount: 2
Fore
SplineSet
416 320 m 1,0,-1
 416 373 l 2,1,2
 416 426 416 426 367 465 c 128,-1,3
 318 504 318 504 256 504 c 128,-1,4
 194 504 194 504 145 465 c 128,-1,5
 96 426 96 426 96 373 c 2,6,-1
 96 320 l 1,7,-1
 64 320 l 1,8,-1
 64 32 l 1,9,-1
 448 32 l 1,10,-1
 448 320 l 1,11,-1
 416 320 l 1,0,-1
160 373 m 2,12,13
 160 407 160 407 187.5 431.5 c 128,-1,14
 215 456 215 456 256 456 c 128,-1,15
 297 456 297 456 324.5 431.5 c 128,-1,16
 352 407 352 407 352 373 c 2,17,-1
 352 320 l 1,18,-1
 160 320 l 1,19,-1
 160 373 l 2,12,13
416 64 m 1,20,-1
 96 64 l 1,21,-1
 96 288 l 1,22,-1
 416 288 l 1,23,-1
 416 64 l 1,20,-1
224 192 m 1,24,-1
 288 192 l 1,25,-1
 288 96 l 1,26,-1
 224 96 l 1,27,-1
 224 192 l 1,24,-1
EndSplineSet
EndChar

StartChar: uniE03C
Encoding: 57404 57404 63
Width: 512
GlyphClass: 2
Flags: W
LayerCount: 2
Fore
SplineSet
160 320 m 1,0,-1
 160 373 l 2,1,2
 160 406 160 406 189.5 431 c 128,-1,3
 219 456 219 456 260 456 c 0,4,5
 297 456 297 456 325 435 c 128,-1,6
 353 414 353 414 359 384 c 1,7,-1
 407 384 l 1,8,9
 402 433 402 433 356.5 468.5 c 128,-1,10
 311 504 311 504 252 504 c 0,11,12
 190 504 190 504 143 465 c 128,-1,13
 96 426 96 426 96 373 c 2,14,-1
 96 320 l 1,15,-1
 64 320 l 1,16,-1
 64 32 l 1,17,-1
 448 32 l 1,18,-1
 448 320 l 1,19,-1
 160 320 l 1,0,-1
416 64 m 1,20,-1
 96 64 l 1,21,-1
 96 288 l 1,22,-1
 416 288 l 1,23,-1
 416 64 l 1,20,-1
224 192 m 1,24,-1
 288 192 l 1,25,-1
 288 96 l 1,26,-1
 224 96 l 1,27,-1
 224 192 l 1,24,-1
EndSplineSet
EndChar

StartChar: uniE03D
Encoding: 57405 57405 64
Width: 512
GlyphClass: 2
Flags: W
LayerCount: 2
Fore
SplineSet
256 512 m 128,-1,1
 150 512 150 512 75 437 c 128,-1,2
 0 362 0 362 0 256 c 128,-1,3
 0 150 0 150 75 75 c 128,-1,4
 150 0 150 0 256 0 c 128,-1,5
 362 0 362 0 437 75 c 128,-1,6
 512 150 512 150 512 256 c 128,-1,7
 512 362 512 362 437 437 c 128,-1,0
 362 512 362 512 256 512 c 128,-1,1
256 64 m 128,-1,9
 176 64 176 64 120 120 c 128,-1,10
 64 176 64 176 64 256 c 128,-1,11
 64 336 64 336 120 392 c 128,-1,12
 176 448 176 448 256 448 c 128,-1,13
 336 448 336 448 392 392 c 128,-1,14
 448 336 448 336 448 256 c 128,-1,15
 448 176 448 176 392 120 c 128,-1,8
 336 64 336 64 256 64 c 128,-1,9
389 379 m 1,16,-1
 264 254 l 1,17,18
 258 256 258 256 256 256 c 128,-1,19
 254 256 254 256 248 254 c 1,20,-1
 171 331 l 1,21,-1
 149 309 l 1,22,-1
 226 232 l 1,23,24
 224 226 224 226 224 224 c 0,25,26
 224 210 224 210 233 201 c 128,-1,27
 242 192 242 192 256 192 c 128,-1,28
 270 192 270 192 279 201 c 128,-1,29
 288 210 288 210 288 224 c 0,30,31
 288 226 288 226 286 232 c 1,32,-1
 411 357 l 1,33,-1
 389 379 l 1,16,-1
EndSplineSet
EndChar

StartChar: uniE03E
Encoding: 57406 57406 65
Width: 512
GlyphClass: 2
Flags: W
LayerCount: 2
Fore
SplineSet
504 174 m 0,0,1
 491 214 491 214 455 232 c 0,2,3
 433 243 433 243 409 243 c 0,4,5
 402 243 402 243 392 241 c 1,6,-1
 326 320 l 1,7,8
 338 332 338 332 345 346 c 0,9,10
 364 383 364 383 351.5 422 c 128,-1,11
 339 461 339 461 302 480 c 0,12,13
 278 491 278 491 256 491 c 0,14,15
 195 491 195 491 167 437 c 0,16,17
 152 407 152 407 158 375 c 128,-1,18
 164 343 164 343 187 320 c 1,19,-1
 128 240 l 1,20,21
 116 243 116 243 104 243 c 0,22,23
 75 243 75 243 51.5 228 c 128,-1,24
 28 213 28 213 15 188 c 0,25,26
 -5 153 -5 153 8 112 c 0,27,28
 22 72 22 72 58 54 c 0,29,30
 80 43 80 43 103 43 c 0,31,32
 164 43 164 43 193 97 c 0,33,34
 208 127 208 127 202 159.5 c 128,-1,35
 196 192 196 192 173 214 c 1,36,-1
 232 294 l 1,37,38
 244 291 244 291 256 291 c 0,39,40
 265 291 265 291 281 295 c 1,41,-1
 344 218 l 1,42,43
 329 206 329 206 320 188 c 0,44,45
 302 153 302 153 314 112 c 0,46,47
 327 73 327 73 364 54 c 0,48,49
 386 43 386 43 409 43 c 0,50,51
 470 43 470 43 498 97 c 0,52,53
 517 136 517 136 504 174 c 0,0,1
153 118 m 0,54,55
 142 98 142 98 120 91 c 128,-1,56
 98 84 98 84 78 94 c 0,57,58
 59 104 59 104 51 126 c 0,59,60
 45 149 45 149 55 168 c 0,61,62
 70 198 70 198 104 198 c 0,63,64
 117 198 117 198 129 192 c 0,65,66
 149 182 149 182 156 160 c 128,-1,67
 163 138 163 138 153 118 c 0,54,55
231 342 m 0,68,69
 211 353 211 353 204 374.5 c 128,-1,70
 197 396 197 396 207 416 c 0,71,72
 221 446 221 446 256 446 c 0,73,74
 269 446 269 446 281 440 c 0,75,76
 301 430 301 430 308.5 408 c 128,-1,77
 316 386 316 386 305 366 c 0,78,79
 295 347 295 347 273 339.5 c 128,-1,80
 251 332 251 332 231 342 c 0,68,69
458 118 m 128,-1,82
 448 98 448 98 426 90.5 c 128,-1,83
 404 83 404 83 384 94 c 0,84,85
 363 105 363 105 357 126 c 0,86,87
 350 146 350 146 360 168 c 0,88,89
 377 198 377 198 409 198 c 0,90,91
 424 198 424 198 434 192 c 0,92,93
 454 181 454 181 461 159.5 c 128,-1,81
 468 138 468 138 458 118 c 128,-1,82
EndSplineSet
EndChar

StartChar: uniE03F
Encoding: 57407 57407 66
Width: 512
GlyphClass: 2
Flags: W
LayerCount: 2
Fore
SplineSet
96 288 m 1,0,-1
 416 288 l 1,1,-1
 416 192 l 1,2,-1
 96 192 l 1,3,-1
 96 288 l 1,0,-1
EndSplineSet
EndChar

StartChar: uniE040
Encoding: 57408 57408 67
Width: 512
GlyphClass: 2
Flags: W
LayerCount: 2
Fore
SplineSet
128 224 m 1,0,-1
 128 288 l 1,1,-1
 384 288 l 1,2,-1
 384 224 l 1,3,-1
 128 224 l 1,0,-1
EndSplineSet
EndChar

StartChar: uniE041
Encoding: 57409 57409 68
Width: 512
GlyphClass: 2
Flags: W
LayerCount: 2
Fore
SplineSet
49 435 m 2,0,1
 29 435 29 435 14.5 421 c 128,-1,2
 0 407 0 407 0 387 c 2,3,-1
 0 384 l 1,4,-1
 177 384 l 1,5,-1
 330 227 l 2,6,7
 342 214 342 214 353 225 c 2,8,-1
 461 358 l 1,9,-1
 461 128 l 1,10,-1
 154 128 l 1,11,-1
 154 127 l 2,12,13
 154 107 154 107 168.5 92 c 128,-1,14
 183 77 183 77 204 77 c 2,15,-1
 512 77 l 1,16,-1
 512 435 l 1,17,-1
 49 435 l 2,0,1
344 260 m 2,18,19
 342 258 342 258 338 262 c 2,20,-1
 230 384 l 1,21,-1
 439 384 l 1,22,-1
 344 260 l 2,18,19
51 333 m 1,23,-1
 154 333 l 1,24,-1
 154 282 l 1,25,-1
 51 282 l 1,26,-1
 51 333 l 1,23,-1
102 230 m 1,27,-1
 205 230 l 1,28,-1
 205 179 l 1,29,-1
 102 179 l 1,30,-1
 102 230 l 1,27,-1
EndSplineSet
EndChar

StartChar: uniE042
Encoding: 57410 57410 69
Width: 512
GlyphClass: 2
Flags: W
LayerCount: 2
Fore
SplineSet
225 94 m 1,0,-1
 176 143 l 1,1,-1
 287 255 l 1,2,-1
 176 367 l 1,3,-1
 225 416 l 1,4,-1
 386 255 l 1,5,-1
 225 94 l 1,0,-1
EndSplineSet
EndChar

StartChar: uniE043
Encoding: 57411 57411 70
Width: 512
GlyphClass: 2
Flags: W
LayerCount: 2
Fore
SplineSet
347 146 m 0,0,1
 330 146 330 146 315.5 136 c 128,-1,2
 301 126 301 126 296 110 c 1,3,-1
 201 110 l 1,4,-1
 201 219 l 1,5,-1
 296 219 l 1,6,7
 301 203 301 203 315.5 193 c 128,-1,8
 330 183 330 183 347 183 c 0,9,10
 370 183 370 183 386 199 c 128,-1,11
 402 215 402 215 402 238 c 128,-1,12
 402 261 402 261 386 277 c 128,-1,13
 370 293 370 293 347 293 c 0,14,15
 330 293 330 293 315.5 282.5 c 128,-1,16
 301 272 301 272 296 256 c 1,17,-1
 201 256 l 1,18,-1
 201 313 l 1,19,20
 225 320 225 320 240.5 339.5 c 128,-1,21
 256 359 256 359 256 384 c 0,22,23
 256 414 256 414 234.5 435.5 c 128,-1,24
 213 457 213 457 183 457 c 128,-1,25
 153 457 153 457 131.5 435.5 c 128,-1,26
 110 414 110 414 110 384 c 0,27,28
 110 359 110 359 125.5 339.5 c 128,-1,29
 141 320 141 320 165 313 c 1,30,-1
 165 73 l 1,31,-1
 296 73 l 1,32,33
 301 57 301 57 315.5 47 c 128,-1,34
 330 37 330 37 347 37 c 0,35,36
 370 37 370 37 386 52.5 c 128,-1,37
 402 68 402 68 402 91 c 128,-1,38
 402 114 402 114 386 130 c 128,-1,39
 370 146 370 146 347 146 c 0,0,1
146 384 m 128,-1,41
 146 399 146 399 157 410 c 128,-1,42
 168 421 168 421 183 421 c 128,-1,43
 198 421 198 421 208.5 410 c 128,-1,44
 219 399 219 399 219 384 c 128,-1,45
 219 369 219 369 208.5 358 c 128,-1,46
 198 347 198 347 183 347 c 128,-1,47
 168 347 168 347 157 358 c 128,-1,40
 146 369 146 369 146 384 c 128,-1,41
EndSplineSet
EndChar

StartChar: uniE044
Encoding: 57412 57412 71
Width: 512
GlyphClass: 2
Flags: W
LayerCount: 2
Fore
SplineSet
352 128 m 0,0,1
 316 128 316 128 297 96 c 1,2,-1
 160 96 l 1,3,-1
 160 192 l 1,4,-1
 297 192 l 1,5,6
 316 160 316 160 352 160 c 0,7,8
 378 160 378 160 397 179 c 128,-1,9
 416 198 416 198 416 224 c 128,-1,10
 416 250 416 250 397 269 c 128,-1,11
 378 288 378 288 352 288 c 128,-1,12
 326 288 326 288 307 269 c 128,-1,13
 288 250 288 250 288 224 c 1,14,-1
 160 224 l 1,15,-1
 160 270 l 1,16,17
 196 275 196 275 220 303 c 128,-1,18
 244 331 244 331 244 368 c 0,19,20
 244 409 244 409 214.5 438.5 c 128,-1,21
 185 468 185 468 144 468 c 128,-1,22
 103 468 103 468 73.5 438.5 c 128,-1,23
 44 409 44 409 44 368 c 0,24,25
 44 331 44 331 68 303 c 128,-1,26
 92 275 92 275 128 270 c 1,27,-1
 128 64 l 1,28,-1
 288 64 l 1,29,30
 288 38 288 38 307 19 c 128,-1,31
 326 0 326 0 352 0 c 128,-1,32
 378 0 378 0 397 19 c 128,-1,33
 416 38 416 38 416 64 c 128,-1,34
 416 90 416 90 397 109 c 128,-1,35
 378 128 378 128 352 128 c 0,0,1
84 368 m 128,-1,37
 84 393 84 393 101.5 410.5 c 128,-1,38
 119 428 119 428 144 428 c 128,-1,39
 169 428 169 428 186.5 410.5 c 128,-1,40
 204 393 204 393 204 368 c 128,-1,41
 204 343 204 343 186.5 325.5 c 128,-1,42
 169 308 169 308 144 308 c 128,-1,43
 119 308 119 308 101.5 325.5 c 128,-1,36
 84 343 84 343 84 368 c 128,-1,37
EndSplineSet
EndChar

StartChar: uniE045
Encoding: 57413 57413 72
Width: 512
GlyphClass: 2
Flags: W
LayerCount: 2
Fore
SplineSet
96 288 m 1,0,-1
 128 288 l 1,1,-1
 128 256 l 1,2,-1
 96 256 l 1,3,-1
 96 288 l 1,0,-1
160 288 m 1,4,-1
 416 288 l 1,5,-1
 416 256 l 1,6,-1
 160 256 l 1,7,-1
 160 288 l 1,4,-1
32 480 m 1,8,-1
 32 64 l 1,9,-1
 480 64 l 1,10,-1
 480 480 l 1,11,-1
 32 480 l 1,8,-1
448 96 m 1,12,-1
 64 96 l 1,13,-1
 64 192 l 1,14,-1
 448 192 l 1,15,-1
 448 96 l 1,12,-1
448 224 m 1,16,-1
 64 224 l 1,17,-1
 64 320 l 1,18,-1
 448 320 l 1,19,-1
 448 224 l 1,16,-1
448 352 m 1,20,-1
 64 352 l 1,21,-1
 64 448 l 1,22,-1
 448 448 l 1,23,-1
 448 352 l 1,20,-1
96 416 m 1,24,-1
 128 416 l 1,25,-1
 128 384 l 1,26,-1
 96 384 l 1,27,-1
 96 416 l 1,24,-1
160 416 m 1,28,-1
 416 416 l 1,29,-1
 416 384 l 1,30,-1
 160 384 l 1,31,-1
 160 416 l 1,28,-1
96 160 m 1,32,-1
 128 160 l 1,33,-1
 128 128 l 1,34,-1
 96 128 l 1,35,-1
 96 160 l 1,32,-1
160 160 m 1,36,-1
 416 160 l 1,37,-1
 416 128 l 1,38,-1
 160 128 l 1,39,-1
 160 160 l 1,36,-1
EndSplineSet
EndChar

StartChar: uniE046
Encoding: 57414 57414 73
Width: 512
GlyphClass: 2
Flags: W
LayerCount: 2
Fore
SplineSet
218 416 m 1,0,-1
 442 416 l 1,1,-1
 442 384 l 1,2,-1
 218 384 l 1,3,-1
 218 416 l 1,0,-1
90 352 m 1,4,-1
 122 352 l 1,5,-1
 122 480 l 1,6,-1
 58 480 l 1,7,-1
 58 448 l 1,8,-1
 90 448 l 1,9,-1
 90 352 l 1,4,-1
58 288 m 1,10,-1
 122 288 l 1,11,-1
 122 256 l 1,12,-1
 154 256 l 1,13,-1
 154 320 l 1,14,-1
 58 320 l 1,15,-1
 58 288 l 1,10,-1
90 224 m 1,16,-1
 58 224 l 1,17,-1
 58 192 l 1,18,-1
 154 192 l 1,19,-1
 154 224 l 1,20,-1
 122 224 l 1,21,-1
 122 256 l 1,22,-1
 90 256 l 1,23,-1
 90 224 l 1,16,-1
218 256 m 1,24,-1
 442 256 l 1,25,-1
 442 224 l 1,26,-1
 218 224 l 1,27,-1
 218 256 l 1,24,-1
90 160 m 1,28,-1
 58 160 l 1,29,-1
 58 128 l 1,30,-1
 122 128 l 1,31,-1
 122 64 l 1,32,-1
 58 64 l 1,33,-1
 58 32 l 1,34,-1
 154 32 l 1,35,-1
 154 160 l 1,36,-1
 90 160 l 1,28,-1
218 96 m 1,37,-1
 442 96 l 1,38,-1
 442 64 l 1,39,-1
 218 64 l 1,40,-1
 218 96 l 1,37,-1
EndSplineSet
EndChar

StartChar: uniE047
Encoding: 57415 57415 74
Width: 512
GlyphClass: 2
Flags: W
LayerCount: 2
Fore
SplineSet
128 256 m 1,0,-1
 384 256 l 1,1,-1
 384 224 l 1,2,-1
 128 224 l 1,3,-1
 128 256 l 1,0,-1
EndSplineSet
EndChar

StartChar: uniE048
Encoding: 57416 57416 75
Width: 512
GlyphClass: 2
Flags: W
LayerCount: 2
Fore
SplineSet
416 256 m 1,0,-1
 288 256 l 1,1,-1
 288 384 l 1,2,-1
 256 384 l 1,3,-1
 256 256 l 1,4,-1
 128 256 l 1,5,-1
 128 224 l 1,6,-1
 256 224 l 1,7,-1
 256 96 l 1,8,-1
 288 96 l 1,9,-1
 288 224 l 1,10,-1
 416 224 l 1,11,-1
 416 256 l 1,0,-1
EndSplineSet
EndChar

StartChar: uniE049
Encoding: 57417 57417 76
Width: 512
GlyphClass: 2
Flags: W
LayerCount: 2
Fore
SplineSet
182 223 m 0,0,1
 211 279 211 279 221 304 c 2,2,-1
 226 316 l 1,3,4
 201 414 201 414 210 450 c 0,5,6
 213 462 213 462 231 462 c 2,7,-1
 237 462 l 1,8,-1
 238 462 l 2,9,10
 247 463 247 463 252 455 c 128,-1,11
 257 447 257 447 258 439 c 2,12,-1
 254 410 l 2,13,14
 254 429 254 429 250 440 c 0,15,16
 241 459 241 459 234 460 c 1,17,18
 229 455 229 455 229 449 c 0,19,20
 226 435 226 435 226 423 c 0,21,22
 226 390 226 390 238 348 c 1,23,24
 240 353 240 353 242 361 c 2,25,-1
 254 407 l 1,26,27
 251 353 251 353 248 337 c 0,28,29
 248 336 248 336 247 332 c 128,-1,30
 246 328 246 328 245 327 c 0,31,32
 265 271 265 271 304 235 c 0,33,34
 317 223 317 223 338 211 c 1,35,36
 377 217 377 217 407 217 c 0,37,38
 450 215 450 215 460 205 c 0,39,40
 466 199 466 199 466 191 c 0,41,42
 466 190 466 190 466 187 c 2,43,-1
 465 184 l 2,44,45
 465 192 465 192 444 199 c 0,46,47
 420 206 420 206 360 200 c 1,48,49
 436 163 436 163 458 175 c 1,50,-1
 465 182 l 1,51,52
 463 171 463 171 461 168 c 0,53,54
 457 163 457 163 451 161 c 0,55,56
 434 157 434 157 398 167 c 128,-1,57
 362 177 362 177 328 196 c 1,58,59
 244 184 244 184 169 158 c 1,60,61
 99 36 99 36 61 55 c 2,62,-1
 50 60 l 2,63,64
 45 63 45 63 47 73 c 0,65,66
 53 103 53 103 110 137 c 2,67,-1
 134 150 l 1,68,69
 120 136 120 136 116 134 c 0,70,71
 92 114 92 114 76 92.5 c 128,-1,72
 60 71 60 71 61 61 c 2,73,-1
 61 60 l 1,74,75
 102 66 102 66 182 223 c 0,0,1
199 214 m 1,76,77
 195 206 195 206 186.5 190.5 c 128,-1,78
 178 175 178 175 174 168 c 1,79,80
 225 190 225 190 310 207 c 1,81,82
 298 215 298 215 293 220 c 0,83,84
 258 250 258 250 235 295 c 1,85,86
 220 254 220 254 199 214 c 1,87,-1
 199 214 l 1,76,77
EndSplineSet
EndChar

StartChar: uniE04A
Encoding: 57418 57418 77
Width: 512
GlyphClass: 2
Flags: W
LayerCount: 2
Fore
SplineSet
128 96 m 1,0,-1
 32 96 l 1,1,-1
 32 64 l 1,2,-1
 253 64 l 1,3,-1
 128 210 l 1,4,-1
 128 96 l 1,0,-1
466 415 m 128,-1,6
 447 434 447 434 423 442 c 128,-1,7
 399 450 399 450 384 448 c 2,8,-1
 370 447 l 1,9,-1
 176 252 l 1,10,-1
 295 116 l 1,11,-1
 498 319 l 2,12,13
 499 325 499 325 499.5 335 c 128,-1,14
 500 345 500 345 492.5 370.5 c 128,-1,5
 485 396 485 396 466 415 c 128,-1,6
259 216 m 1,15,-1
 228 251 l 1,16,-1
 385 401 l 1,17,18
 400 392 400 392 420 370 c 1,19,-1
 259 216 l 1,15,-1
EndSplineSet
EndChar

StartChar: uniE04B
Encoding: 57419 57419 78
Width: 512
GlyphClass: 2
Flags: W
LayerCount: 2
Fore
SplineSet
256 480 m 128,-1,1
 163 480 163 480 97.5 414.5 c 128,-1,2
 32 349 32 349 32 256 c 128,-1,3
 32 163 32 163 97.5 97.5 c 128,-1,4
 163 32 163 32 256 32 c 128,-1,5
 349 32 349 32 414.5 97.5 c 128,-1,6
 480 163 480 163 480 256 c 128,-1,7
 480 349 480 349 414.5 414.5 c 128,-1,0
 349 480 349 480 256 480 c 128,-1,1
256 70 m 128,-1,9
 180 70 180 70 125 125 c 128,-1,10
 70 180 70 180 70 256 c 128,-1,11
 70 332 70 332 125 387 c 128,-1,12
 180 442 180 442 256 442 c 1,13,14
 256 307 256 307 259 307 c 2,15,-1
 256 307 l 2,16,17
 235 307 235 307 220 292 c 128,-1,18
 205 277 205 277 205 256 c 128,-1,19
 205 235 205 235 220 220 c 128,-1,20
 235 205 235 205 256 205 c 128,-1,21
 277 205 277 205 292 220 c 128,-1,22
 307 235 307 235 307 256 c 1,23,-1
 435 256 l 1,24,25
 436 265 436 265 439 266 c 0,26,27
 440 267 440 267 441 264 c 128,-1,28
 442 261 442 261 442 256 c 0,29,30
 442 180 442 180 387 125 c 128,-1,8
 332 70 332 70 256 70 c 128,-1,9
EndSplineSet
EndChar

StartChar: uniE04C
Encoding: 57420 57420 79
Width: 512
GlyphClass: 2
Flags: W
LayerCount: 2
Fore
SplineSet
448 288 m 1,0,-1
 320 288 l 1,1,-1
 320 416 l 1,2,-1
 224 416 l 1,3,-1
 224 288 l 1,4,-1
 96 288 l 1,5,-1
 96 192 l 1,6,-1
 224 192 l 1,7,-1
 224 64 l 1,8,-1
 320 64 l 1,9,-1
 320 192 l 1,10,-1
 448 192 l 1,11,-1
 448 288 l 1,0,-1
EndSplineSet
EndChar

StartChar: uniE04D
Encoding: 57421 57421 80
Width: 512
GlyphClass: 2
Flags: W
LayerCount: 2
Fore
SplineSet
288 288 m 1,0,-1
 288 416 l 1,1,-1
 224 416 l 1,2,-1
 224 288 l 1,3,-1
 96 288 l 1,4,-1
 96 224 l 1,5,-1
 224 224 l 1,6,-1
 224 96 l 1,7,-1
 288 96 l 1,8,-1
 288 224 l 1,9,-1
 416 224 l 1,10,-1
 416 288 l 1,11,-1
 288 288 l 1,0,-1
EndSplineSet
EndChar

StartChar: uniE04E
Encoding: 57422 57422 81
Width: 512
GlyphClass: 2
Flags: W
LayerCount: 2
Fore
SplineSet
289 416 m 1,0,-1
 338 367 l 1,1,-1
 227 255 l 1,2,-1
 338 143 l 1,3,-1
 289 94 l 1,4,-1
 128 255 l 1,5,-1
 289 416 l 1,0,-1
EndSplineSet
EndChar

StartChar: uniE04F
Encoding: 57423 57423 82
Width: 512
GlyphClass: 2
Flags: W
LayerCount: 2
Fore
SplineSet
179 314 m 1,0,-1
 134 269 l 1,1,-1
 228 175 l 1,2,-1
 257 142 l 1,3,-1
 490 450 l 1,4,-1
 438 488 l 1,5,-1
 253 241 l 1,6,-1
 179 314 l 1,0,-1
499 288 m 2,7,-1
 440 347 l 1,8,-1
 417 316 l 1,9,-1
 472 261 l 2,10,11
 477 256 477 256 472 251 c 2,12,-1
 261 40 l 2,13,14
 260 38 260 38 256 38 c 128,-1,15
 252 38 252 38 251 40 c 2,16,-1
 40 251 l 2,17,18
 35 256 35 256 40 261 c 2,19,-1
 251 472 l 2,20,21
 252 474 252 474 256 474 c 128,-1,22
 260 474 260 474 261 472 c 2,23,-1
 307 426 l 1,24,-1
 330 457 l 1,25,-1
 288 499 l 2,26,27
 275 512 275 512 256 512 c 128,-1,28
 237 512 237 512 224 499 c 2,29,-1
 13 288 l 2,30,31
 0 274 0 274 0 255.5 c 128,-1,32
 0 237 0 237 13 224 c 2,33,-1
 224 13 l 2,34,35
 237 0 237 0 256 0 c 128,-1,36
 275 0 275 0 288 13 c 2,37,-1
 499 224 l 2,38,39
 512 237 512 237 512 255.5 c 128,-1,40
 512 274 512 274 499 288 c 2,7,-1
EndSplineSet
EndChar

StartChar: uniE050
Encoding: 57424 57424 83
Width: 512
GlyphClass: 2
Flags: W
LayerCount: 2
Fore
SplineSet
188 307 m 1,0,-1
 149 268 l 1,1,-1
 231 185 l 1,2,-1
 257 157 l 1,3,-1
 460 426 l 1,4,-1
 416 459 l 1,5,-1
 253 243 l 1,6,-1
 188 307 l 1,0,-1
468 284 m 2,7,-1
 417 335 l 1,8,-1
 397 309 l 1,9,-1
 445 261 l 2,10,11
 450 256 450 256 445 251 c 2,12,-1
 261 67 l 2,13,14
 259 65 259 65 256 65 c 128,-1,15
 253 65 253 65 251 67 c 2,16,-1
 67 251 l 2,17,18
 62 256 62 256 67 261 c 2,19,-1
 251 445 l 2,20,21
 253 447 253 447 256 447 c 128,-1,22
 259 447 259 447 261 445 c 2,23,-1
 301 405 l 1,24,-1
 321 431 l 1,25,-1
 284 468 l 2,26,27
 272 480 272 480 256 480 c 128,-1,28
 240 480 240 480 228 468 c 2,29,-1
 44 284 l 2,30,31
 32 273 32 273 32 256.5 c 128,-1,32
 32 240 32 240 44 228 c 2,33,-1
 228 44 l 2,34,35
 240 32 240 32 256 32 c 128,-1,36
 272 32 272 32 284 44 c 2,37,-1
 468 228 l 2,38,39
 480 239 480 239 480 256 c 128,-1,40
 480 273 480 273 468 284 c 2,7,-1
EndSplineSet
EndChar

StartChar: uniE051
Encoding: 57425 57425 84
Width: 512
GlyphClass: 2
Flags: W
LayerCount: 2
Fore
SplineSet
208 384 m 2,0,-1
 112 384 l 2,1,2
 96 384 96 384 96 368 c 2,3,-1
 96 272 l 2,4,5
 96 256 96 256 112 256 c 2,6,-1
 192 256 l 1,7,-1
 192 225 l 2,8,9
 192 218 192 218 190 206 c 128,-1,10
 188 194 188 194 176 177 c 128,-1,11
 164 160 164 160 144 160 c 2,12,-1
 128 160 l 1,13,-1
 128 128 l 1,14,-1
 144 128 l 2,15,16
 185 128 185 128 204 159 c 128,-1,17
 223 190 223 190 224 224 c 2,18,-1
 224 368 l 2,19,20
 224 384 224 384 208 384 c 2,0,-1
368 384 m 2,21,-1
 272 384 l 2,22,23
 256 384 256 384 256 368 c 2,24,-1
 256 272 l 2,25,26
 256 256 256 256 272 256 c 2,27,-1
 352 256 l 1,28,-1
 352 225 l 2,29,30
 352 218 352 218 350 206 c 128,-1,31
 348 194 348 194 336 177 c 128,-1,32
 324 160 324 160 304 160 c 2,33,-1
 288 160 l 1,34,-1
 288 128 l 1,35,-1
 304 128 l 2,36,37
 345 128 345 128 364 159 c 128,-1,38
 383 190 383 190 384 224 c 2,39,-1
 384 368 l 2,40,41
 384 384 384 384 368 384 c 2,21,-1
EndSplineSet
EndChar

StartChar: uniE052
Encoding: 57426 57426 85
Width: 512
GlyphClass: 2
Flags: W
LayerCount: 2
Fore
SplineSet
64 512 m 1,0,-1
 64 288 l 2,1,2
 64 257 64 257 84 219.5 c 128,-1,3
 104 182 104 182 132 150 c 128,-1,4
 160 118 160 118 188 90.5 c 128,-1,5
 216 63 216 63 236 48 c 2,6,-1
 256 32 l 1,7,8
 264 38 264 38 277 48.5 c 128,-1,9
 290 59 290 59 323 90 c 128,-1,10
 356 121 356 121 381 150.5 c 128,-1,11
 406 180 406 180 427 218.5 c 128,-1,12
 448 257 448 257 448 288 c 2,13,-1
 448 512 l 1,14,-1
 64 512 l 1,0,-1
416 288 m 2,15,16
 416 246 416 246 367 185 c 128,-1,17
 318 124 318 124 256 73 c 1,18,19
 194 124 194 124 145 185 c 128,-1,20
 96 246 96 246 96 288 c 2,21,-1
 96 480 l 1,22,-1
 416 480 l 1,23,-1
 416 288 l 2,15,16
258 277 m 1,24,-1
 327 207 l 1,25,-1
 350 230 l 1,26,-1
 260 320 l 1,27,-1
 258 318 l 1,28,-1
 256 320 l 1,29,-1
 166 230 l 1,30,-1
 188 207 l 1,31,-1
 258 277 l 1,24,-1
258 405 m 1,32,-1
 327 335 l 1,33,-1
 350 358 l 1,34,-1
 260 448 l 1,35,-1
 258 446 l 1,36,-1
 256 448 l 1,37,-1
 166 358 l 1,38,-1
 188 335 l 1,39,-1
 258 405 l 1,32,-1
EndSplineSet
EndChar

StartChar: uniE053
Encoding: 57427 57427 86
Width: 512
GlyphClass: 2
Flags: W
LayerCount: 2
Fore
SplineSet
96 288 m 1,0,-1
 320 288 l 1,1,-1
 320 224 l 1,2,-1
 96 224 l 1,3,-1
 96 288 l 1,0,-1
96 384 m 1,4,-1
 224 384 l 1,5,-1
 224 320 l 1,6,-1
 96 320 l 1,7,-1
 96 384 l 1,4,-1
96 192 m 1,8,-1
 416 192 l 1,9,-1
 416 128 l 1,10,-1
 96 128 l 1,11,-1
 96 192 l 1,8,-1
EndSplineSet
EndChar

StartChar: uniE054
Encoding: 57428 57428 87
Width: 512
GlyphClass: 2
Flags: W
LayerCount: 2
Fore
SplineSet
96 288 m 1,0,-1
 320 288 l 1,1,-1
 320 224 l 1,2,-1
 96 224 l 1,3,-1
 96 288 l 1,0,-1
96 192 m 1,4,-1
 224 192 l 1,5,-1
 224 128 l 1,6,-1
 96 128 l 1,7,-1
 96 192 l 1,4,-1
96 384 m 1,8,-1
 416 384 l 1,9,-1
 416 320 l 1,10,-1
 96 320 l 1,11,-1
 96 384 l 1,8,-1
EndSplineSet
EndChar

StartChar: uniE055
Encoding: 57429 57429 88
Width: 512
GlyphClass: 2
Flags: W
LayerCount: 2
Fore
SplineSet
416 416 m 1,0,-1
 192 416 l 2,1,2
 160 416 160 416 128 390.5 c 128,-1,3
 96 365 96 365 96 328 c 128,-1,4
 96 291 96 291 128 265.5 c 128,-1,5
 160 240 160 240 192 240 c 1,6,-1
 192 64 l 1,7,-1
 256 64 l 1,8,-1
 256 384 l 1,9,-1
 288 384 l 1,10,-1
 288 64 l 1,11,-1
 352 64 l 1,12,-1
 352 384 l 1,13,-1
 416 384 l 1,14,-1
 416 416 l 1,0,-1
EndSplineSet
EndChar

StartChar: uniE056
Encoding: 57430 57430 89
Width: 512
GlyphClass: 2
Flags: W
LayerCount: 2
Fore
SplineSet
391 296 m 0,0,1
 391 200 391 200 305 144 c 1,2,-1
 366 40 l 1,3,-1
 260 40 l 1,4,-1
 153 227 l 1,5,-1
 153 40 l 1,6,-1
 72 40 l 1,7,-1
 72 472 l 1,8,-1
 213 472 l 2,9,10
 292 472 292 472 341.5 422.5 c 128,-1,11
 391 373 391 373 391 296 c 0,0,1
303 298 m 0,12,13
 303 337 303 337 276.5 364 c 128,-1,14
 250 391 250 391 211 391 c 2,15,-1
 151 391 l 1,16,-1
 259 223 l 1,17,18
 303 253 303 253 303 298 c 0,12,13
450 148 m 128,-1,20
 472 148 472 148 488 132 c 128,-1,21
 504 116 504 116 504 94 c 128,-1,22
 504 72 504 72 488 56 c 128,-1,23
 472 40 472 40 450 40 c 128,-1,24
 428 40 428 40 412 56 c 128,-1,25
 396 72 396 72 396 94 c 128,-1,26
 396 116 396 116 412 132 c 128,-1,19
 428 148 428 148 450 148 c 128,-1,20
EndSplineSet
EndChar

StartChar: uniE057
Encoding: 57431 57431 90
Width: 512
GlyphClass: 2
Flags: WO
LayerCount: 2
Fore
SplineSet
175.418945312 412.697265625 m 5,0,-1
 175.418945312 339.62109375 l 5,1,-1
 262.740234375 222.817382812 l 5,2,3
 295.018554688 228.020507812 295.018554688 228.020507812 316.380859375 254.404296875 c 132,-1,4
 337.743164062 280.787109375 337.743164062 280.787109375 337.743164062 316.034179688 c 4,5,6
 337.743164062 356.426757812 337.743164062 356.426757812 312.3046875 384.5625 c 132,-1,7
 286.866210938 412.697265625 286.866210938 412.697265625 250.955078125 412.697265625 c 6,8,-1
 175.418945312 412.697265625 l 5,0,-1
325.418945312 41.001953125 m 5,9,-1
 111.666992188 324.510742188 l 5,10,-1
 111.666992188 471.961914062 l 5,11,-1
 250.955078125 471.961914062 l 6,12,13
 312.1015625 471.961914062 312.1015625 471.961914062 355.458984375 426.326171875 c 132,-1,14
 398.815429688 380.689453125 398.815429688 380.689453125 398.815429688 316.034179688 c 4,15,16
 398.815429688 267.168945312 398.815429688 267.168945312 372.186523438 226.923828125 c 132,-1,17
 345.557617188 186.677734375 345.557617188 186.677734375 301.849609375 169.881835938 c 5,18,-1
 399.356445312 41.001953125 l 5,19,-1
 325.418945312 41.001953125 l 5,9,-1
111.666992188 241.56640625 m 5,20,-1
 175.68359375 160.514648438 l 5,21,-1
 175.953125 41 l 5,22,-1
 111.666992188 41 l 5,23,-1
 111.666992188 241.56640625 l 5,20,-1
EndSplineSet
EndChar

StartChar: uniE058
Encoding: 57432 57432 91
Width: 512
GlyphClass: 2
Flags: W
LayerCount: 2
Fore
SplineSet
441 189 m 0,0,1
 421 201 421 201 373 221 c 2,2,-1
 369 223 l 2,3,4
 353 234 353 234 334 258 c 1,5,6
 345 284 345 284 345 286 c 0,7,8
 349 288 349 288 349 288 c 2,9,10
 369 300 369 300 371 349 c 1,11,-1
 372 354 l 2,12,13
 373 364 373 364 366 373 c 1,14,15
 379 432 379 432 362 460.5 c 128,-1,16
 345 489 345 489 318 498 c 0,17,18
 282 511 282 511 260 512 c 0,19,20
 238 511 238 511 205 498 c 0,21,22
 178 490 178 490 160.5 461 c 128,-1,23
 143 432 143 432 155 373 c 1,24,25
 149 361 149 361 150 354 c 2,26,-1
 151 349 l 1,27,28
 153 300 153 300 174 288 c 0,29,30
 175 287 175 287 177 286 c 0,31,32
 181 273 181 273 188 258 c 1,33,-1
 188 258 l 1,34,35
 173 239 173 239 153 223 c 1,36,-1
 149 221 l 2,37,38
 103 202 103 202 80 188 c 0,39,40
 34 160 34 160 32 65 c 0,41,42
 32 51 32 51 42 39 c 0,43,44
 55 26 55 26 68 26 c 2,45,-1
 137 26 l 2,46,47
 145 26 145 26 151.5 34 c 128,-1,48
 158 42 158 42 158 51 c 128,-1,49
 158 60 158 60 151.5 68.5 c 128,-1,50
 145 77 145 77 137 77 c 2,51,-1
 75 77 l 1,52,53
 76 98 76 98 84.5 123 c 128,-1,54
 93 148 93 148 105 155 c 0,55,56
 115 161 115 161 170 182 c 1,57,-1
 179 184 l 2,58,59
 179 188 179 188 218 224 c 1,60,61
 236 209 236 209 262 209 c 0,62,63
 287 209 287 209 307 224 c 1,64,65
 342 189 342 189 352 185 c 2,66,-1
 357 183 l 2,67,68
 400 167 400 167 420 155 c 0,69,70
 442 141 442 141 447 77 c 1,71,-1
 390 77 l 2,72,73
 381 77 381 77 375 68.5 c 128,-1,74
 369 60 369 60 369 51 c 128,-1,75
 369 42 369 42 375 34 c 128,-1,76
 381 26 381 26 390 26 c 2,77,-1
 454 26 l 2,78,79
 467 26 467 26 480 39 c 0,80,81
 490 51 490 51 490 67 c 0,82,83
 487 161 487 161 441 189 c 0,0,1
262 251 m 0,84,85
 252 251 252 251 243 257.5 c 128,-1,86
 234 264 234 264 230 270 c 2,87,-1
 226 277 l 2,88,89
 222 285 222 285 215 305 c 0,90,91
 213 318 213 318 202 323 c 0,92,93
 200 324 200 324 196 324 c 0,94,95
 193 335 193 335 193 352 c 1,96,-1
 192 354 l 1,97,98
 200 368 200 368 197 382 c 0,99,100
 183 447 183 447 220 459 c 0,101,102
 251 469 251 469 260 470 c 0,103,104
 279 469 279 469 304 458 c 0,105,106
 339 447 339 447 325 382 c 0,107,108
 322 368 322 368 329 354 c 1,109,-1
 329 352 l 2,110,111
 329 333 329 333 325 324 c 0,112,113
 324 324 324 324 323 323.5 c 128,-1,114
 322 323 322 323 321 323 c 0,115,116
 309 318 309 318 307 305 c 0,117,118
 302 291 302 291 296 277 c 2,119,-1
 295 275 l 2,120,121
 295 274 295 274 294 274 c 1,122,123
 294 273 294 273 290.5 267.5 c 128,-1,124
 287 262 287 262 279 256.5 c 128,-1,125
 271 251 271 251 262 251 c 0,84,85
371 128 m 1,126,-1
 288 128 l 1,127,-1
 263 203 l 1,128,-1
 238 128 l 1,129,-1
 155 128 l 1,130,-1
 222 78 l 1,131,-1
 196 0 l 1,132,-1
 263 47 l 1,133,-1
 330 0 l 1,134,-1
 304 78 l 1,135,-1
 371 128 l 1,126,-1
EndSplineSet
EndChar

StartChar: uniE059
Encoding: 57433 57433 92
Width: 512
GlyphClass: 2
Flags: W
LayerCount: 2
Fore
SplineSet
341 480 m 1,0,-1
 57 480 l 2,1,2
 46 480 46 480 39 473 c 128,-1,3
 32 466 32 466 32 455 c 2,4,-1
 32 57 l 2,5,6
 32 46 32 46 39 39 c 128,-1,7
 46 32 46 32 57 32 c 2,8,-1
 455 32 l 2,9,10
 466 32 466 32 473 39 c 128,-1,11
 480 46 480 46 480 57 c 2,12,-1
 480 368 l 1,13,-1
 341 480 l 1,0,-1
320 64 m 1,14,-1
 96 64 l 1,15,-1
 96 192 l 1,16,-1
 320 192 l 1,17,-1
 320 64 l 1,14,-1
320 352 m 1,18,-1
 320 320 l 1,19,-1
 96 320 l 1,20,-1
 96 448 l 1,21,-1
 224 448 l 1,22,-1
 224 352 l 1,23,-1
 288 352 l 1,24,-1
 288 448 l 1,25,-1
 320 448 l 1,26,-1
 320 352 l 1,18,-1
EndSplineSet
EndChar

StartChar: uniE05A
Encoding: 57434 57434 93
Width: 512
GlyphClass: 2
Flags: W
LayerCount: 2
Fore
SplineSet
331 448 m 1,0,-1
 89 448 l 2,1,2
 78 448 78 448 71 441 c 128,-1,3
 64 434 64 434 64 423 c 2,4,-1
 64 89 l 2,5,6
 64 78 64 78 71 71 c 128,-1,7
 78 64 78 64 89 64 c 2,8,-1
 423 64 l 2,9,10
 434 64 434 64 441 71 c 128,-1,11
 448 78 448 78 448 89 c 2,12,-1
 448 352 l 1,13,-1
 331 448 l 1,0,-1
320 96 m 1,14,-1
 128 96 l 1,15,-1
 128 192 l 1,16,-1
 320 192 l 1,17,-1
 320 96 l 1,14,-1
320 320 m 1,18,-1
 320 288 l 1,19,-1
 128 288 l 1,20,-1
 128 416 l 1,21,-1
 224 416 l 1,22,-1
 224 320 l 1,23,-1
 288 320 l 1,24,-1
 288 416 l 1,25,-1
 320 416 l 1,26,-1
 320 320 l 1,18,-1
EndSplineSet
EndChar

StartChar: uniE05B
Encoding: 57435 57435 94
Width: 512
GlyphClass: 2
Flags: W
LayerCount: 2
Fore
SplineSet
448 84 m 2,0,1
 448 76 448 76 442 70 c 128,-1,2
 436 64 436 64 428 64 c 2,3,-1
 88 64 l 2,4,5
 78 64 78 64 71 71 c 128,-1,6
 64 78 64 78 64 88 c 2,7,-1
 64 420 l 2,8,9
 64 432 64 432 72 440 c 128,-1,10
 80 448 80 448 92 448 c 2,11,-1
 320 448 l 1,12,-1
 448 352 l 1,13,-1
 448 84 l 2,0,1
416 96 m 1,14,-1
 416 337 l 1,15,-1
 320 412 l 1,16,-1
 320 308 l 2,17,18
 320 300 320 300 314 294 c 128,-1,19
 308 288 308 288 300 288 c 2,20,-1
 152 288 l 2,21,22
 142 288 142 288 135 295 c 128,-1,23
 128 302 128 302 128 312 c 2,24,-1
 128 416 l 1,25,-1
 96 416 l 1,26,-1
 96 96 l 1,27,-1
 128 96 l 1,28,-1
 128 196 l 2,29,30
 128 208 128 208 136 216 c 128,-1,31
 144 224 144 224 156 224 c 2,32,-1
 360 224 l 2,33,34
 370 224 370 224 377 217 c 128,-1,35
 384 210 384 210 384 200 c 2,36,-1
 384 96 l 1,37,-1
 416 96 l 1,14,-1
352 96 m 1,38,-1
 352 192 l 1,39,-1
 160 192 l 1,40,-1
 160 96 l 1,41,-1
 352 96 l 1,38,-1
288 408 m 2,42,43
 288 416 288 416 280 416 c 2,44,-1
 232 416 l 2,45,46
 224 416 224 416 224 408 c 2,47,-1
 224 328 l 2,48,49
 224 320 224 320 232 320 c 2,50,-1
 280 320 l 2,51,52
 288 320 288 320 288 328 c 2,53,-1
 288 408 l 2,42,43
EndSplineSet
EndChar

StartChar: uniE05C
Encoding: 57436 57436 95
Width: 512
GlyphClass: 2
Flags: W
LayerCount: 2
Fore
SplineSet
341 480 m 1,0,-1
 57 480 l 2,1,2
 46 480 46 480 39 473 c 128,-1,3
 32 466 32 466 32 455 c 2,4,-1
 32 57 l 2,5,6
 32 46 32 46 39 39 c 128,-1,7
 46 32 46 32 57 32 c 2,8,-1
 455 32 l 2,9,10
 466 32 466 32 473 39 c 128,-1,11
 480 46 480 46 480 57 c 2,12,-1
 480 368 l 1,13,-1
 341 480 l 1,0,-1
320 352 m 1,14,-1
 320 320 l 1,15,-1
 96 320 l 1,16,-1
 96 448 l 1,17,-1
 224 448 l 1,18,-1
 224 352 l 1,19,-1
 288 352 l 1,20,-1
 288 448 l 1,21,-1
 320 448 l 1,22,-1
 320 352 l 1,14,-1
EndSplineSet
EndChar

StartChar: uniE05D
Encoding: 57437 57437 96
Width: 512
GlyphClass: 2
Flags: W
LayerCount: 2
Fore
SplineSet
331 448 m 1,0,-1
 89 448 l 2,1,2
 78 448 78 448 71 441 c 128,-1,3
 64 434 64 434 64 423 c 2,4,-1
 64 89 l 2,5,6
 64 78 64 78 71 71 c 128,-1,7
 78 64 78 64 89 64 c 2,8,-1
 423 64 l 2,9,10
 434 64 434 64 441 71 c 128,-1,11
 448 78 448 78 448 89 c 2,12,-1
 448 352 l 1,13,-1
 331 448 l 1,0,-1
320 320 m 1,14,-1
 320 288 l 1,15,-1
 128 288 l 1,16,-1
 128 416 l 1,17,-1
 224 416 l 1,18,-1
 224 320 l 1,19,-1
 288 320 l 1,20,-1
 288 416 l 1,21,-1
 320 416 l 1,22,-1
 320 320 l 1,14,-1
EndSplineSet
EndChar

StartChar: uniE05E
Encoding: 57438 57438 97
Width: 512
GlyphClass: 2
Flags: W
LayerCount: 2
Fore
SplineSet
448 84 m 2,0,1
 448 76 448 76 442 70 c 128,-1,2
 436 64 436 64 428 64 c 2,3,-1
 88 64 l 2,4,5
 78 64 78 64 71 71 c 128,-1,6
 64 78 64 78 64 88 c 2,7,-1
 64 420 l 2,8,9
 64 432 64 432 72 440 c 128,-1,10
 80 448 80 448 92 448 c 2,11,-1
 320 448 l 1,12,-1
 448 352 l 1,13,-1
 448 84 l 2,0,1
416 96 m 1,14,-1
 416 337 l 1,15,-1
 320 412 l 1,16,-1
 320 308 l 2,17,18
 320 300 320 300 314 294 c 128,-1,19
 308 288 308 288 300 288 c 2,20,-1
 152 288 l 2,21,22
 142 288 142 288 135 295 c 128,-1,23
 128 302 128 302 128 312 c 2,24,-1
 128 416 l 1,25,-1
 96 416 l 1,26,-1
 96 96 l 1,27,-1
 416 96 l 1,14,-1
288 408 m 2,28,29
 288 416 288 416 280 416 c 2,30,-1
 232 416 l 2,31,32
 224 416 224 416 224 408 c 2,33,-1
 224 328 l 2,34,35
 224 320 224 320 232 320 c 2,36,-1
 280 320 l 2,37,38
 288 320 288 320 288 328 c 2,39,-1
 288 408 l 2,28,29
EndSplineSet
EndChar

StartChar: uniE05F
Encoding: 57439 57439 98
Width: 512
GlyphClass: 2
Flags: W
LayerCount: 2
Fore
SplineSet
91 494 m 1,0,-1
 128 494 l 1,1,-1
 128 366 l 1,2,-1
 91 366 l 1,3,-1
 91 494 l 1,0,-1
91 165 m 1,4,-1
 128 165 l 1,5,-1
 128 37 l 1,6,-1
 91 37 l 1,7,-1
 91 165 l 1,4,-1
146 318 m 2,8,9
 146 330 146 330 137.5 338.5 c 128,-1,10
 129 347 129 347 117 347 c 2,11,-1
 103 347 l 2,12,13
 90 347 90 347 81.5 338.5 c 128,-1,14
 73 330 73 330 73 318 c 2,15,-1
 73 212 l 2,16,17
 73 200 73 200 81.5 191.5 c 128,-1,18
 90 183 90 183 103 183 c 2,19,-1
 117 183 l 2,20,21
 129 183 129 183 137.5 191.5 c 128,-1,22
 146 200 146 200 146 212 c 2,23,-1
 146 318 l 2,8,9
384 494 m 1,24,-1
 421 494 l 1,25,-1
 421 293 l 1,26,-1
 384 293 l 1,27,-1
 384 494 l 1,24,-1
384 91 m 1,28,-1
 421 91 l 1,29,-1
 421 37 l 1,30,-1
 384 37 l 1,31,-1
 384 91 l 1,28,-1
439 246 m 2,32,33
 439 257 439 257 430.5 265.5 c 128,-1,34
 422 274 422 274 410 274 c 2,35,-1
 394 274 l 2,36,37
 383 274 383 274 374.5 265.5 c 128,-1,38
 366 257 366 257 366 246 c 2,39,-1
 366 138 l 2,40,41
 366 127 366 127 374.5 118.5 c 128,-1,42
 383 110 383 110 394 110 c 2,43,-1
 410 110 l 2,44,45
 422 110 422 110 430.5 118.5 c 128,-1,46
 439 127 439 127 439 138 c 2,47,-1
 439 246 l 2,32,33
238 494 m 1,48,-1
 274 494 l 1,49,-1
 274 457 l 1,50,-1
 238 457 l 1,51,-1
 238 494 l 1,48,-1
238 256 m 1,52,-1
 274 256 l 1,53,-1
 274 37 l 1,54,-1
 238 37 l 1,55,-1
 238 256 l 1,52,-1
293 411 m 2,56,57
 293 422 293 422 284.5 430.5 c 128,-1,58
 276 439 276 439 264 439 c 2,59,-1
 248 439 l 2,60,61
 236 439 236 439 227.5 430.5 c 128,-1,62
 219 422 219 422 219 411 c 2,63,-1
 219 303 l 2,64,65
 219 291 219 291 227.5 282.5 c 128,-1,66
 236 274 236 274 248 274 c 2,67,-1
 264 274 l 2,68,69
 276 274 276 274 284.5 282.5 c 128,-1,70
 293 291 293 291 293 303 c 2,71,-1
 293 411 l 2,56,57
EndSplineSet
EndChar

StartChar: uniE060
Encoding: 57440 57440 99
Width: 512
GlyphClass: 2
Flags: W
LayerCount: 2
Fore
SplineSet
77 3 m 0,0,1
 60 3 60 3 45 16 c 2,2,-1
 16 45 l 2,3,4
 3 60 3 60 3 77 c 0,5,6
 3 95 3 95 16 110 c 2,7,-1
 264 350 l 2,8,9
 264 352 264 352 263 358 c 128,-1,10
 262 364 262 364 262 366 c 0,11,12
 253 419 253 419 287 453 c 0,13,14
 349 515 349 515 418 512 c 0,15,16
 429 512 429 512 434 500 c 0,17,18
 437 491 437 491 432 483 c 2,19,-1
 376 398 l 1,20,-1
 398 376 l 1,21,-1
 483 432 l 2,22,23
 488 435 488 435 494 435 c 0,24,25
 510 435 510 435 512 418 c 0,26,27
 515 349 515 349 453 287 c 0,28,29
 426 260 426 260 391 260 c 0,30,31
 382 260 382 260 366 262 c 0,32,33
 363 263 363 263 358 263.5 c 128,-1,34
 353 264 353 264 350 264 c 2,35,-1
 110 16 l 2,36,37
 95 3 95 3 77 3 c 0,0,1
395 481 m 1,38,39
 355 476 355 476 308 432 c 0,40,41
 293 416 293 416 290 401 c 128,-1,42
 287 386 287 386 291 370 c 0,43,44
 294 358 294 358 294 345 c 2,45,-1
 294 338 l 1,46,-1
 37 88 l 2,47,48
 33 85 33 85 33 77 c 0,49,50
 33 70 33 70 37 66 c 2,51,-1
 66 37 l 2,52,53
 78 26 78 26 89 37 c 2,54,-1
 338 294 l 1,55,-1
 345 294 l 2,56,57
 358 294 358 294 370 291 c 0,58,59
 384 289 384 289 391 289 c 0,60,61
 412 289 412 289 432 308 c 0,62,63
 476 355 476 355 481 395 c 1,64,-1
 394 337 l 1,65,-1
 338 394 l 1,66,-1
 395 481 l 1,38,39
496 94 m 2,67,-1
 323 270 l 1,68,-1
 243 189 l 1,69,-1
 418 16 l 2,70,71
 433 0 433 0 456 0 c 128,-1,72
 479 0 479 0 495 16 c 2,73,-1
 496 17 l 2,74,75
 512 33 512 33 512 55.5 c 128,-1,76
 512 78 512 78 496 94 c 2,67,-1
215 271 m 1,77,-1
 243 296 l 1,78,-1
 94 443 l 1,79,-1
 90 464 l 1,80,-1
 39 511 l 1,81,-1
 0 472 l 1,82,-1
 47 421 l 1,83,-1
 64 420 l 1,84,-1
 215 271 l 1,77,-1
EndSplineSet
EndChar

StartChar: uniE061
Encoding: 57441 57441 100
Width: 512
GlyphClass: 2
Flags: W
LayerCount: 2
Fore
SplineSet
452 380 m 0,0,1
 476 382 476 382 488 382 c 0,2,3
 492 383 492 383 495 378 c 0,4,5
 498 371 498 371 503 358 c 128,-1,6
 508 345 508 345 511 339 c 0,7,8
 514 335 514 335 509 330 c 0,9,10
 507 328 507 328 456 283 c 0,11,12
 453 280 453 280 453 274 c 2,13,-1
 453 238 l 2,14,15
 453 232 453 232 456 229 c 0,16,17
 507 184 507 184 509 182 c 0,18,19
 513 178 513 178 511 173 c 0,20,21
 508 167 508 167 503 154 c 128,-1,22
 498 141 498 141 495 134 c 0,23,24
 492 129 492 129 488 130 c 0,25,26
 440 132 440 132 415 134 c 1,27,-1
 409 131 l 1,28,29
 391 113 391 113 382 103 c 0,30,31
 379 102 379 102 379 96 c 2,32,-1
 382 24 l 2,33,34
 382 20 382 20 379 18 c 0,35,36
 372 15 372 15 358.5 9.5 c 128,-1,37
 345 4 345 4 338 1 c 0,38,39
 334 -2 334 -2 331 3 c 0,40,41
 315 20 315 20 283 56 c 0,42,43
 279 60 279 60 273 59 c 2,44,-1
 239 59 l 2,45,46
 233 60 233 60 229 55 c 0,47,48
 197 21 197 21 182 3 c 0,49,50
 178 -1 178 -1 173 1 c 0,51,52
 160 6 160 6 134 18 c 0,53,54
 129 19 129 19 130 25 c 0,55,56
 132 73 132 73 134 97 c 0,57,58
 134 100 134 100 131 103 c 2,59,-1
 103 131 l 2,60,61
 101 133 101 133 96 133 c 2,62,-1
 24 130 l 2,63,64
 20 130 20 130 18 133 c 0,65,66
 6 161 6 161 1 174 c 0,67,68
 -2 178 -2 178 3 181 c 0,69,70
 20 197 20 197 56 229 c 0,71,72
 60 233 60 233 59 238 c 2,73,-1
 59 274 l 2,74,75
 60 279 60 279 56 283 c 0,76,77
 47 291 47 291 29.5 307 c 128,-1,78
 12 323 12 323 3 331 c 0,79,80
 -2 334 -2 334 1 338 c 0,81,82
 4 346 4 346 9.5 359.5 c 128,-1,83
 15 373 15 373 17 378 c 0,84,85
 20 383 20 383 24 382 c 0,86,87
 49 381 49 381 97 379 c 0,88,89
 101 379 101 379 103 381 c 2,90,-1
 131 409 l 2,91,92
 134 414 134 414 133 415 c 0,93,94
 132 427 132 427 131 451.5 c 128,-1,95
 130 476 130 476 130 488 c 0,96,97
 130 491 130 491 133 494 c 0,98,99
 166 508 166 508 174 511 c 0,100,101
 178 514 178 514 181 509 c 0,102,103
 213 475 213 475 228 457 c 0,104,105
 232 453 232 453 239 453 c 2,106,-1
 274 453 l 2,107,108
 279 452 279 452 283 456 c 0,109,110
 291 465 291 465 307 482.5 c 128,-1,111
 323 500 323 500 331 509 c 0,112,113
 334 514 334 514 338 511 c 0,114,115
 356 504 356 504 379 494 c 0,116,117
 382 492 382 492 382 488 c 2,118,-1
 379 416 l 2,119,120
 379 413 379 413 381 409 c 0,121,122
 399 391 399 391 409 382 c 0,123,124
 412 379 412 379 416 379 c 0,125,126
 422 379 422 379 434 379.5 c 128,-1,127
 446 380 446 380 452 380 c 0,0,1
256 395 m 128,-1,129
 199 395 199 395 158 354 c 128,-1,130
 117 313 117 313 117 256 c 128,-1,131
 117 199 117 199 157.5 158.5 c 128,-1,132
 198 118 198 118 256 117 c 0,133,134
 313 116 313 116 354 157 c 128,-1,135
 395 198 395 198 395 256 c 0,136,137
 395 313 395 313 354 354 c 128,-1,128
 313 395 313 395 256 395 c 128,-1,129
256 321 m 0,138,139
 283 320 283 320 302 301 c 128,-1,140
 321 282 321 282 320 256 c 0,141,142
 320 229 320 229 301 210.5 c 128,-1,143
 282 192 282 192 256 192 c 0,144,145
 229 192 229 192 210 211 c 128,-1,146
 191 230 191 230 192 256 c 0,147,148
 192 283 192 283 211 302 c 128,-1,149
 230 321 230 321 256 321 c 0,138,139
EndSplineSet
EndChar

StartChar: uniE062
Encoding: 57442 57442 101
Width: 512
GlyphClass: 2
Flags: W
LayerCount: 2
Fore
SplineSet
213 330 m 0,0,1
 212 330 212 330 212 330 c 1,2,-1
 210 331 l 2,3,4
 208 331 208 331 206 329 c 0,5,6
 204 325 204 325 204 323 c 2,7,-1
 204 322 l 1,8,-1
 201 237 l 1,9,-1
 202 205 l 1,10,-1
 204 175 l 2,11,12
 204 166 204 166 210 166 c 0,13,14
 217 166 217 166 217 175 c 2,15,-1
 219 237 l 1,16,-1
 217 323 l 2,17,18
 217 326 217 326 213 330 c 0,0,1
177 310 m 0,19,20
 176 310 176 310 176 310 c 1,21,-1
 174 311 l 2,22,23
 172 311 172 311 170 309 c 0,24,25
 167 306 167 306 167 302 c 2,26,-1
 165 237 l 1,27,-1
 166 205 l 1,28,-1
 167 175 l 2,29,30
 167 166 167 166 174 166 c 0,31,32
 180 166 180 166 180 175 c 2,33,-1
 183 237 l 1,34,-1
 180 302 l 2,35,36
 180 307 180 307 177 310 c 0,19,20
141 279 m 0,37,38
 140 280 140 280 138 280 c 128,-1,39
 136 280 136 280 134 278 c 0,40,41
 131 276 131 276 131 272 c 2,42,-1
 131 271 l 1,43,-1
 129 234 l 1,44,-1
 130 203 l 1,45,-1
 131 172 l 2,46,47
 131 164 131 164 138 164 c 0,48,49
 144 164 144 164 144 172 c 2,50,-1
 147 234 l 1,51,-1
 144 272 l 2,52,53
 144 278 144 278 141 279 c 0,37,38
104 291 m 2,54,-1
 102 292 l 2,55,56
 101 292 101 292 100 292 c 2,57,-1
 96 290 l 2,58,59
 94 286 94 286 94 283 c 2,60,-1
 91 255 l 1,61,-1
 93 205 l 1,62,-1
 94 175 l 2,63,64
 94 166 94 166 100 166 c 0,65,66
 107 166 107 166 107 175 c 2,67,-1
 110 255 l 1,68,-1
 107 284 l 2,69,70
 107 288 107 288 104 291 c 2,54,-1
67 255 m 0,71,72
 66 256 66 256 64 256 c 128,-1,73
 62 256 62 256 60 254 c 2,74,-1
 57 248 l 1,75,-1
 57 247 l 1,76,-1
 55 206 l 1,77,-1
 56 194 l 1,78,-1
 57 189 l 2,79,80
 59 181 59 181 64 181 c 0,81,82
 70 181 70 181 70 189 c 2,83,-1
 73 206 l 1,84,-1
 70 248 l 2,85,86
 70 252 70 252 67 255 c 0,71,72
407 264 m 0,87,88
 400 264 400 264 388 260 c 1,89,90
 385 295 385 295 360 320.5 c 128,-1,91
 335 346 335 346 301 346 c 0,92,93
 273 346 273 346 246 334 c 0,94,95
 241 332 241 332 241 328 c 2,96,-1
 241 170 l 2,97,98
 241 165 241 165 246 165 c 2,99,-1
 407 165 l 2,100,101
 428 165 428 165 442.5 179.5 c 128,-1,102
 457 194 457 194 457 214 c 0,103,104
 457 235 457 235 442.5 249.5 c 128,-1,105
 428 264 428 264 407 264 c 0,87,88
EndSplineSet
EndChar

StartChar: uniE063
Encoding: 57443 57443 102
Width: 512
GlyphClass: 2
Flags: W
LayerCount: 2
Fore
SplineSet
32 416 m 1,0,-1
 96 416 l 1,1,-1
 96 96 l 1,2,-1
 32 96 l 1,3,-1
 32 416 l 1,0,-1
416 416 m 1,4,-1
 480 416 l 1,5,-1
 480 96 l 1,6,-1
 416 96 l 1,7,-1
 416 416 l 1,4,-1
224 160 m 1,8,-1
 224 352 l 1,9,-1
 128 256 l 1,10,-1
 224 160 l 1,8,-1
288 160 m 1,11,-1
 384 256 l 1,12,-1
 288 352 l 1,13,-1
 288 160 l 1,11,-1
EndSplineSet
EndChar

StartChar: uniE065
Encoding: 57445 57445 103
Width: 512
GlyphClass: 2
Flags: W
LayerCount: 2
Fore
SplineSet
384 256 m 128,-1,1
 384 242 384 242 375 233 c 128,-1,2
 366 224 366 224 352 224 c 128,-1,3
 338 224 338 224 329 233 c 128,-1,4
 320 242 320 242 320 256 c 128,-1,5
 320 270 320 270 329 279 c 128,-1,6
 338 288 338 288 352 288 c 128,-1,7
 366 288 366 288 375 279 c 128,-1,0
 384 270 384 270 384 256 c 128,-1,1
348 436 m 0,8,9
 325 436 325 436 304 430 c 1,10,11
 283 436 283 436 260 436 c 0,12,13
 236 436 236 436 212 428 c 1,14,15
 188 436 188 436 164 436 c 0,16,17
 96 436 96 436 48 383.5 c 128,-1,18
 0 331 0 331 0 256 c 128,-1,19
 0 181 0 181 48 128.5 c 128,-1,20
 96 76 96 76 164 76 c 0,21,22
 188 76 188 76 212 84 c 1,23,24
 236 76 236 76 260 76 c 0,25,26
 283 76 283 76 304 82 c 1,27,28
 325 76 325 76 348 76 c 0,29,30
 416 76 416 76 464 128.5 c 128,-1,31
 512 181 512 181 512 256 c 128,-1,32
 512 331 512 331 464 383.5 c 128,-1,33
 416 436 416 436 348 436 c 0,8,9
164 109 m 2,34,35
 110 109 110 109 72 152 c 128,-1,36
 34 195 34 195 34 256 c 128,-1,37
 34 317 34 317 72 360 c 128,-1,38
 110 403 110 403 164 403 c 2,39,-1
 165 403 l 1,40,41
 96 349 96 349 96 256 c 128,-1,42
 96 163 96 163 165 109 c 1,43,-1
 164 109 l 2,34,35
212 120 m 1,44,45
 175 136 175 136 152.5 173 c 128,-1,46
 130 210 130 210 130 256 c 128,-1,47
 130 302 130 302 152.5 339 c 128,-1,48
 175 376 175 376 212 392 c 1,49,50
 224 387 224 387 230 382 c 1,51,52
 184 330 184 330 184 256 c 128,-1,53
 184 182 184 182 230 130 c 1,54,55
 224 125 224 125 212 120 c 1,44,45
348 109 m 0,56,57
 308 109 308 109 275.5 133.5 c 128,-1,58
 243 158 243 158 228 198 c 1,59,-1
 228 199 l 1,60,61
 222 212 222 212 221 223 c 0,62,63
 221 224 221 224 220 226 c 0,64,65
 217 241 217 241 217 256 c 128,-1,66
 217 271 217 271 220 286 c 2,67,-1
 220 287 l 2,68,69
 221 288 221 288 221 289 c 0,70,71
 222 300 222 300 228 313 c 1,72,-1
 228 314 l 1,73,74
 243 354 243 354 275.5 378.5 c 128,-1,75
 308 403 308 403 348 403 c 0,76,77
 402 403 402 403 440 360 c 128,-1,78
 478 317 478 317 478 256 c 128,-1,79
 478 195 478 195 440 152 c 128,-1,80
 402 109 402 109 348 109 c 0,56,57
EndSplineSet
EndChar

StartChar: uniE066
Encoding: 57446 57446 104
Width: 512
GlyphClass: 2
Flags: W
LayerCount: 2
Fore
SplineSet
256 503 m 1,0,-1
 305 352 l 1,1,-1
 464 352 l 1,2,-1
 335 264 l 1,3,-1
 384 116 l 1,4,-1
 256 211 l 1,5,-1
 128 118 l 1,6,-1
 177 264 l 1,7,-1
 48 352 l 1,8,-1
 207 352 l 1,9,-1
 256 503 l 1,0,-1
EndSplineSet
EndChar

StartChar: uniE067
Encoding: 57447 57447 105
Width: 512
GlyphClass: 2
Flags: W
LayerCount: 2
Fore
SplineSet
32 64 m 1,0,-1
 480 64 l 1,1,-1
 480 32 l 1,2,-1
 32 32 l 1,3,-1
 32 64 l 1,0,-1
32 192 m 1,4,-1
 96 192 l 1,5,-1
 96 96 l 1,6,-1
 32 96 l 1,7,-1
 32 192 l 1,4,-1
128 288 m 1,8,-1
 192 288 l 1,9,-1
 192 96 l 1,10,-1
 128 96 l 1,11,-1
 128 288 l 1,8,-1
224 416 m 1,12,-1
 288 416 l 1,13,-1
 288 96 l 1,14,-1
 224 96 l 1,15,-1
 224 416 l 1,12,-1
320 352 m 1,16,-1
 384 352 l 1,17,-1
 384 96 l 1,18,-1
 320 96 l 1,19,-1
 320 352 l 1,16,-1
416 448 m 1,20,-1
 480 448 l 1,21,-1
 480 96 l 1,22,-1
 416 96 l 1,23,-1
 416 448 l 1,20,-1
EndSplineSet
EndChar

StartChar: uniE068
Encoding: 57448 57448 106
Width: 512
GlyphClass: 2
Flags: W
LayerCount: 2
Fore
SplineSet
397 427 m 1,0,-1
 236 205 l 1,1,-1
 139 304 l 1,2,-1
 85 248 l 1,3,-1
 244 84 l 1,4,-1
 459 380 l 1,5,-1
 397 427 l 1,0,-1
EndSplineSet
EndChar

StartChar: uniE069
Encoding: 57449 57449 107
Width: 512
GlyphClass: 2
Flags: W
LayerCount: 2
Fore
SplineSet
388 419 m 1,0,-1
 438 381 l 1,1,-1
 226 95 l 1,2,-1
 74 249 l 1,3,-1
 118 295 l 1,4,-1
 219 193 l 1,5,-1
 388 419 l 1,0,-1
384 445 m 1,6,-1
 373 430 l 1,7,-1
 217 220 l 1,8,-1
 131 307 l 1,9,-1
 118 321 l 1,10,-1
 105 307 l 1,11,-1
 61 262 l 1,12,-1
 48 249 l 1,13,-1
 61 236 l 1,14,-1
 213 82 l 1,15,-1
 228 67 l 1,16,-1
 241 84 l 1,17,-1
 453 370 l 1,18,-1
 464 385 l 1,19,-1
 450 395 l 1,20,-1
 399 434 l 1,21,-1
 384 445 l 1,6,-1
EndSplineSet
EndChar

StartChar: uniE06A
Encoding: 57450 57450 108
Width: 512
GlyphClass: 2
Flags: W
LayerCount: 2
Fore
SplineSet
288 96 m 1,0,-1
 288 128 l 1,1,-1
 128 128 l 1,2,-1
 128 290 l 1,3,4
 169 295 169 295 196.5 326.5 c 128,-1,5
 224 358 224 358 224 400 c 0,6,7
 224 446 224 446 191 479 c 128,-1,8
 158 512 158 512 112 512 c 128,-1,9
 66 512 66 512 33 479 c 128,-1,10
 0 446 0 446 0 400 c 0,11,12
 0 358 0 358 27.5 326.5 c 128,-1,13
 55 295 55 295 96 290 c 1,14,-1
 96 96 l 1,15,-1
 288 96 l 1,0,-1
512 199 m 1,16,-1
 487 224 l 1,17,-1
 400 137 l 1,18,-1
 313 224 l 1,19,-1
 288 199 l 1,20,-1
 375 112 l 1,21,-1
 288 25 l 1,22,-1
 313 0 l 1,23,-1
 400 87 l 1,24,-1
 487 0 l 1,25,-1
 512 25 l 1,26,-1
 425 112 l 1,27,-1
 512 199 l 1,16,-1
EndSplineSet
EndChar

StartChar: uniE06B
Encoding: 57451 57451 109
Width: 512
GlyphClass: 2
Flags: W
LayerCount: 2
Fore
SplineSet
288 96 m 1,0,-1
 288 128 l 1,1,-1
 160 128 l 1,2,-1
 160 258 l 1,3,4
 201 263 201 263 228.5 294.5 c 128,-1,5
 256 326 256 326 256 368 c 0,6,7
 256 414 256 414 223 447 c 128,-1,8
 190 480 190 480 144 480 c 128,-1,9
 98 480 98 480 65 447 c 128,-1,10
 32 414 32 414 32 368 c 0,11,12
 32 326 32 326 59.5 294.5 c 128,-1,13
 87 263 87 263 128 258 c 1,14,-1
 128 96 l 1,15,-1
 288 96 l 1,0,-1
512 199 m 1,16,-1
 487 224 l 1,17,-1
 400 137 l 1,18,-1
 313 224 l 1,19,-1
 288 199 l 1,20,-1
 375 112 l 1,21,-1
 288 25 l 1,22,-1
 313 0 l 1,23,-1
 400 87 l 1,24,-1
 487 0 l 1,25,-1
 512 25 l 1,26,-1
 425 112 l 1,27,-1
 512 199 l 1,16,-1
EndSplineSet
EndChar

StartChar: uniE06C
Encoding: 57452 57452 110
Width: 512
GlyphClass: 2
Flags: W
LayerCount: 2
Fore
SplineSet
448 256 m 1,0,-1
 325 256 l 1,1,2
 308 272 308 272 277 284 c 0,3,4
 243 298 243 298 230 310 c 128,-1,5
 217 322 217 322 217 341 c 0,6,7
 217 358 217 358 230.5 370 c 128,-1,8
 244 382 244 382 269 382 c 0,9,10
 303 382 303 382 332 366 c 1,11,-1
 346 417 l 1,12,13
 314 434 314 434 270 434 c 0,14,15
 220 434 220 434 189.5 406 c 128,-1,16
 159 378 159 378 159 335 c 0,17,18
 159 286 159 286 202 256 c 1,19,-1
 64 256 l 1,20,-1
 64 224 l 1,21,-1
 266 224 l 1,22,23
 300 206 300 206 300 177 c 0,24,25
 300 156 300 156 284.5 143 c 128,-1,26
 269 130 269 130 242 130 c 0,27,28
 201 130 201 130 166 152 c 1,29,-1
 154 100 l 1,30,31
 185 78 185 78 239 78 c 0,32,33
 297 78 297 78 327.5 107.5 c 128,-1,34
 358 137 358 137 358 182 c 0,35,36
 358 205 358 205 350 224 c 1,37,-1
 448 224 l 1,38,-1
 448 256 l 1,0,-1
EndSplineSet
EndChar

StartChar: uniE06D
Encoding: 57453 57453 111
Width: 512
GlyphClass: 2
Flags: W
LayerCount: 2
Fore
SplineSet
26 486 m 1,0,-1
 26 205 l 1,1,-1
 461 205 l 1,2,-1
 461 486 l 1,3,-1
 26 486 l 1,0,-1
233 352 m 2,4,-1
 128 435 l 1,5,-1
 358 435 l 1,6,-1
 250 353 l 2,7,8
 241 346 241 346 233 352 c 2,4,-1
77 256 m 1,9,-1
 77 429 l 1,10,-1
 241 303 l 1,11,-1
 410 429 l 1,12,-1
 410 256 l 1,13,-1
 77 256 l 1,9,-1
461 26 m 1,14,-1
 333 26 l 1,15,16
 336 35 336 35 341.5 47.5 c 128,-1,17
 347 60 347 60 364 81 c 128,-1,18
 381 102 381 102 397 102 c 128,-1,19
 413 102 413 102 429 83 c 128,-1,20
 445 64 445 64 453 45 c 2,21,-1
 461 26 l 1,14,-1
307 26 m 1,22,-1
 179 26 l 1,23,24
 182 35 182 35 188 47.5 c 128,-1,25
 194 60 194 60 210.5 81 c 128,-1,26
 227 102 227 102 243 102 c 128,-1,27
 259 102 259 102 275 83 c 128,-1,28
 291 64 291 64 299 45 c 2,29,-1
 307 26 l 1,22,-1
154 26 m 1,30,-1
 26 26 l 1,31,32
 29 35 29 35 34.5 47.5 c 128,-1,33
 40 60 40 60 57 81 c 128,-1,34
 74 102 74 102 90 102 c 128,-1,35
 106 102 106 102 122 83 c 128,-1,36
 138 64 138 64 146 45 c 2,37,-1
 154 26 l 1,30,-1
128 141 m 128,-1,39
 128 125 128 125 117 113.5 c 128,-1,40
 106 102 106 102 90 102 c 128,-1,41
 74 102 74 102 62.5 113.5 c 128,-1,42
 51 125 51 125 51 141 c 128,-1,43
 51 157 51 157 62.5 168 c 128,-1,44
 74 179 74 179 90 179 c 128,-1,45
 106 179 106 179 117 168 c 128,-1,38
 128 157 128 157 128 141 c 128,-1,39
282 141 m 128,-1,47
 282 125 282 125 270.5 113.5 c 128,-1,48
 259 102 259 102 243 102 c 128,-1,49
 227 102 227 102 216 113.5 c 128,-1,50
 205 125 205 125 205 141 c 128,-1,51
 205 157 205 157 216 168 c 128,-1,52
 227 179 227 179 243 179 c 128,-1,53
 259 179 259 179 270.5 168 c 128,-1,46
 282 157 282 157 282 141 c 128,-1,47
435 141 m 128,-1,55
 435 125 435 125 424 113.5 c 128,-1,56
 413 102 413 102 397 102 c 128,-1,57
 381 102 381 102 369.5 113.5 c 128,-1,58
 358 125 358 125 358 141 c 128,-1,59
 358 157 358 157 369.5 168 c 128,-1,60
 381 179 381 179 397 179 c 128,-1,61
 413 179 413 179 424 168 c 128,-1,54
 435 157 435 157 435 141 c 128,-1,55
EndSplineSet
EndChar

StartChar: uniE06E
Encoding: 57454 57454 112
Width: 512
GlyphClass: 2
Flags: W
LayerCount: 2
Fore
SplineSet
253 416 m 0,0,1
 184 416 184 416 132 399.5 c 128,-1,2
 80 383 80 383 53 357.5 c 128,-1,3
 26 332 26 332 13 305.5 c 128,-1,4
 0 279 0 279 0 254 c 0,5,6
 0 248 0 248 1 237 c 128,-1,7
 2 226 2 226 9 199 c 128,-1,8
 16 172 16 172 28 151 c 128,-1,9
 40 130 40 130 66 113 c 128,-1,10
 92 96 92 96 128 96 c 0,11,12
 156 96 156 96 188 112 c 128,-1,13
 220 128 220 128 238 144 c 2,14,-1
 256 160 l 1,15,16
 263 153 263 153 275 142.5 c 128,-1,17
 287 132 287 132 321 114 c 128,-1,18
 355 96 355 96 384 96 c 0,19,20
 418 96 418 96 443.5 112.5 c 128,-1,21
 469 129 469 129 481.5 152 c 128,-1,22
 494 175 494 175 501.5 198 c 128,-1,23
 509 221 509 221 510 238 c 2,24,-1
 512 254 l 2,25,26
 512 275 512 275 506 294.5 c 128,-1,27
 500 314 500 314 483 337 c 128,-1,28
 466 360 466 360 438.5 377 c 128,-1,29
 411 394 411 394 363 405 c 128,-1,30
 315 416 315 416 253 416 c 0,0,1
147 192 m 128,-1,32
 128 192 128 192 108.5 204 c 128,-1,33
 89 216 89 216 80 228 c 2,34,-1
 70 240 l 1,35,36
 74 245 74 245 80.5 253 c 128,-1,37
 87 261 87 261 107.5 274.5 c 128,-1,38
 128 288 128 288 147 288 c 128,-1,39
 166 288 166 288 185.5 276 c 128,-1,40
 205 264 205 264 214 252 c 2,41,-1
 224 240 l 1,42,43
 220 235 220 235 213.5 227 c 128,-1,44
 207 219 207 219 186.5 205.5 c 128,-1,31
 166 192 166 192 147 192 c 128,-1,32
371 192 m 128,-1,46
 352 192 352 192 332.5 204 c 128,-1,47
 313 216 313 216 304 228 c 2,48,-1
 294 240 l 1,49,50
 298 245 298 245 304.5 253 c 128,-1,51
 311 261 311 261 331.5 274.5 c 128,-1,52
 352 288 352 288 371 288 c 128,-1,53
 390 288 390 288 409.5 276 c 128,-1,54
 429 264 429 264 438 252 c 2,55,-1
 448 240 l 1,56,57
 444 235 444 235 437.5 227 c 128,-1,58
 431 219 431 219 410.5 205.5 c 128,-1,45
 390 192 390 192 371 192 c 128,-1,46
EndSplineSet
EndChar

StartChar: uniE06F
Encoding: 57455 57455 113
Width: 512
GlyphClass: 2
Flags: W
LayerCount: 2
Fore
SplineSet
384 448 m 1,0,-1
 128 448 l 1,1,-1
 32 320 l 1,2,-1
 256 64 l 1,3,-1
 480 320 l 1,4,-1
 384 448 l 1,0,-1
416 335 m 1,5,-1
 350 249 l 1,6,7
 346 295 346 295 282 319 c 0,8,9
 254 330 254 330 244 337 c 128,-1,10
 234 344 234 344 234 356 c 0,11,12
 234 381 234 381 272 381 c 0,13,14
 301 381 301 381 327 369 c 1,15,-1
 338 409 l 1,16,-1
 363 409 l 1,17,-1
 416 335 l 1,5,-1
155 408 m 1,18,-1
 202 408 l 1,19,20
 174 386 174 386 174 351 c 0,21,22
 174 299 174 299 246 274 c 0,23,24
 270 265 270 265 280 257 c 128,-1,25
 290 249 290 249 290 237 c 0,26,27
 290 208 290 208 248 208 c 0,28,29
 237 208 237 208 220.5 212 c 128,-1,30
 204 216 204 216 193 220 c 2,31,-1
 182 223 l 1,32,-1
 96 335 l 1,33,-1
 155 408 l 1,18,-1
231 161 m 2,34,35
 235 160 235 160 245 160 c 0,36,37
 265 160 265 160 285 165 c 1,38,-1
 256 128 l 1,39,-1
 231 161 l 2,34,35
EndSplineSet
EndChar

StartChar: uniE070
Encoding: 57456 57456 114
Width: 512
GlyphClass: 2
Flags: W
LayerCount: 2
Fore
SplineSet
410 410 m 1,0,-1
 102 410 l 1,1,-1
 102 282 l 1,2,-1
 410 282 l 1,3,-1
 410 410 l 1,0,-1
384 307 m 1,4,-1
 128 307 l 1,5,-1
 128 384 l 1,6,-1
 384 384 l 1,7,-1
 384 307 l 1,4,-1
410 230 m 1,8,-1
 102 230 l 1,9,-1
 102 102 l 1,10,-1
 410 102 l 1,11,-1
 410 230 l 1,8,-1
0 512 m 1,12,-1
 0 0 l 1,13,-1
 512 0 l 1,14,-1
 512 512 l 1,15,-1
 0 512 l 1,12,-1
461 51 m 1,16,-1
 51 51 l 1,17,-1
 51 461 l 1,18,-1
 461 461 l 1,19,-1
 461 51 l 1,16,-1
154 179 m 1,20,-1
 358 179 l 1,21,-1
 358 154 l 1,22,-1
 154 154 l 1,23,-1
 154 179 l 1,20,-1
EndSplineSet
EndChar

StartChar: uniE071
Encoding: 57457 57457 115
Width: 512
GlyphClass: 2
Flags: W
LayerCount: 2
Fore
SplineSet
211 430 m 1,0,-1
 201 439 l 1,1,-1
 71 439 l 1,2,-1
 69 439 l 2,3,4
 58 438 58 438 56.5 428 c 128,-1,5
 55 418 55 418 55 362 c 2,6,-1
 55 274 l 2,7,8
 54 261 54 261 63 252 c 2,9,-1
 255 73 l 1,10,-1
 402 220 l 1,11,-1
 211 430 l 1,0,-1
152 306 m 0,12,13
 136 306 136 306 125.5 316.5 c 128,-1,14
 115 327 115 327 115 342 c 128,-1,15
 115 357 115 357 125.5 368 c 128,-1,16
 136 379 136 379 152 379 c 0,17,18
 167 379 167 379 177.5 368 c 128,-1,19
 188 357 188 357 188 342 c 128,-1,20
 188 327 188 327 177.5 316.5 c 128,-1,21
 167 306 167 306 152 306 c 0,12,13
321 398 m 0,22,23
 318 402 318 402 313 401 c 0,24,25
 305 401 305 401 280 396 c 1,26,-1
 439 219 l 1,27,-1
 311 91 l 1,28,-1
 349 62 l 1,29,-1
 494 224 l 1,30,-1
 481 237 l 2,31,32
 468 250 468 250 448 270 c 128,-1,33
 428 290 428 290 405.5 313 c 128,-1,34
 383 336 383 336 359.5 359.5 c 128,-1,35
 336 383 336 383 321 398 c 0,22,23
EndSplineSet
EndChar

StartChar: uniE072
Encoding: 57458 57458 116
Width: 512
GlyphClass: 2
Flags: W
LayerCount: 2
Fore
SplineSet
302 467 m 0,0,1
 298 471 298 471 292 470 c 2,2,-1
 242 463 l 1,3,-1
 223 482 l 2,4,5
 215 494 215 494 203 494 c 2,6,-1
 19 494 l 1,7,-1
 17 494 l 2,8,9
 4 493 4 493 2 481 c 128,-1,10
 0 469 0 469 1 400 c 2,11,-1
 0 294 l 2,12,13
 -1 278 -1 278 9 266 c 2,14,-1
 256 37 l 1,15,-1
 303 86 l 1,16,-1
 336 57 l 1,17,-1
 512 255 l 1,18,19
 369 400 369 400 302 467 c 0,0,1
252 80 m 1,20,-1
 37 293 l 1,21,-1
 37 457 l 1,22,-1
 197 457 l 2,23,24
 197 456 197 456 198 456 c 0,25,26
 233 421 233 421 303.5 350.5 c 128,-1,27
 374 280 374 280 409 244 c 1,28,-1
 252 80 l 1,20,-1
146 384 m 128,-1,30
 146 369 146 369 135.5 358 c 128,-1,31
 125 347 125 347 110 347 c 128,-1,32
 95 347 95 347 84 358 c 128,-1,33
 73 369 73 369 73 384 c 128,-1,34
 73 399 73 399 84 410 c 128,-1,35
 95 421 95 421 110 421 c 128,-1,36
 125 421 125 421 135.5 410 c 128,-1,29
 146 399 146 399 146 384 c 128,-1,30
EndSplineSet
EndChar

StartChar: uniE073
Encoding: 57459 57459 117
Width: 512
GlyphClass: 2
Flags: W
LayerCount: 2
Fore
SplineSet
102 307 m 1,0,-1
 282 307 l 1,1,-1
 282 256 l 1,2,-1
 102 256 l 1,3,-1
 102 307 l 1,0,-1
128 230 m 1,4,-1
 230 230 l 1,5,-1
 230 102 l 1,6,-1
 128 102 l 1,7,-1
 128 230 l 1,4,-1
256 230 m 1,8,-1
 333 230 l 1,9,-1
 333 154 l 1,10,-1
 256 154 l 1,11,-1
 256 230 l 1,8,-1
462 486 m 2,12,-1
 101 486 l 2,13,14
 91 486 91 486 84 479 c 128,-1,15
 77 472 77 472 77 462 c 2,16,-1
 77 435 l 1,17,-1
 435 435 l 1,18,-1
 435 77 l 1,19,-1
 462 77 l 2,20,21
 472 77 472 77 479 84 c 128,-1,22
 486 91 486 91 486 101 c 2,23,-1
 486 462 l 2,24,25
 486 472 486 472 479 479 c 128,-1,26
 472 486 472 486 462 486 c 2,12,-1
26 386 m 2,27,-1
 26 24 l 2,28,29
 26 14 26 14 33 7 c 128,-1,30
 40 0 40 0 50 0 c 2,31,-1
 386 0 l 2,32,33
 396 0 396 0 403 7 c 128,-1,34
 410 14 410 14 410 24 c 2,35,-1
 410 410 l 1,36,-1
 50 410 l 2,37,38
 40 410 40 410 33 403 c 128,-1,39
 26 396 26 396 26 386 c 2,27,-1
77 358 m 1,40,-1
 358 358 l 1,41,-1
 358 51 l 1,42,-1
 77 51 l 1,43,-1
 77 358 l 1,40,-1
EndSplineSet
EndChar

StartChar: uniE074
Encoding: 57460 57460 118
Width: 512
GlyphClass: 2
Flags: W
LayerCount: 2
Fore
SplineSet
91 196 m 1,0,-1
 87 196 l 2,1,2
 58 196 58 196 33 205 c 1,3,4
 53 137 53 137 110.5 94 c 128,-1,5
 168 51 168 51 241 51 c 2,6,-1
 247 51 l 1,7,8
 229 74 229 74 218 104 c 1,9,10
 177 109 177 109 143 134 c 128,-1,11
 109 159 109 159 91 196 c 1,0,-1
234 433 m 1,12,-1
 241 433 l 2,13,14
 296 433 296 433 339.5 400.5 c 128,-1,15
 383 368 383 368 399 317 c 1,16,17
 429 313 429 313 455 297 c 1,18,19
 444 377 444 377 383 431 c 128,-1,20
 322 485 322 485 241 485 c 0,21,22
 221 485 221 485 198 480 c 1,23,24
 220 461 220 461 234 433 c 1,12,-1
177 295 m 1,25,-1
 139 295 l 1,26,-1
 123 335 l 1,27,-1
 53 335 l 1,28,-1
 38 295 l 1,29,-1
 1 295 l 1,30,-1
 69 471 l 1,31,-1
 107 471 l 1,32,-1
 177 295 l 1,25,-1
112 365 m 1,33,-1
 88 430 l 1,34,-1
 64 365 l 1,35,-1
 112 365 l 1,33,-1
366 24 m 1,36,37
 368 34 368 34 368 59 c 2,38,-1
 368 104 l 1,39,40
 342 89 342 89 296 75 c 1,41,42
 288 95 288 95 276 114 c 1,43,44
 316 122 316 122 351 137 c 0,45,46
 386 154 386 154 414 179 c 1,47,-1
 333 179 l 2,48,49
 323 179 323 179 316 179.5 c 128,-1,50
 309 180 309 180 307 179 c 2,51,-1
 301 218 l 1,52,53
 313 216 313 216 338 216 c 2,54,-1
 367 216 l 1,55,-1
 367 230 l 2,56,57
 367 244 367 244 366 253 c 1,58,-1
 410 256 l 2,59,60
 410 253 410 253 410 249 c 128,-1,61
 410 245 410 245 410 239 c 128,-1,62
 410 233 410 233 410 230 c 2,63,-1
 411 216 l 1,64,-1
 451 216 l 2,65,66
 460 216 460 216 467 219 c 1,67,-1
 486 196 l 1,68,69
 482 193 482 193 475 185 c 0,70,71
 465 173 465 173 429 141 c 1,72,73
 472 126 472 126 510 102 c 1,74,-1
 485 65 l 1,75,76
 468 78 468 78 410 102 c 1,77,-1
 410 51 l 1,78,-1
 410 26 l 1,79,-1
 366 24 l 1,36,37
EndSplineSet
EndChar

StartChar: uniE075
Encoding: 57461 57461 119
Width: 512
GlyphClass: 2
Flags: W
LayerCount: 2
Fore
SplineSet
447 416 m 1,0,1
 444 443 444 443 429.5 461.5 c 128,-1,2
 415 480 415 480 388 480 c 2,3,-1
 319 480 l 2,4,5
 318 481 318 481 319.5 488 c 128,-1,6
 321 495 321 495 315.5 503.5 c 128,-1,7
 310 512 310 512 298 512 c 2,8,-1
 239 512 l 2,9,10
 227 512 227 512 223 504 c 128,-1,11
 219 496 219 496 221 488 c 2,12,-1
 223 480 l 1,13,-1
 173 480 l 2,14,15
 144 480 144 480 122 460.5 c 128,-1,16
 100 441 100 441 96 416 c 1,17,-1
 447 416 l 1,0,1
128 128 m 2,18,19
 128 111 128 111 128.5 103.5 c 128,-1,20
 129 96 129 96 131.5 84.5 c 128,-1,21
 134 73 134 73 141 68.5 c 128,-1,22
 148 64 148 64 159 64 c 2,23,-1
 383 64 l 2,24,25
 398 64 398 64 405.5 74.5 c 128,-1,26
 413 85 413 85 414.5 96 c 128,-1,27
 416 107 416 107 416 128 c 2,28,-1
 416 384 l 1,29,-1
 128 384 l 1,30,-1
 128 128 l 2,18,19
320 320 m 1,31,-1
 352 320 l 1,32,-1
 352 160 l 1,33,-1
 320 160 l 1,34,-1
 320 320 l 1,31,-1
256 320 m 1,35,-1
 288 320 l 1,36,-1
 288 160 l 1,37,-1
 256 160 l 1,38,-1
 256 320 l 1,35,-1
192 320 m 1,39,-1
 224 320 l 1,40,-1
 224 160 l 1,41,-1
 192 160 l 1,42,-1
 192 320 l 1,39,-1
EndSplineSet
EndChar

StartChar: uniE076
Encoding: 57462 57462 120
Width: 512
GlyphClass: 2
Flags: W
LayerCount: 2
Fore
SplineSet
128 128 m 2,0,1
 128 111 128 111 128.5 103.5 c 128,-1,2
 129 96 129 96 131.5 84.5 c 128,-1,3
 134 73 134 73 141 68.5 c 128,-1,4
 148 64 148 64 159 64 c 2,5,-1
 383 64 l 2,6,7
 398 64 398 64 405.5 74.5 c 128,-1,8
 413 85 413 85 414.5 96 c 128,-1,9
 416 107 416 107 416 128 c 2,10,-1
 416 320 l 1,11,-1
 128 320 l 1,12,-1
 128 128 l 2,0,1
320 288 m 1,13,-1
 352 288 l 1,14,-1
 352 160 l 1,15,-1
 320 160 l 1,16,-1
 320 288 l 1,13,-1
256 288 m 1,17,-1
 288 288 l 1,18,-1
 288 160 l 1,19,-1
 256 160 l 1,20,-1
 256 288 l 1,17,-1
192 288 m 1,21,-1
 224 288 l 1,22,-1
 224 160 l 1,23,-1
 192 160 l 1,24,-1
 192 288 l 1,21,-1
388 416 m 2,25,-1
 319 416 l 2,26,27
 318 417 318 417 319.5 424 c 128,-1,28
 321 431 321 431 315.5 439.5 c 128,-1,29
 310 448 310 448 298 448 c 2,30,-1
 239 448 l 2,31,32
 227 448 227 448 223 440 c 128,-1,33
 219 432 219 432 221 424 c 2,34,-1
 223 416 l 1,35,-1
 173 416 l 2,36,37
 144 416 144 416 122 396.5 c 128,-1,38
 100 377 100 377 96 352 c 1,39,-1
 447 352 l 1,40,41
 441 416 441 416 388 416 c 2,25,-1
EndSplineSet
EndChar

StartChar: uniE077
Encoding: 57463 57463 121
Width: 512
GlyphClass: 2
Flags: W
LayerCount: 2
Fore
SplineSet
288 288 m 1,0,-1
 256 288 l 1,1,-1
 256 160 l 1,2,-1
 288 160 l 1,3,-1
 288 288 l 1,0,-1
370 416 m 2,4,-1
 335 416 l 1,5,6
 316 448 316 448 293 448 c 2,7,-1
 243 448 l 2,8,9
 233 448 233 448 222.5 440 c 128,-1,10
 212 432 212 432 206 424 c 2,11,-1
 201 416 l 1,12,-1
 159 416 l 2,13,14
 130 416 130 416 113 400 c 128,-1,15
 96 384 96 384 96 358 c 2,16,-1
 96 320 l 1,17,-1
 128 320 l 1,18,-1
 128 111 l 2,19,20
 128 64 128 64 171 64 c 2,21,-1
 368 64 l 2,22,23
 390 64 390 64 403 76.5 c 128,-1,24
 416 89 416 89 416 111 c 2,25,-1
 416 320 l 1,26,-1
 448 320 l 1,27,-1
 448 358 l 2,28,29
 448 385 448 385 424 400.5 c 128,-1,30
 400 416 400 416 370 416 c 2,4,-1
384 111 m 2,31,32
 384 96 384 96 368 96 c 2,33,-1
 171 96 l 2,34,35
 164 96 164 96 162 98.5 c 128,-1,36
 160 101 160 101 160 111 c 2,37,-1
 160 320 l 1,38,-1
 384 320 l 1,39,-1
 384 111 l 2,31,32
416 352 m 1,40,-1
 128 352 l 1,41,-1
 128 358 l 2,42,43
 128 384 128 384 159 384 c 2,44,-1
 370 384 l 2,45,46
 386 384 386 384 401 377 c 128,-1,47
 416 370 416 370 416 358 c 2,48,-1
 416 352 l 1,40,-1
352 288 m 1,49,-1
 320 288 l 1,50,-1
 320 160 l 1,51,-1
 352 160 l 1,52,-1
 352 288 l 1,49,-1
224 288 m 1,53,-1
 192 288 l 1,54,-1
 192 160 l 1,55,-1
 224 160 l 1,56,-1
 224 288 l 1,53,-1
EndSplineSet
EndChar

StartChar: uniE078
Encoding: 57464 57464 122
Width: 512
GlyphClass: 2
Flags: W
LayerCount: 2
Fore
SplineSet
192 320 m 1,0,-1
 224 320 l 1,1,-1
 224 160 l 1,2,-1
 192 160 l 1,3,-1
 192 320 l 1,0,-1
256 320 m 1,4,-1
 288 320 l 1,5,-1
 288 160 l 1,6,-1
 256 160 l 1,7,-1
 256 320 l 1,4,-1
320 320 m 1,8,-1
 352 320 l 1,9,-1
 352 160 l 1,10,-1
 320 160 l 1,11,-1
 320 320 l 1,8,-1
448 422 m 2,12,13
 448 449 448 449 424 464.5 c 128,-1,14
 400 480 400 480 370 480 c 2,15,-1
 335 480 l 1,16,17
 316 512 316 512 293 512 c 2,18,-1
 243 512 l 2,19,20
 233 512 233 512 222.5 504 c 128,-1,21
 212 496 212 496 206 488 c 2,22,-1
 201 480 l 1,23,-1
 159 480 l 2,24,25
 130 480 130 480 113 464 c 128,-1,26
 96 448 96 448 96 422 c 2,27,-1
 96 384 l 1,28,-1
 128 384 l 1,29,-1
 128 111 l 2,30,31
 128 64 128 64 171 64 c 2,32,-1
 368 64 l 2,33,34
 390 64 390 64 403 76.5 c 128,-1,35
 416 89 416 89 416 111 c 2,36,-1
 416 384 l 1,37,-1
 448 384 l 1,38,-1
 448 422 l 2,12,13
384 111 m 2,39,40
 384 96 384 96 368 96 c 2,41,-1
 171 96 l 2,42,43
 164 96 164 96 162 98.5 c 128,-1,44
 160 101 160 101 160 111 c 2,45,-1
 160 384 l 1,46,-1
 384 384 l 1,47,-1
 384 111 l 2,39,40
416 416 m 1,48,-1
 128 416 l 1,49,-1
 128 422 l 2,50,51
 128 448 128 448 159 448 c 2,52,-1
 370 448 l 2,53,54
 386 448 386 448 401 441 c 128,-1,55
 416 434 416 434 416 422 c 2,56,-1
 416 416 l 1,48,-1
EndSplineSet
EndChar

StartChar: uniE079
Encoding: 57465 57465 123
Width: 512
GlyphClass: 2
Flags: W
LayerCount: 2
Fore
SplineSet
256 8 m 128,-1,1
 164 8 164 8 99 73 c 128,-1,2
 34 138 34 138 34 230 c 0,3,4
 34 342 34 342 123 408 c 0,5,6
 133 415 133 415 145 413.5 c 128,-1,7
 157 412 157 412 165 402 c 0,8,9
 172 392 172 392 170.5 380 c 128,-1,10
 169 368 169 368 159 360 c 0,11,12
 94 311 94 311 94 230 c 0,13,14
 94 163 94 163 141.5 116 c 128,-1,15
 189 69 189 69 256 69 c 128,-1,16
 323 69 323 69 370.5 116 c 128,-1,17
 418 163 418 163 418 230 c 0,18,19
 418 311 418 311 353 360 c 0,20,21
 343 368 343 368 341.5 380 c 128,-1,22
 340 392 340 392 347 402 c 0,23,24
 355 412 355 412 367 413.5 c 128,-1,25
 379 415 379 415 389 408 c 0,26,27
 478 342 478 342 478 230 c 0,28,29
 478 138 478 138 413 73 c 128,-1,0
 348 8 348 8 256 8 c 128,-1,1
256 224 m 128,-1,31
 242 224 242 224 233 233 c 128,-1,32
 224 242 224 242 224 256 c 2,33,-1
 224 448 l 2,34,35
 224 462 224 462 233 471 c 128,-1,36
 242 480 242 480 256 480 c 128,-1,37
 270 480 270 480 279 471 c 128,-1,38
 288 462 288 462 288 448 c 2,39,-1
 288 256 l 2,40,41
 288 242 288 242 279 233 c 128,-1,30
 270 224 270 224 256 224 c 128,-1,31
EndSplineSet
EndChar

StartChar: uniE07A
Encoding: 57466 57466 124
Width: 512
GlyphClass: 2
Flags: W
LayerCount: 2
Fore
SplineSet
58 480 m 1,0,-1
 154 480 l 1,1,-1
 154 384 l 1,2,-1
 58 384 l 1,3,-1
 58 480 l 1,0,-1
58 320 m 1,4,-1
 154 320 l 1,5,-1
 154 224 l 1,6,-1
 58 224 l 1,7,-1
 58 320 l 1,4,-1
58 160 m 1,8,-1
 154 160 l 1,9,-1
 154 64 l 1,10,-1
 58 64 l 1,11,-1
 58 160 l 1,8,-1
218 416 m 1,12,-1
 442 416 l 1,13,-1
 442 384 l 1,14,-1
 218 384 l 1,15,-1
 218 416 l 1,12,-1
218 256 m 1,16,-1
 442 256 l 1,17,-1
 442 224 l 1,18,-1
 218 224 l 1,19,-1
 218 256 l 1,16,-1
218 96 m 1,20,-1
 442 96 l 1,21,-1
 442 64 l 1,22,-1
 218 64 l 1,23,-1
 218 96 l 1,20,-1
EndSplineSet
EndChar

StartChar: uniE07B
Encoding: 57467 57467 125
Width: 512
GlyphClass: 2
Flags: W
LayerCount: 2
Fore
SplineSet
404 221 m 1,0,1
 397 159 397 159 350.5 116.5 c 128,-1,2
 304 74 304 74 240 74 c 0,3,4
 171 74 171 74 122.5 122.5 c 128,-1,5
 74 171 74 171 74 240 c 0,6,7
 74 297 74 297 109 341.5 c 128,-1,8
 144 386 144 386 198 400 c 1,9,10
 206 428 206 428 220 447 c 1,11,12
 140 439 140 439 86 380 c 128,-1,13
 32 321 32 321 32 240 c 0,14,15
 32 154 32 154 93 93 c 128,-1,16
 154 32 154 32 240 32 c 128,-1,17
 326 32 326 32 387 93 c 128,-1,18
 448 154 448 154 448 240 c 2,19,-1
 448 249 l 1,20,21
 429 231 429 231 404 221 c 1,0,1
451 437 m 1,22,-1
 421 467 l 1,23,-1
 352 398 l 1,24,-1
 283 467 l 1,25,-1
 253 437 l 1,26,-1
 322 368 l 1,27,-1
 253 299 l 1,28,-1
 283 269 l 1,29,-1
 352 338 l 1,30,-1
 421 269 l 1,31,-1
 451 299 l 1,32,-1
 382 368 l 1,33,-1
 451 437 l 1,22,-1
EndSplineSet
EndChar

StartChar: uniE07C
Encoding: 57468 57468 126
Width: 512
GlyphClass: 2
Flags: W
LayerCount: 2
Fore
SplineSet
405 230 m 1,0,1
 398 175 398 175 355.5 138 c 128,-1,2
 313 101 313 101 255 101 c 0,3,4
 192 101 192 101 147 144 c 128,-1,5
 102 187 102 187 102 248 c 0,6,7
 102 298 102 298 134.5 337.5 c 128,-1,8
 167 377 167 377 216 389 c 1,9,10
 225 415 225 415 236 430 c 1,11,12
 163 423 163 423 113.5 371 c 128,-1,13
 64 319 64 319 64 248 c 0,14,15
 64 171 64 171 120 117.5 c 128,-1,16
 176 64 176 64 255 64 c 128,-1,17
 334 64 334 64 389.5 118 c 128,-1,18
 445 172 445 172 445 248 c 2,19,-1
 445 256 l 1,20,21
 429 241 429 241 405 230 c 1,0,1
448 421 m 1,22,-1
 420 448 l 1,23,-1
 357 387 l 1,24,-1
 294 448 l 1,25,-1
 266 421 l 1,26,-1
 329 361 l 1,27,-1
 266 300 l 1,28,-1
 294 273 l 1,29,-1
 357 334 l 1,30,-1
 420 273 l 1,31,-1
 448 300 l 1,32,-1
 385 361 l 1,33,-1
 448 421 l 1,22,-1
EndSplineSet
EndChar

StartChar: uniE07D
Encoding: 57469 57469 127
Width: 512
GlyphClass: 2
Flags: W
LayerCount: 2
Fore
SplineSet
320 256 m 1,0,-1
 352 256 l 1,1,-1
 352 128 l 1,2,-1
 320 128 l 1,3,-1
 320 256 l 1,0,-1
384 79 m 2,4,5
 384 64 384 64 368 64 c 2,6,-1
 171 64 l 2,7,8
 164 64 164 64 162 66.5 c 128,-1,9
 160 69 160 69 160 79 c 2,10,-1
 160 288 l 1,11,-1
 128 288 l 1,12,-1
 128 79 l 2,13,14
 128 32 128 32 171 32 c 2,15,-1
 368 32 l 2,16,17
 390 32 390 32 403 44.5 c 128,-1,18
 416 57 416 57 416 79 c 2,19,-1
 416 288 l 1,20,-1
 384 288 l 1,21,-1
 384 79 l 2,4,5
256 256 m 1,22,-1
 288 256 l 1,23,-1
 288 128 l 1,24,-1
 256 128 l 1,25,-1
 256 256 l 1,22,-1
192 256 m 1,26,-1
 224 256 l 1,27,-1
 224 128 l 1,28,-1
 192 128 l 1,29,-1
 192 256 l 1,26,-1
175 384 m 1,30,-1
 224 384 l 1,31,-1
 224 288 l 1,32,-1
 320 288 l 1,33,-1
 320 384 l 1,34,-1
 375 384 l 1,35,-1
 272 512 l 1,36,-1
 175 384 l 1,30,-1
96 320 m 1,37,-1
 192 320 l 1,38,-1
 192 288 l 1,39,-1
 96 288 l 1,40,-1
 96 320 l 1,37,-1
352 320 m 1,41,-1
 448 320 l 1,42,-1
 448 288 l 1,43,-1
 352 288 l 1,44,-1
 352 320 l 1,41,-1
EndSplineSet
EndChar

StartChar: uniE07E
Encoding: 57470 57470 128
Width: 512
GlyphClass: 2
Flags: W
LayerCount: 2
Fore
SplineSet
160 160 m 1,0,-1
 224 160 l 1,1,-1
 224 32 l 1,2,-1
 288 32 l 1,3,-1
 288 160 l 1,4,-1
 352 160 l 1,5,-1
 256 288 l 1,6,-1
 160 160 l 1,0,-1
383 383 m 0,7,8
 370 383 370 383 356.5 380.5 c 128,-1,9
 343 378 343 378 335 375 c 128,-1,10
 327 372 327 372 326 371 c 1,11,12
 303 414 303 414 262.5 439 c 128,-1,13
 222 464 222 464 173 464 c 0,14,15
 102 464 102 464 51 413 c 128,-1,16
 0 362 0 362 0 291 c 0,17,18
 0 241 0 241 26.5 199 c 128,-1,19
 53 157 53 157 98 135 c 0,20,21
 104 133 104 133 107 133 c 0,22,23
 120 133 120 133 127 145 c 0,24,25
 131 153 131 153 128 161.5 c 128,-1,26
 125 170 125 170 117 174 c 0,27,28
 83 190 83 190 63 222 c 128,-1,29
 43 254 43 254 43 291 c 0,30,31
 43 345 43 345 81 383 c 128,-1,32
 119 421 119 421 173 421 c 0,33,34
 213 421 213 421 245.5 399 c 128,-1,35
 278 377 278 377 293 340 c 0,36,37
 302 321 302 321 321 328 c 0,38,39
 351 340 351 340 383 340 c 0,40,41
 419 340 419 340 444.5 314 c 128,-1,42
 470 288 470 288 470 251 c 0,43,44
 470 222 470 222 453.5 198.5 c 128,-1,45
 437 175 437 175 410 166 c 0,46,47
 391 159 391 159 397 139 c 0,48,49
 402 124 402 124 417 124 c 0,50,51
 421 124 421 124 423 125 c 0,52,53
 463 139 463 139 487.5 173.5 c 128,-1,54
 512 208 512 208 512 251 c 0,55,56
 512 306 512 306 474 344.5 c 128,-1,57
 436 383 436 383 383 383 c 0,7,8
EndSplineSet
EndChar

StartChar: uniE07F
Encoding: 57471 57471 129
Width: 512
GlyphClass: 2
Flags: W
LayerCount: 2
Fore
SplineSet
512 258 m 0,0,1
 512 363 512 363 437 437.5 c 128,-1,2
 362 512 362 512 256 512 c 128,-1,3
 150 512 150 512 75 437.5 c 128,-1,4
 0 363 0 363 0 258 c 0,5,6
 0 157 0 157 71 84 c 1,7,8
 160 0 160 0 256 0 c 0,9,10
 305 0 305 0 350 20 c 128,-1,11
 395 40 395 40 414.5 57 c 128,-1,12
 434 74 434 74 443 85 c 0,13,14
 512 159 512 159 512 258 c 0,0,1
256 479 m 0,15,16
 348 479 348 479 414 414 c 128,-1,17
 480 349 480 349 480 257 c 0,18,19
 480 175 480 175 425 112 c 1,20,21
 410 121 410 121 361 142 c 1,22,-1
 358 143 l 2,23,24
 346 150 346 150 325 175 c 0,25,26
 326 177 326 177 330 186 c 128,-1,27
 334 195 334 195 336 201 c 0,28,29
 336 202 336 202 337 202 c 128,-1,30
 338 202 338 202 339 203 c 0,31,32
 358 214 358 214 360 259 c 2,33,-1
 360 264 l 2,34,35
 361 275 361 275 355 281 c 1,36,37
 374 374 374 374 311 396 c 0,38,39
 279 408 279 408 257 409 c 0,40,41
 231 407 231 407 207 396 c 0,42,43
 142 375 142 375 160 281 c 1,44,45
 155 273 155 273 156 264 c 2,46,-1
 156 259 l 2,47,48
 158 214 158 214 177 203 c 0,49,50
 178 202 178 202 178 202 c 2,51,52
 180 202 180 202 180 201 c 0,53,54
 189 178 189 178 191 175 c 0,55,56
 167 147 167 147 159 144 c 2,57,-1
 155 142 l 2,58,59
 106 121 106 121 91 112 c 1,60,-1
 89 110 l 1,61,62
 33 174 33 174 33 257 c 0,63,64
 32 349 32 349 97.5 414 c 128,-1,65
 163 479 163 479 256 479 c 0,15,16
226 193 m 0,66,67
 216 213 216 213 216 219 c 0,68,69
 214 232 214 232 202 235 c 0,70,71
 201 236 201 236 198 236 c 1,72,73
 198 239 198 239 197 240 c 0,74,75
 197 243 197 243 198 251 c 128,-1,76
 199 259 199 259 198 261 c 2,77,-1
 205 264 l 1,78,79
 205 277 205 277 202 288 c 0,80,81
 196 323 196 323 198 333 c 0,82,83
 203 354 203 354 220 360 c 0,84,85
 244 369 244 369 257 370 c 0,86,87
 275 369 275 369 297 359 c 0,88,89
 329 349 329 349 317 289 c 0,90,91
 314 275 314 275 321 264 c 1,92,-1
 321 261 l 2,93,94
 321 242 321 242 318 236 c 0,95,96
 315 236 315 236 314 235 c 0,97,98
 302 232 302 232 300 219 c 0,99,100
 300 213 300 213 290 193 c 0,101,102
 290 191 290 191 289 190 c 0,103,104
 289 189 289 189 285.5 184.5 c 128,-1,105
 282 180 282 180 274.5 174.5 c 128,-1,106
 267 169 267 169 258 169 c 128,-1,107
 249 169 249 169 241 175 c 128,-1,108
 233 181 233 181 229.5 186.5 c 128,-1,109
 226 192 226 192 226 193 c 0,66,67
256 39 m 0,110,111
 181 39 181 39 121 85 c 1,112,113
 150 98 150 98 170 106 c 2,114,-1
 172 107 l 2,115,116
 185 110 185 110 216 145 c 1,117,118
 237 130 237 130 259 130 c 0,119,120
 282 130 282 130 300 144 c 1,121,122
 334 110 334 110 342 108 c 2,123,-1
 346 106 l 2,124,125
 376 94 376 94 392 86 c 1,126,127
 334 39 334 39 256 39 c 0,110,111
EndSplineSet
EndChar

StartChar: uniE080
Encoding: 57472 57472 130
Width: 512
GlyphClass: 2
Flags: W
LayerCount: 2
Fore
SplineSet
445 161 m 0,0,1
 424 174 424 174 372 196 c 2,2,-1
 368 198 l 2,3,4
 351 209 351 209 329 237 c 0,5,6
 327 241 327 241 328 243 c 0,7,8
 337 262 337 262 341 275 c 0,9,10
 342 275 342 275 343.5 275.5 c 128,-1,11
 345 276 345 276 346 277 c 0,12,13
 366 289 366 289 368 339 c 2,14,-1
 368 345 l 2,15,16
 369 354 369 354 364 362 c 0,17,18
 363 363 363 363 363 366 c 0,19,20
 376 427 376 427 359 456 c 128,-1,21
 342 485 342 485 315 494 c 0,22,23
 281 508 281 508 255 509 c 0,24,25
 232 508 232 508 199 495 c 0,26,27
 127 471 127 471 150 366 c 1,28,-1
 149 364 l 1,29,-1
 148 362 l 2,30,31
 143 354 143 354 144 345 c 2,32,-1
 144 339 l 2,33,34
 146 289 146 289 166 277 c 0,35,36
 167 276 167 276 168 276 c 0,37,38
 170 275 170 275 171 275 c 0,39,40
 175 262 175 262 184 243 c 0,41,42
 186 240 186 240 183 237 c 0,43,44
 161 209 161 209 144 198 c 2,45,-1
 140 196 l 2,46,47
 88 174 88 174 67 161 c 0,48,49
 20 132 20 132 18 34 c 0,50,51
 18 19 18 19 27 10 c 0,52,53
 39 0 39 0 50 0 c 2,54,-1
 462 0 l 2,55,56
 475 0 475 0 485 10 c 0,57,58
 494 20 494 20 494 34 c 0,59,60
 492 132 492 132 445 161 c 0,0,1
178 345 m 1,61,-1
 178 346 l 1,62,63
 185 358 185 358 183 373 c 0,64,65
 166 448 166 448 210 462 c 0,66,67
 240 474 240 474 255 475 c 0,68,69
 273 474 273 474 303 462 c 0,70,71
 346 448 346 448 329 373 c 0,72,73
 327 363 327 363 334 346 c 1,74,-1
 334 345 l 1,75,-1
 334 341 l 2,76,77
 334 317 334 317 329 307 c 1,78,-1
 328 307 l 2,79,80
 312 307 312 307 310 291 c 0,81,82
 310 284 310 284 298 258 c 0,83,84
 298 257 298 257 297 256 c 2,85,-1
 297 255 l 1,86,-1
 296 252 l 2,87,88
 294 250 294 250 292 247 c 128,-1,89
 290 244 290 244 286.5 240.5 c 128,-1,90
 283 237 283 237 279 234 c 128,-1,91
 275 231 275 231 269 229 c 128,-1,92
 263 227 263 227 257 227 c 0,93,94
 245 227 245 227 234.5 234.5 c 128,-1,95
 224 242 224 242 219 250 c 2,96,-1
 214 258 l 2,97,98
 202 284 202 284 202 291 c 0,99,100
 200 307 200 307 185 307 c 2,101,-1
 184 307 l 1,102,103
 178 316 178 316 178 341 c 2,104,-1
 178 345 l 1,61,-1
52 37 m 1,105,106
 53 112 53 112 86 132 c 0,107,108
 100 141 100 141 156 164 c 1,109,-1
 165 166 l 2,110,111
 165 168 165 168 173 176 c 128,-1,112
 181 184 181 184 193.5 195.5 c 128,-1,113
 206 207 206 207 210 211 c 1,114,115
 230 193 230 193 257 193 c 0,116,117
 290 193 290 193 311 212 c 1,118,119
 344 173 344 173 366 166 c 1,120,-1
 365 164 l 1,121,122
 408 147 408 147 430 132 c 0,123,124
 459 115 459 115 460 37 c 1,125,-1
 52 37 l 1,105,106
EndSplineSet
EndChar

StartChar: uniE081
Encoding: 57473 57473 131
Width: 512
GlyphClass: 2
Flags: W
LayerCount: 2
Fore
SplineSet
410 322 m 0,0,1
 407 277 407 277 347 199 c 0,2,3
 284 117 284 117 241 117 c 0,4,5
 215 117 215 117 195 167 c 1,6,7
 179 227 179 227 170 258 c 0,8,9
 157 307 157 307 141 307 c 0,10,11
 139 307 139 307 117 293 c 1,12,-1
 102 311 l 1,13,14
 109 318 109 318 124 331.5 c 128,-1,15
 139 345 139 345 147 352 c 0,16,17
 177 377 177 377 193 379 c 0,18,19
 211 380 211 380 221.5 368 c 128,-1,20
 232 356 232 356 237 330 c 0,21,22
 246 275 246 275 249 260 c 0,23,24
 259 213 259 213 272 213 c 0,25,26
 282 213 282 213 301 243 c 128,-1,27
 320 273 320 273 322 290 c 0,28,29
 325 316 325 316 301 316 c 0,30,31
 291 316 291 316 278 311 c 1,32,33
 300 384 300 384 365 383 c 0,34,35
 411 382 411 382 410 322 c 0,0,1
EndSplineSet
EndChar

StartChar: uniE082
Encoding: 57474 57474 132
Width: 512
GlyphClass: 2
Flags: W
LayerCount: 2
Fore
SplineSet
256 448 m 0,0,1
 173 448 173 448 103.5 395 c 128,-1,2
 34 342 34 342 0 256 c 1,3,4
 34 170 34 170 103.5 117 c 128,-1,5
 173 64 173 64 256 64 c 0,6,7
 340 64 340 64 409 117 c 128,-1,8
 478 170 478 170 512 256 c 1,9,10
 478 342 478 342 409 395 c 128,-1,11
 340 448 340 448 256 448 c 0,0,1
256 362 m 0,12,13
 287 362 287 362 308.5 340.5 c 128,-1,14
 330 319 330 319 330 288 c 128,-1,15
 330 257 330 257 308.5 235.5 c 128,-1,16
 287 214 287 214 256 214 c 0,17,18
 226 214 226 214 204.5 235.5 c 128,-1,19
 183 257 183 257 183 288 c 128,-1,20
 183 319 183 319 204.5 340.5 c 128,-1,21
 226 362 226 362 256 362 c 0,12,13
256 107 m 128,-1,23
 191 107 191 107 135 147.5 c 128,-1,24
 79 188 79 188 48 256 c 1,25,26
 76 316 76 316 123.5 355 c 128,-1,27
 171 394 171 394 226 402 c 1,28,29
 188 392 188 392 163 360.5 c 128,-1,30
 138 329 138 329 138 288 c 0,31,32
 138 239 138 239 172.5 204.5 c 128,-1,33
 207 170 207 170 256 170 c 128,-1,34
 305 170 305 170 340 204.5 c 128,-1,35
 375 239 375 239 375 288 c 0,36,37
 375 329 375 329 350 360.5 c 128,-1,38
 325 392 325 392 287 402 c 1,39,40
 343 393 343 393 390 354.5 c 128,-1,41
 437 316 437 316 465 256 c 1,42,43
 433 187 433 187 377 147 c 128,-1,22
 321 107 321 107 256 107 c 128,-1,23
EndSplineSet
EndChar

StartChar: uniE083
Encoding: 57475 57475 133
Width: 512
GlyphClass: 2
Flags: W
LayerCount: 2
Fore
SplineSet
256 416 m 0,0,1
 183 416 183 416 122.5 372 c 128,-1,2
 62 328 62 328 32 256 c 1,3,4
 62 184 62 184 122.5 140 c 128,-1,5
 183 96 183 96 256 96 c 0,6,7
 330 96 330 96 390 140 c 128,-1,8
 450 184 450 184 480 256 c 1,9,10
 450 328 450 328 390 372 c 128,-1,11
 330 416 330 416 256 416 c 0,0,1
256 128 m 128,-1,13
 198 128 198 128 145 163.5 c 128,-1,14
 92 199 92 199 64 256 c 1,15,16
 92 313 92 313 145 348.5 c 128,-1,17
 198 384 198 384 256 384 c 128,-1,18
 314 384 314 384 367.5 348.5 c 128,-1,19
 421 313 421 313 448 256 c 1,20,21
 421 199 421 199 367.5 163.5 c 128,-1,12
 314 128 314 128 256 128 c 128,-1,13
256 378 m 128,-1,23
 214 378 214 378 184.5 348 c 128,-1,24
 155 318 155 318 155 276 c 128,-1,25
 155 234 155 234 184.5 204 c 128,-1,26
 214 174 214 174 256 174 c 128,-1,27
 298 174 298 174 328 204 c 128,-1,28
 358 234 358 234 358 276 c 128,-1,29
 358 318 358 318 328 348 c 128,-1,22
 298 378 298 378 256 378 c 128,-1,23
256 210 m 0,30,31
 229 210 229 210 209.5 229 c 128,-1,32
 190 248 190 248 190 276 c 128,-1,33
 190 304 190 304 209.5 323 c 128,-1,34
 229 342 229 342 256 342 c 0,35,36
 284 342 284 342 303.5 323 c 128,-1,37
 323 304 323 304 323 276 c 128,-1,38
 323 248 323 248 303.5 229 c 128,-1,39
 284 210 284 210 256 210 c 0,30,31
EndSplineSet
EndChar

StartChar: uniE084
Encoding: 57476 57476 134
Width: 512
GlyphClass: 2
Flags: W
LayerCount: 2
Fore
SplineSet
256 448 m 0,0,1
 172 448 172 448 103 395 c 128,-1,2
 34 342 34 342 0 256 c 1,3,4
 34 170 34 170 103 117 c 128,-1,5
 172 64 172 64 256 64 c 0,6,7
 339 64 339 64 408.5 117 c 128,-1,8
 478 170 478 170 512 256 c 1,9,10
 478 342 478 342 408.5 395 c 128,-1,11
 339 448 339 448 256 448 c 0,0,1
256 96 m 0,12,13
 186 96 186 96 126.5 139 c 128,-1,14
 67 182 67 182 35 256 c 1,15,16
 67 330 67 330 126.5 373 c 128,-1,17
 186 416 186 416 256 416 c 0,18,19
 325 416 325 416 385 372.5 c 128,-1,20
 445 329 445 329 477 256 c 1,21,22
 445 183 445 183 385 139.5 c 128,-1,23
 325 96 325 96 256 96 c 0,12,13
256 400 m 128,-1,25
 210 400 210 400 177 367 c 128,-1,26
 144 334 144 334 144 288 c 128,-1,27
 144 242 144 242 177 209 c 128,-1,28
 210 176 210 176 256 176 c 128,-1,29
 302 176 302 176 335 209 c 128,-1,30
 368 242 368 242 368 288 c 128,-1,31
 368 334 368 334 335 367 c 128,-1,24
 302 400 302 400 256 400 c 128,-1,25
256 208 m 128,-1,33
 223 208 223 208 199.5 231.5 c 128,-1,34
 176 255 176 255 176 288 c 128,-1,35
 176 321 176 321 199.5 344.5 c 128,-1,36
 223 368 223 368 256 368 c 128,-1,37
 289 368 289 368 312.5 344.5 c 128,-1,38
 336 321 336 321 336 288 c 128,-1,39
 336 255 336 255 312.5 231.5 c 128,-1,32
 289 208 289 208 256 208 c 128,-1,33
EndSplineSet
EndChar

StartChar: uniE085
Encoding: 57477 57477 135
Width: 512
GlyphClass: 2
Flags: W
LayerCount: 2
Fore
SplineSet
143 110 m 1,0,-1
 145 160 l 1,1,-1
 143 206 l 2,2,3
 143 237 143 237 141 255 c 0,4,5
 139 286 139 286 135 309 c 0,6,7
 133 323 133 323 111 345 c 1,8,-1
 73 351 l 1,9,-1
 73 366 l 1,10,-1
 104 368 l 2,11,12
 110 369 110 369 122 371 c 128,-1,13
 134 373 134 373 143 374.5 c 128,-1,14
 152 376 152 376 158 377 c 0,15,16
 167 379 167 379 177 380 c 2,17,-1
 180 381 l 1,18,-1
 184 381 l 1,19,20
 192 361 192 361 196 332 c 0,21,22
 201 298 201 298 202 283 c 2,23,-1
 204 229 l 1,24,-1
 248 306 l 2,25,26
 252 312 252 312 259 321.5 c 128,-1,27
 266 331 266 331 270 337 c 0,28,29
 287 366 287 366 291 366 c 2,30,-1
 307 366 l 1,31,-1
 325 188 l 1,32,33
 347 214 347 214 368 245 c 0,34,35
 391 279 391 279 391 294 c 0,36,37
 391 303 391 303 380 320 c 0,38,39
 368 338 368 338 368 349 c 0,40,41
 368 361 368 361 378 371 c 0,42,43
 387 380 387 380 400 380 c 0,44,45
 412 380 412 380 424 371 c 0,46,47
 434 362 434 362 434 345 c 0,48,49
 434 301 434 301 374 220 c 0,50,51
 370 214 370 214 356 195.5 c 128,-1,52
 342 177 342 177 333.5 165.5 c 128,-1,53
 325 154 325 154 310.5 138 c 128,-1,54
 296 122 296 122 282 110 c 1,55,-1
 266 110 l 1,56,57
 265 132 265 132 264 148 c 0,58,59
 264 151 264 151 263 164 c 128,-1,60
 262 177 262 177 261 185 c 0,61,62
 261 190 261 190 259.5 203 c 128,-1,63
 258 216 258 216 258 222 c 2,64,-1
 253 273 l 1,65,-1
 217 209 l 2,66,67
 211 198 211 198 205 187 c 128,-1,68
 199 176 199 176 195.5 169.5 c 128,-1,69
 192 163 192 163 191 161 c 2,70,-1
 159 110 l 1,71,-1
 143 110 l 1,0,-1
EndSplineSet
EndChar

StartChar: uniE086
Encoding: 57478 57478 136
Width: 512
GlyphClass: 2
Flags: W
LayerCount: 2
Fore
SplineSet
421 402 m 1,0,-1
 326 402 l 1,1,-1
 265 311 l 1,2,-1
 201 402 l 1,3,-1
 106 402 l 1,4,-1
 218 256 l 1,5,-1
 110 110 l 1,6,-1
 311 110 l 1,7,-1
 238 183 l 1,8,-1
 260 207 l 1,9,-1
 344 110 l 1,10,-1
 439 110 l 1,11,-1
 309 260 l 1,12,-1
 421 402 l 1,0,-1
363 148 m 1,13,-1
 353 138 l 1,14,-1
 180 366 l 1,15,-1
 190 376 l 1,16,-1
 363 148 l 1,13,-1
EndSplineSet
EndChar

StartChar: uniE087
Encoding: 57479 57479 137
Width: 512
GlyphClass: 2
Flags: W
LayerCount: 2
Fore
SplineSet
153 420 m 0,0,1
 161 398 161 398 168 370 c 1,2,-1
 168 307 l 1,3,-1
 191 307 l 1,4,-1
 191 309 l 1,5,-1
 191 371 l 1,6,-1
 219 464 l 1,7,-1
 220 467 l 1,8,-1
 196 467 l 1,9,-1
 180 405 l 1,10,-1
 163 467 l 1,11,-1
 138 467 l 2,12,13
 138 466 138 466 138 466 c 1,14,-1
 139 464 l 1,15,-1
 138 464 l 1,16,17
 141 456 141 456 146 442 c 128,-1,18
 151 428 151 428 153 420 c 0,0,1
251 305 m 128,-1,20
 267 305 267 305 276 317 c 0,21,22
 282 326 282 326 282 345 c 2,23,-1
 282 346 l 1,24,-1
 283 347 l 1,25,-1
 283 388 l 2,26,27
 283 406 283 406 276 416 c 0,28,29
 267 428 267 428 251 428 c 128,-1,30
 235 428 235 428 226 416 c 0,31,32
 220 407 220 407 220 388 c 2,33,-1
 220 387 l 1,34,-1
 220 386 l 1,35,-1
 220 345 l 2,36,37
 220 326 220 326 226 317 c 0,38,19
 235 305 235 305 251 305 c 128,-1,20
251 406 m 128,-1,40
 261 406 261 406 261 390 c 2,41,-1
 261 342 l 2,42,43
 261 327 261 327 251 327 c 128,-1,44
 241 327 241 327 241 343 c 2,45,-1
 241 391 l 2,46,39
 241 406 241 406 251 406 c 128,-1,40
316 305 m 0,47,48
 326 305 326 305 340 319 c 1,49,-1
 340 307 l 1,50,-1
 361 307 l 1,51,-1
 361 309 l 1,52,-1
 361 426 l 1,53,-1
 340 426 l 1,54,-1
 340 424 l 1,55,-1
 340 337 l 1,56,57
 333 327 333 327 327 327 c 0,58,59
 322 327 322 327 322 332 c 0,60,61
 321 333 321 333 321 340 c 2,62,-1
 321 426 l 1,63,-1
 300 426 l 1,64,-1
 300 424 l 1,65,-1
 300 331 l 2,66,67
 300 320 300 320 302 314 c 0,68,69
 305 305 305 305 316 305 c 0,47,48
373 190 m 0,70,71
 362 190 362 190 362 174 c 2,72,-1
 362 163 l 1,73,-1
 383 163 l 1,74,-1
 383 174 l 2,75,76
 383 190 383 190 373 190 c 0,70,71
295 190 m 0,77,78
 291 190 291 190 284 185 c 1,79,-1
 284 114 l 1,80,81
 291 109 291 109 295 109 c 0,82,83
 304 109 304 109 304 125 c 2,84,-1
 304 174 l 2,85,86
 304 190 304 190 295 190 c 0,77,78
424 249 m 0,87,88
 421 263 421 263 410.5 272 c 128,-1,89
 400 281 400 281 386 283 c 0,90,91
 343 288 343 288 256 288 c 128,-1,92
 169 288 169 288 126 283 c 0,93,94
 112 281 112 281 101.5 272 c 128,-1,95
 91 263 91 263 88 249 c 0,96,97
 82 223 82 223 82 167 c 128,-1,98
 82 111 82 111 88 84 c 0,99,100
 95 53 95 53 126 50 c 0,101,102
 169 45 169 45 256 45 c 128,-1,103
 343 45 343 45 386 50 c 0,104,105
 417 53 417 53 424 84 c 0,106,107
 430 111 430 111 430 167 c 128,-1,108
 430 223 430 223 424 249 c 0,87,88
181 225 m 1,109,-1
 156 225 l 1,110,-1
 156 91 l 1,111,-1
 133 91 l 1,112,-1
 133 225 l 1,113,-1
 108 225 l 1,114,-1
 108 247 l 1,115,-1
 181 247 l 1,116,-1
 181 225 l 1,109,-1
245 91 m 1,117,-1
 224 91 l 1,118,-1
 224 104 l 1,119,120
 211 90 211 90 200 90 c 128,-1,121
 189 90 189 90 186 98 c 0,122,123
 184 106 184 106 184 116 c 2,124,-1
 184 207 l 1,125,-1
 205 207 l 1,126,-1
 205 122 l 2,127,128
 205 114 205 114 206 114 c 1,129,130
 206 109 206 109 210 109 c 0,131,132
 217 109 217 109 224 119 c 1,133,-1
 224 207 l 1,134,-1
 245 207 l 1,135,-1
 245 91 l 1,117,-1
325 126 m 2,136,137
 325 113 325 113 323 103 c 0,138,139
 319 90 319 90 306 90 c 0,140,141
 294 90 294 90 284 103 c 1,142,-1
 284 91 l 1,143,-1
 263 91 l 1,144,-1
 263 247 l 1,145,-1
 284 247 l 1,146,-1
 284 196 l 1,147,148
 294 209 294 209 306 209 c 0,149,150
 319 209 319 209 323 196 c 0,151,152
 325 186 325 186 325 172 c 2,153,-1
 325 126 l 2,136,137
404 146 m 1,154,-1
 362 146 l 1,155,-1
 362 125 l 2,156,157
 362 109 362 109 373 109 c 0,158,159
 380 109 380 109 382 117 c 2,160,-1
 382 119 l 2,161,162
 382 121 382 121 382.5 124.5 c 128,-1,163
 383 128 383 128 383 132 c 1,164,-1
 404 132 l 1,165,-1
 404 129 l 1,166,-1
 404 115 l 2,167,168
 403 110 403 110 399 102 c 0,169,170
 390 90 390 90 373 90 c 0,171,172
 357 90 357 90 348 102 c 0,173,174
 341 109 341 109 341 129 c 2,175,-1
 341 170 l 2,176,177
 341 189 341 189 348 197 c 0,178,179
 357 209 357 209 373 209 c 128,-1,180
 389 209 389 209 398 197 c 0,181,182
 404 188 404 188 404 170 c 2,183,-1
 404 146 l 1,154,-1
EndSplineSet
EndChar

StartChar: uniE088
Encoding: 57480 57480 138
Width: 512
GlyphClass: 2
Flags: W
LayerCount: 2
Fore
SplineSet
402 384 m 1,0,-1
 110 384 l 1,1,-1
 110 274 l 1,2,-1
 402 274 l 1,3,-1
 402 384 l 1,0,-1
384 293 m 1,4,-1
 128 293 l 1,5,-1
 128 366 l 1,6,-1
 384 366 l 1,7,-1
 384 293 l 1,4,-1
402 238 m 1,8,-1
 110 238 l 1,9,-1
 110 128 l 1,10,-1
 402 128 l 1,11,-1
 402 238 l 1,8,-1
366 165 m 1,12,-1
 146 165 l 1,13,-1
 146 201 l 1,14,-1
 366 201 l 1,15,-1
 366 165 l 1,12,-1
37 475 m 1,16,-1
 37 37 l 1,17,-1
 475 37 l 1,18,-1
 475 475 l 1,19,-1
 37 475 l 1,16,-1
439 73 m 1,20,-1
 73 73 l 1,21,-1
 73 439 l 1,22,-1
 439 439 l 1,23,-1
 439 73 l 1,20,-1
EndSplineSet
EndChar

StartChar: uniE064
Encoding: 57444 57444 139
Width: 512
GlyphClass: 2
Flags: W
LayerCount: 2
Fore
SplineSet
366 366 m 2,0,-1
 311 366 l 1,1,-1
 311 386 l 2,2,3
 311 402 311 402 298 402 c 2,4,-1
 201 402 l 2,5,6
 183 402 183 402 183 386 c 2,7,-1
 183 366 l 1,8,-1
 128 366 l 2,9,10
 113 366 113 366 102 357 c 128,-1,11
 91 348 91 348 91 334 c 2,12,-1
 91 161 l 2,13,14
 91 147 91 147 102 137.5 c 128,-1,15
 113 128 113 128 128 128 c 2,16,-1
 366 128 l 2,17,18
 381 128 381 128 391.5 137.5 c 128,-1,19
 402 147 402 147 402 161 c 2,20,-1
 402 334 l 2,21,22
 402 348 402 348 391.5 357 c 128,-1,23
 381 366 381 366 366 366 c 2,0,-1
250 181 m 128,-1,25
 222 181 222 181 201.5 201.5 c 128,-1,26
 181 222 181 222 181 250 c 128,-1,27
 181 278 181 278 201.5 298.5 c 128,-1,28
 222 319 222 319 250 319 c 128,-1,29
 278 319 278 319 298.5 298.5 c 128,-1,30
 319 278 319 278 319 250 c 128,-1,31
 319 222 319 222 298.5 201.5 c 128,-1,24
 278 181 278 181 250 181 c 128,-1,25
EndSplineSet
EndChar

StartChar: uniE089
Encoding: 57481 57481 140
Width: 512
GlyphClass: 2
Flags: W
LayerCount: 2
Fore
SplineSet
293 461 m 1,0,-1
 384 415 l 1,1,-1
 384 284 l 2,2,3
 384 289 384 289 421 289 c 1,4,-1
 421 435 l 1,5,-1
 274 504 l 1,6,-1
 145 443 l 1,7,-1
 0 512 l 1,8,-1
 0 126 l 1,9,-1
 143 57 l 1,10,-1
 274 118 l 1,11,-1
 293 111 l 1,12,-1
 293 461 l 1,0,-1
128 100 m 1,13,-1
 37 146 l 1,14,-1
 37 461 l 1,15,-1
 128 415 l 1,16,-1
 128 100 l 1,13,-1
256 146 m 1,17,-1
 165 100 l 1,18,-1
 165 415 l 1,19,-1
 256 461 l 1,20,-1
 256 146 l 1,17,-1
414 257 m 0,21,22
 375 257 375 257 347 229 c 128,-1,23
 319 201 319 201 319 161 c 0,24,25
 319 105 319 105 369 78 c 1,26,-1
 414 2 l 1,27,-1
 460 78 l 1,28,29
 510 105 510 105 510 161 c 0,30,31
 510 201 510 201 482 229 c 128,-1,32
 454 257 454 257 414 257 c 0,21,22
414 129 m 128,-1,34
 401 129 401 129 392 138.5 c 128,-1,35
 383 148 383 148 383 161 c 128,-1,36
 383 174 383 174 392 183.5 c 128,-1,37
 401 193 401 193 414 193 c 0,38,39
 428 193 428 193 437 183.5 c 128,-1,40
 446 174 446 174 446 161 c 128,-1,41
 446 148 446 148 436.5 138.5 c 128,-1,33
 427 129 427 129 414 129 c 128,-1,34
EndSplineSet
EndChar

StartChar: uniE08A
Encoding: 57482 57482 141
Width: 512
GlyphClass: 2
Flags: W
LayerCount: 2
Fore
SplineSet
352 352 m 1,0,-1
 352 448 l 1,1,-1
 320 448 l 1,2,-1
 320 384 l 1,3,-1
 240 464 l 1,4,-1
 96 320 l 1,5,-1
 128 320 l 1,6,-1
 128 96 l 1,7,-1
 352 96 l 1,8,-1
 352 320 l 1,9,-1
 384 320 l 1,10,-1
 352 352 l 1,0,-1
192 192 m 1,11,-1
 160 192 l 1,12,-1
 160 224 l 1,13,-1
 192 224 l 1,14,-1
 192 192 l 1,11,-1
192 256 m 1,15,-1
 160 256 l 1,16,-1
 160 288 l 1,17,-1
 192 288 l 1,18,-1
 192 256 l 1,15,-1
192 320 m 1,19,-1
 160 320 l 1,20,-1
 160 352 l 1,21,-1
 192 352 l 1,22,-1
 192 320 l 1,19,-1
256 192 m 1,23,-1
 256 128 l 1,24,-1
 224 128 l 1,25,-1
 224 224 l 1,26,-1
 256 224 l 1,27,-1
 256 192 l 1,23,-1
256 256 m 1,28,-1
 224 256 l 1,29,-1
 224 288 l 1,30,-1
 256 288 l 1,31,-1
 256 256 l 1,28,-1
256 320 m 1,32,-1
 224 320 l 1,33,-1
 224 352 l 1,34,-1
 256 352 l 1,35,-1
 256 320 l 1,32,-1
256 384 m 1,36,-1
 224 384 l 1,37,-1
 224 416 l 1,38,-1
 256 416 l 1,39,-1
 256 384 l 1,36,-1
320 192 m 1,40,-1
 288 192 l 1,41,-1
 288 224 l 1,42,-1
 320 224 l 1,43,-1
 320 192 l 1,40,-1
320 256 m 1,44,-1
 288 256 l 1,45,-1
 288 288 l 1,46,-1
 320 288 l 1,47,-1
 320 256 l 1,44,-1
288 320 m 1,48,-1
 288 352 l 1,49,-1
 320 352 l 1,50,-1
 320 320 l 1,51,-1
 288 320 l 1,48,-1
EndSplineSet
EndChar

StartChar: uniE08B
Encoding: 57483 57483 142
Width: 512
GlyphClass: 2
Flags: W
LayerCount: 2
Fore
SplineSet
266 409 m 1,0,-1
 334 461 l 1,1,-1
 314 487 l 1,2,-1
 211 406 l 1,3,-1
 292 303 l 1,4,-1
 317 323 l 1,5,-1
 265 389 l 1,6,7
 316 384 316 384 349.5 345 c 128,-1,8
 383 306 383 306 383 256 c 128,-1,9
 383 206 383 206 345 168 c 1,10,-1
 370 143 l 1,11,12
 415 188 415 188 415 256 c 0,13,14
 415 320 415 320 373 365 c 128,-1,15
 331 410 331 410 266 409 c 1,0,-1
226 212 m 1,16,-1
 199 194 l 1,17,-1
 251 121 l 1,18,19
 203 126 203 126 165.5 166.5 c 128,-1,20
 128 207 128 207 128 256 c 0,21,22
 128 308 128 308 170 347 c 1,23,-1
 145 372 l 1,24,25
 97 327 97 327 97 256 c 0,26,27
 97 193 97 193 137.5 149 c 128,-1,28
 178 105 178 105 251 103 c 1,29,-1
 169 58 l 1,30,-1
 187 31 l 1,31,-1
 297 102 l 1,32,-1
 226 212 l 1,16,-1
EndSplineSet
EndChar

StartChar: uniE08C
Encoding: 57484 57484 143
Width: 512
GlyphClass: 2
Flags: W
LayerCount: 2
Fore
SplineSet
32 480 m 1,0,-1
 32 64 l 1,1,-1
 480 64 l 1,2,-1
 480 480 l 1,3,-1
 32 480 l 1,0,-1
448 96 m 1,4,-1
 64 96 l 1,5,-1
 64 192 l 1,6,-1
 448 192 l 1,7,-1
 448 96 l 1,4,-1
448 224 m 1,8,-1
 64 224 l 1,9,-1
 64 320 l 1,10,-1
 448 320 l 1,11,-1
 448 224 l 1,8,-1
448 352 m 1,12,-1
 64 352 l 1,13,-1
 64 448 l 1,14,-1
 448 448 l 1,15,-1
 448 352 l 1,12,-1
160 416 m 1,16,-1
 224 416 l 1,17,-1
 224 384 l 1,18,-1
 160 384 l 1,19,-1
 160 416 l 1,16,-1
256 416 m 1,20,-1
 320 416 l 1,21,-1
 320 384 l 1,22,-1
 256 384 l 1,23,-1
 256 416 l 1,20,-1
352 416 m 1,24,-1
 416 416 l 1,25,-1
 416 384 l 1,26,-1
 352 384 l 1,27,-1
 352 416 l 1,24,-1
160 288 m 1,28,-1
 224 288 l 1,29,-1
 224 256 l 1,30,-1
 160 256 l 1,31,-1
 160 288 l 1,28,-1
256 288 m 1,32,-1
 320 288 l 1,33,-1
 320 256 l 1,34,-1
 256 256 l 1,35,-1
 256 288 l 1,32,-1
352 288 m 1,36,-1
 416 288 l 1,37,-1
 416 256 l 1,38,-1
 352 256 l 1,39,-1
 352 288 l 1,36,-1
160 160 m 1,40,-1
 224 160 l 1,41,-1
 224 128 l 1,42,-1
 160 128 l 1,43,-1
 160 160 l 1,40,-1
256 160 m 1,44,-1
 320 160 l 1,45,-1
 320 128 l 1,46,-1
 256 128 l 1,47,-1
 256 160 l 1,44,-1
352 160 m 1,48,-1
 416 160 l 1,49,-1
 416 128 l 1,50,-1
 352 128 l 1,51,-1
 352 160 l 1,48,-1
EndSplineSet
EndChar

StartChar: uniE08D
Encoding: 57485 57485 144
Width: 512
GlyphClass: 2
Flags: W
LayerCount: 2
Fore
SplineSet
96 288 m 1,0,-1
 160 288 l 1,1,-1
 160 256 l 1,2,-1
 96 256 l 1,3,-1
 96 288 l 1,0,-1
32 480 m 1,4,-1
 32 64 l 1,5,-1
 480 64 l 1,6,-1
 480 480 l 1,7,-1
 32 480 l 1,4,-1
448 96 m 1,8,-1
 64 96 l 1,9,-1
 64 192 l 1,10,-1
 448 192 l 1,11,-1
 448 96 l 1,8,-1
448 224 m 1,12,-1
 64 224 l 1,13,-1
 64 320 l 1,14,-1
 448 320 l 1,15,-1
 448 224 l 1,12,-1
448 352 m 1,16,-1
 64 352 l 1,17,-1
 64 448 l 1,18,-1
 448 448 l 1,19,-1
 448 352 l 1,16,-1
96 416 m 1,20,-1
 160 416 l 1,21,-1
 160 384 l 1,22,-1
 96 384 l 1,23,-1
 96 416 l 1,20,-1
96 160 m 1,24,-1
 160 160 l 1,25,-1
 160 128 l 1,26,-1
 96 128 l 1,27,-1
 96 160 l 1,24,-1
EndSplineSet
EndChar

StartChar: uniE08E
Encoding: 57486 57486 145
Width: 512
GlyphClass: 2
Flags: W
LayerCount: 2
Fore
SplineSet
434 274 m 1,0,1
 474 277 474 277 484 303 c 1,2,3
 476 298 476 298 460 295.5 c 128,-1,4
 444 293 444 293 430 297 c 1,5,6
 428 305 428 305 428 308 c 0,7,8
 418 343 418 343 390 365.5 c 128,-1,9
 362 388 362 388 330 384 c 1,10,11
 333 386 333 386 341 388 c 2,12,-1
 350 390 l 2,13,14
 360 393 360 393 365.5 397 c 128,-1,15
 371 401 371 401 369 405 c 0,16,17
 368 407 368 407 363.5 407 c 128,-1,18
 359 407 359 407 353 405.5 c 128,-1,19
 347 404 347 404 341.5 402 c 128,-1,20
 336 400 336 400 330.5 398 c 128,-1,21
 325 396 325 396 324 396 c 1,22,23
 347 404 347 404 349 415 c 1,24,25
 328 412 328 412 313 398 c 1,26,27
 319 406 319 406 320 411 c 1,28,29
 280 386 280 386 247 300 c 1,30,31
 225 322 225 322 213 328 c 0,32,33
 167 354 167 354 94 380 c 1,34,35
 92 344 92 344 134 322 c 1,36,37
 126 323 126 323 105 319 c 1,38,39
 112 283 112 283 157 273 c 1,40,41
 137 272 137 272 125 260 c 1,42,43
 143 228 143 228 182 233 c 1,44,45
 157 221 157 221 165.5 205.5 c 128,-1,46
 174 190 174 190 197 193 c 1,47,48
 160 156 160 156 109 156 c 128,-1,49
 58 156 58 156 26 189 c 1,50,51
 68 132 68 132 133 110.5 c 128,-1,52
 198 89 198 89 258.5 101 c 128,-1,53
 319 113 319 113 368 152.5 c 128,-1,54
 417 192 417 192 431 248 c 1,55,56
 467 247 467 247 486 268 c 1,57,58
 455 264 455 264 434 274 c 1,0,1
EndSplineSet
EndChar

StartChar: uniE08F
Encoding: 57487 57487 146
Width: 512
GlyphClass: 2
Flags: W
LayerCount: 2
Fore
SplineSet
486 410 m 2,0,1
 486 440 486 440 463 463 c 128,-1,2
 440 486 440 486 410 486 c 2,3,-1
 102 486 l 2,4,5
 72 486 72 486 49 463 c 128,-1,6
 26 440 26 440 26 410 c 2,7,-1
 26 102 l 2,8,9
 26 72 26 72 49 49 c 128,-1,10
 72 26 72 26 102 26 c 2,11,-1
 256 26 l 1,12,-1
 256 200 l 1,13,-1
 200 200 l 1,14,-1
 200 276 l 1,15,-1
 256 276 l 1,16,-1
 256 306 l 2,17,18
 256 345 256 345 281.5 374.5 c 128,-1,19
 307 404 307 404 342 404 c 2,20,-1
 404 404 l 1,21,-1
 404 328 l 1,22,-1
 342 328 l 2,23,24
 337 328 337 328 332.5 322 c 128,-1,25
 328 316 328 316 328 307 c 2,26,-1
 328 276 l 1,27,-1
 404 276 l 1,28,-1
 404 200 l 1,29,-1
 328 200 l 1,30,-1
 328 26 l 1,31,-1
 410 26 l 2,32,33
 440 26 440 26 463 49 c 128,-1,34
 486 72 486 72 486 102 c 2,35,-1
 486 410 l 2,0,1
EndSplineSet
EndChar

StartChar: uniE090
Encoding: 57488 57488 147
Width: 512
GlyphClass: 2
Flags: W
LayerCount: 2
Fore
SplineSet
121 118 m 1,0,-1
 53 152 l 1,1,-1
 53 448 l 1,2,-1
 139 405 l 1,3,-1
 139 242 l 1,4,5
 151 258 151 258 173 270 c 1,6,-1
 173 405 l 1,7,-1
 259 448 l 1,8,-1
 259 279 l 1,9,-1
 293 280 l 1,10,-1
 293 448 l 1,11,-1
 379 405 l 1,12,-1
 379 282 l 2,13,14
 379 286 379 286 414 286 c 1,15,-1
 414 423 l 1,16,-1
 276 488 l 1,17,-1
 155 431 l 1,18,-1
 19 495 l 1,19,-1
 19 133 l 1,20,-1
 153 68 l 1,21,-1
 121 118 l 1,0,-1
408 256 m 0,22,23
 385 256 385 256 366 245 c 0,24,25
 336 230 336 230 323 196 c 0,26,27
 318 181 318 181 318 166 c 0,28,29
 318 153 318 153 323 136 c 0,30,31
 335 104 335 104 365 88 c 1,32,-1
 366 86 l 1,33,-1
 408 17 l 1,34,-1
 450 88 l 1,35,36
 498 114 498 114 498 166 c 0,37,38
 498 203 498 203 471.5 229.5 c 128,-1,39
 445 256 445 256 408 256 c 0,22,23
408 136 m 0,40,41
 395 136 395 136 386.5 145 c 128,-1,42
 378 154 378 154 378 166 c 0,43,44
 378 179 378 179 386.5 187.5 c 128,-1,45
 395 196 395 196 408 196 c 0,46,47
 420 196 420 196 429 187.5 c 128,-1,48
 438 179 438 179 438 166 c 0,49,50
 438 154 438 154 429.5 145.5 c 128,-1,51
 421 137 421 137 408 136 c 0,40,41
332 69 m 1,52,53
 284 107 284 107 284 166 c 0,54,55
 284 218 284 218 322 256 c 1,56,57
 296 256 296 256 276 242 c 0,58,59
 248 225 248 225 239 194 c 0,60,61
 234 179 234 179 234 166 c 128,-1,62
 234 153 234 153 239 138 c 0,63,64
 248 109 248 109 276 91 c 0,65,66
 277 90 277 90 278.5 89 c 128,-1,67
 280 88 280 88 281 88 c 2,68,-1
 324 17 l 1,69,-1
 343 49 l 1,70,-1
 332 69 l 1,52,53
244 69 m 1,71,72
 196 107 196 107 196 166 c 0,73,74
 196 219 196 219 235 256 c 1,75,76
 209 256 209 256 189 242 c 0,77,78
 162 226 162 226 151 194 c 0,79,80
 147 176 147 176 147 166 c 0,81,82
 147 150 147 150 151 138 c 0,83,84
 162 107 162 107 189 91 c 0,85,86
 190 90 190 90 194 88 c 2,87,-1
 236 17 l 1,88,-1
 256 49 l 1,89,-1
 244 69 l 1,71,72
EndSplineSet
EndChar

StartChar: uniE091
Encoding: 57489 57489 148
Width: 512
GlyphClass: 2
Flags: W
LayerCount: 2
Fore
SplineSet
256 491 m 0,0,1
 212 491 212 491 174 469 c 0,2,3
 112 437 112 437 91 373 c 0,4,5
 80 345 80 345 80 315 c 0,6,7
 80 286 80 286 90 256 c 0,8,9
 113 192 113 192 172 160 c 1,10,-1
 174 158 l 1,11,-1
 256 21 l 1,12,-1
 340 160 l 1,13,14
 382 183 382 183 407 224.5 c 128,-1,15
 432 266 432 266 432 315 c 0,16,17
 432 388 432 388 380.5 439.5 c 128,-1,18
 329 491 329 491 256 491 c 0,0,1
257 212 m 2,19,-1
 256 212 l 2,20,21
 213 212 213 212 183.5 242 c 128,-1,22
 154 272 154 272 154 315 c 0,23,24
 154 357 154 357 183.5 387 c 128,-1,25
 213 417 213 417 256 417 c 2,26,-1
 257 417 l 2,27,28
 299 416 299 416 328.5 386.5 c 128,-1,29
 358 357 358 357 358 315 c 128,-1,30
 358 273 358 273 328.5 243 c 128,-1,31
 299 213 299 213 257 212 c 2,19,-1
EndSplineSet
EndChar
